<svg width="122" height="26" viewBox="0 0 122 26" fill="none" xmlns="http://www.w3.org/2000/svg">
<g id="Vector">
<path fill-rule="evenodd" clip-rule="evenodd" d="M7.49013 8.66223L18.9767 0.182596C19.0883 0.082652 19.2294 0.0201294 19.3797 0.00409655C19.53 -0.0119363 19.6816 0.0193499 19.8125 0.0934268C19.9434 0.167504 20.0468 0.280521 20.1077 0.416068C20.1686 0.551616 20.1838 0.702646 20.1512 0.847261L18.3984 14.8331C18.3342 16.1405 17.4316 16.1068 17.0536 15.5973C16.4932 14.3017 15.2978 12.9621 13.6585 11.9021C13.9045 11.916 14.1501 11.8692 14.3728 11.766C16.7442 10.4908 15.7819 8.54511 16.1241 6.31979C14.331 7.72087 12.1269 7.88045 12.1867 10.5289C12.2062 10.7629 12.2842 10.9887 12.4138 11.1862L12.4258 11.2052C10.6804 10.3517 8.90522 10.0121 7.48565 10.1804C6.84161 10.1189 6.36643 9.37082 7.49013 8.66223Z" fill="#F2EFE8"/>
<path fill-rule="evenodd" clip-rule="evenodd" d="M4.77949 12.3809C1.65195 14.5183 -0.541663 17.7187 0.117318 18.4829C0.918255 19.4067 1.2724 18.1359 2.36622 19.3613C3.46004 20.5867 2.25265 23.8281 4.85869 25.4678C7.61266 26.8601 9.87053 24.216 11.5038 24.5294C13.137 24.8427 12.1912 25.7796 13.4075 25.9934C14.4087 26.172 16.1406 22.711 16.4678 18.9895C16.7099 16.2298 15.3381 14.2782 13.0922 12.8406C13.3044 13.3325 13.1863 14.3295 11.7025 16.5812C9.63144 19.7259 8.01014 20.9732 7.63358 20.7536C7.25702 20.534 7.54392 18.5444 9.28775 15.2152C10.537 12.8303 11.3573 12.2315 11.8998 12.1656C9.50891 10.9842 7.09713 10.7953 4.77949 12.3809Z" fill="#F2EFE8"/>
<path d="M29.7304 18.8601H31.921L33.1729 15.9693H38.9277L40.1621 18.8601H42.4223L37.0674 6.80085H35.0853L29.7304 18.8601ZM33.9552 14.1048L36.0416 9.31533L38.1453 14.1048H33.9552Z" fill="#F2EFE8"/>
<path d="M45.9002 18.8601H48.0387V15.3877L49.9338 13.4719L54.0891 18.8601H56.6797L51.3943 12.0351L56.4536 6.88638H53.8283L48.0387 12.9074V6.88638H45.9002V18.8601Z" fill="#F2EFE8"/>
<path d="M63.4054 18.8601H65.5613V8.83638H69.421V6.88638H59.5457V8.83638H63.4054V18.8601Z" fill="#F2EFE8"/>
<path d="M73.8969 18.8601H76.0354V6.88638H73.8969V18.8601Z" fill="#F2EFE8"/>
<path d="M86.3347 19.0653C88.6123 19.0653 90.0032 18.2443 91.2723 16.9443L89.8988 15.5759C88.8557 16.5337 87.8994 17.1324 86.4042 17.1324C84.0745 17.1324 82.388 15.2166 82.388 12.8732C82.388 10.4956 84.0745 8.61401 86.4042 8.61401C87.7951 8.61401 88.8383 9.2127 89.8119 10.1022L91.1854 8.54559C90.0205 7.45085 88.6644 6.68112 86.4216 6.68112C82.7357 6.68112 80.1452 9.46927 80.1452 12.8732C80.1452 16.3456 82.7879 19.0653 86.3347 19.0653Z" fill="#F2EFE8"/>
<path d="M100.378 19.0653C104.116 19.0653 106.759 16.243 106.759 12.8732C106.759 9.46927 104.151 6.68112 100.413 6.68112C96.6751 6.68112 94.0324 9.50348 94.0324 12.8732C94.0324 16.2772 96.6403 19.0653 100.378 19.0653ZM100.413 17.1324C97.9965 17.1324 96.2752 15.1995 96.2752 12.8732C96.2752 10.5127 97.9617 8.61401 100.378 8.61401C102.795 8.61401 104.516 10.5469 104.516 12.8732C104.516 15.2337 102.83 17.1324 100.413 17.1324Z" fill="#F2EFE8"/>
<path d="M110.038 18.8601H112.142V10.3074L115.95 15.918H116.019L119.861 10.2732V18.8601H122V6.88638H119.722L116.019 12.5482L112.316 6.88638H110.038V18.8601Z" fill="#F2EFE8"/>
</g>
</svg>
