<svg width="22" height="22" viewBox="0 0 22 22" fill="none" xmlns="http://www.w3.org/2000/svg">
<g id="svg-gobbler (12) 1" clip-path="url(#clip0_255_2899)">
<g id="Group">
<path id="Vector" d="M11.0002 0.615234C7.18292 0.615234 4.07715 3.72101 4.07715 7.53833C4.07715 8.68428 4.36366 9.82051 4.90832 10.8283L10.6216 21.1614C10.6977 21.2991 10.8426 21.3845 11.0002 21.3845C11.1578 21.3845 11.3028 21.2991 11.3788 21.1614L17.0943 10.8249C17.6368 9.82051 17.9233 8.68424 17.9233 7.53828C17.9233 3.72101 14.8176 0.615234 11.0002 0.615234ZM11.0002 10.9999C9.09158 10.9999 7.53871 9.44699 7.53871 7.53833C7.53871 5.62967 9.09158 4.0768 11.0002 4.0768C12.9089 4.0768 14.4618 5.62967 14.4618 7.53833C14.4618 9.44699 12.9089 10.9999 11.0002 10.9999Z" fill="#FF5E3B"/>
</g>
</g>
<defs>
<clipPath id="clip0_255_2899">
<rect width="20.7692" height="20.7692" fill="white" transform="translate(0.615234 0.615234)"/>
</clipPath>
</defs>
</svg>
