<svg width="10" height="10" viewBox="0 0 10 10" fill="none" xmlns="http://www.w3.org/2000/svg">
<g id="svg-gobbler (97) 1" clip-path="url(#clip0_268_2125)">
<g id="Group">
<path id="Vector" d="M10 3.18359V2.65625C10 2.05219 9.51031 1.5625 8.90625 1.5625H1.09375C0.489688 1.5625 0 2.05219 0 2.65625V3.18359C0 3.20949 0.0102888 3.23433 0.0286029 3.25265C0.046917 3.27096 0.0717562 3.28125 0.0976562 3.28125H9.90234C9.92824 3.28125 9.95308 3.27096 9.9714 3.25265C9.98971 3.23433 10 3.20949 10 3.18359ZM0 4.00391V7.34375C0 7.94781 0.489688 8.4375 1.09375 8.4375H8.90625C9.51031 8.4375 10 7.94781 10 7.34375V4.00391C10 3.97801 9.98971 3.95317 9.9714 3.93485C9.95308 3.91654 9.92824 3.90625 9.90234 3.90625H0.0976562C0.0717562 3.90625 0.046917 3.91654 0.0286029 3.93485C0.0102888 3.95317 0 3.97801 0 4.00391ZM2.5 6.5625C2.5 6.73508 2.36008 6.875 2.1875 6.875H1.875C1.70242 6.875 1.5625 6.73508 1.5625 6.5625V6.25C1.5625 6.07742 1.70242 5.9375 1.875 5.9375H2.1875C2.36008 5.9375 2.5 6.07742 2.5 6.25V6.5625Z" fill="white"/>
</g>
</g>
<defs>
<clipPath id="clip0_268_2125">
<rect width="10" height="10" fill="white"/>
</clipPath>
</defs>
</svg>
