<svg width="10" height="11" viewBox="0 0 10 11" fill="none" xmlns="http://www.w3.org/2000/svg">
<path id="Vector" d="M1.64508 2.68247C1.50973 2.85985 1.41417 2.89218 1.41417 2.74207V2.46974C1.41417 2.37689 1.39588 2.28494 1.36035 2.19915C1.32481 2.11337 1.27273 2.03542 1.20707 1.96976C1.14141 1.9041 1.06346 1.85202 0.977675 1.81648C0.891887 1.78095 0.799941 1.76266 0.707085 1.76266C0.614229 1.76266 0.522283 1.78095 0.436495 1.81648C0.350708 1.85202 0.272759 1.9041 0.2071 1.96976C0.141441 2.03542 0.089358 2.11337 0.0538236 2.19915C0.0182893 2.28494 -1.38366e-09 2.37689 0 2.46974L0 4.89403C0 5.08156 0.0744962 5.26142 0.2071 5.39402C0.339705 5.52662 0.519554 5.60112 0.707085 5.60112H3.13138C3.31891 5.60112 3.49876 5.52662 3.63136 5.39402C3.76397 5.26142 3.83846 5.08156 3.83846 4.89403C3.83846 4.7065 3.76397 4.52665 3.63136 4.39405C3.49876 4.26145 3.31891 4.18695 3.13138 4.18695H2.86996C2.72551 4.18695 2.6849 4.0219 2.80733 3.83543C3.3633 2.98955 4.31645 2.46267 5.34657 2.46267C7.02135 2.46267 8.38381 3.82512 8.38381 5.49991C8.38381 7.17448 7.02135 8.53694 5.34657 8.53694C5.13225 8.53694 4.92671 8.62208 4.77516 8.77362C4.62361 8.92517 4.53848 9.13071 4.53848 9.34503C4.53848 9.55935 4.62361 9.7649 4.77516 9.91644C4.92671 10.068 5.13225 10.1531 5.34657 10.1531C7.91248 10.1533 10 8.06582 10 5.50011C10 2.9342 7.91248 0.84668 5.34657 0.84668C3.87967 0.846478 2.51419 1.54366 1.64508 2.68247Z" fill="#FF5E3B"/>
</svg>
