<svg width="153" height="29" viewBox="0 0 153 29" fill="none" xmlns="http://www.w3.org/2000/svg">
<g id="logo_no descriptor_color 1" clip-path="url(#clip0_106_456)">
<g id="Group">
<path id="Vector" d="M56.0439 0.730713H57.1275V24.1293C57.1275 26.4148 55.278 28.2695 52.9989 28.2695H51.9154V4.87089C51.9154 2.58536 53.7648 0.730713 56.0439 0.730713ZM38.2033 0.730713C35.9242 0.730713 34.0747 2.58536 34.0747 4.87089V28.2695H35.1209C37.4 28.2695 39.2494 26.4148 39.2494 24.1293V16.8231H43.5275C45.8066 16.8231 47.656 14.9684 47.656 12.6829V11.9898H39.2494V0.730713H38.2033Z" fill="white"/>
<path id="Vector_2" d="M110.257 12.2332L106.409 11.5026C103.737 11.0155 103.195 9.47933 103.195 8.26163C103.195 6.57558 104.69 4.77713 107.455 4.7022H111.751C114.087 4.7022 116.011 2.79134 116.011 0.430879V0H107.473C102.075 0.0749354 97.8525 3.91537 97.8525 8.74871C97.8525 12.7765 100.692 15.8301 105.269 16.7106L109.192 17.4412C111.359 17.8534 112.648 19.1085 112.648 20.7946C112.648 22.874 110.836 24.2791 108.127 24.2791C107.959 24.2791 107.81 24.2603 107.66 24.2416L107.399 24.2229H102.99C100.655 24.2229 98.7306 26.1337 98.7306 28.4942V28.9625L107.212 28.9813L108.183 28.9625V28.9813C114.647 28.9063 118.14 24.5226 118.14 20.3824C118.159 16.261 115.133 13.1324 110.257 12.2332Z" fill="white"/>
<path id="Vector_3" d="M139.213 28.3817C147.209 28.3817 153 22.5555 153 14.5187C153 6.46312 147.209 0.618164 139.213 0.618164C131.199 0.618164 125.389 6.46312 125.389 14.5187C125.389 22.5555 131.199 28.3817 139.213 28.3817ZM139.213 5.28289C143.417 5.28289 147.956 8.16791 147.956 14.4812C147.956 20.7758 143.417 23.6421 139.213 23.6421C134.991 23.6421 130.433 20.7758 130.433 14.4812C130.433 8.14917 134.991 5.28289 139.213 5.28289Z" fill="white"/>
<path id="Vector_4" d="M26.6956 14.0129H28.8253C28.5824 5.90116 22.5297 0 14.4407 0C6.07143 0 0 6.10723 0 14.5187C0 22.8928 6.07143 28.9813 14.422 29H24.4725V27.9134C24.4725 25.5717 22.567 23.6421 20.2132 23.6421H14.422C10.2 23.6234 5.66044 20.7571 5.66044 14.4813C5.66044 8.16796 10.2 5.28295 14.4407 5.28295C17.3549 5.28295 21.2593 6.80039 22.6604 11.0904C23.2396 12.8327 24.8648 14.0129 26.6956 14.0129Z" fill="#15C6E1"/>
<path id="Vector_5" d="M70.1485 12.7203V7.62468L82.7584 27.801H84.3276C86.476 27.801 88.232 26.0401 88.232 23.8857V1.19897H87.3353C85.187 1.19897 83.4309 2.95996 83.4309 5.11435V20.0078L71.8485 1.19897H69.2892C67.1408 1.19897 65.3848 2.95996 65.3848 5.11435V16.6357H66.2441C68.3925 16.6357 70.1485 14.8747 70.1485 12.7203Z" fill="white"/>
<path id="Vector_6" d="M70.1485 24.2229V17.9658H69.2892C67.1408 17.9658 65.3848 19.7268 65.3848 21.8812V27.8573C65.7771 27.8573 66.1507 27.8573 66.543 27.8573C68.5419 27.8386 70.1485 26.2274 70.1485 24.2229Z" fill="#FF5E3B"/>
</g>
</g>
<defs>
<clipPath id="clip0_106_456">
<rect width="153" height="29" fill="white"/>
</clipPath>
</defs>
</svg>
