<svg width="97" height="100" viewBox="0 0 97 100" xmlns="http://www.w3.org/2000/svg">
<g id="_&#208;&#160;&#194;&#160;&#208;&#160;&#194;&#181;&#208;&#160;&#194;&#182;&#208;&#160;&#209;&#145;&#208;&#160;&#209;&#152;_&#208;&#160;&#209;&#145;&#208;&#160;&#194;&#183;&#208;&#160;&#209;&#149;&#208;&#160;&#194;&#187;&#208;&#161;&#208;&#143;&#208;&#161;&#226;&#128;&#160;&#208;&#160;&#209;&#145;&#208;&#160;&#209;&#145;" clip-path="url(#clip0_51_1426)">
<path id="Vector" d="M27.6079 20.8154H2.92627L32.3456 53.273H57.0273L27.6079 20.8154ZM10.1686 24.0275H26.1894L49.7849 50.0609H33.7641L10.1686 24.0275Z"/>
<path id="Vector_2" d="M52.4435 0L27.6079 19.5647H2.92627L8.36109 15.2847C20.9289 5.38455 36.4552 0 52.4435 0Z"/>
<path id="Vector_3" d="M64.6543 20.7017H39.9727L69.392 53.1592H94.0736L64.6543 20.7017ZM47.215 23.9137H63.2317L86.8313 49.9472H70.8105L47.215 23.9137Z"/>
<path id="Vector_4" d="M94.0739 54.41L88.6391 58.6901C82.3572 63.6401 75.3296 67.4613 67.8806 70.0439C60.4315 72.6306 52.5528 73.9747 44.5566 73.9747L69.3923 54.41H94.0739Z"/>
<path id="Vector_5" d="M6.22502 89.9537C5.75895 90.3842 5.1186 90.6563 4.42963 90.6563C2.96251 90.6563 1.77098 89.4786 1.77098 88.0046C1.77098 86.5305 2.95845 85.3529 4.42963 85.3529C5.1186 85.3529 5.75895 85.6209 6.22502 86.0635L7.47329 84.8047C6.68299 84.0454 5.60899 83.5784 4.43368 83.5784C1.99794 83.5784 0.0161133 85.5641 0.0161133 88.0046C0.0161133 90.4451 1.99794 92.4308 4.43368 92.4308C5.60899 92.4308 6.68299 91.9638 7.47329 91.2045L6.22502 89.9537Z"/>
<path id="Vector_6" d="M19.109 83.5784C16.6732 83.5784 14.6914 85.5641 14.6914 88.0046C14.6914 90.4451 16.6732 92.4308 19.109 92.4308C21.5447 92.4308 23.5265 90.4451 23.5265 88.0046C23.5265 85.5641 21.5447 83.5784 19.109 83.5784ZM19.109 90.6644C17.6419 90.6644 16.4503 89.4746 16.4503 88.0046C16.4503 86.5346 17.6378 85.3529 19.109 85.3529C20.5801 85.3529 21.7555 86.5427 21.7555 88.0046C21.7555 89.4665 20.568 90.6644 19.109 90.6644Z"/>
<path id="Vector_7" d="M35.819 90.0471L33.2333 83.5784H31.3325V92.4308H33.0914V88.0046L34.8625 92.4308H36.7633L38.5344 88.0046V92.4308H40.2933V83.5784H38.3925L35.819 90.0471Z"/>
<path id="Vector_8" d="M50.5669 83.5784H48.0947V92.4267H49.8536V88.8898H50.575C52.03 88.8898 53.2094 87.7 53.2094 86.2382C53.2094 84.7763 52.0341 83.5784 50.5629 83.5784H50.5669ZM50.5669 87.1153H49.8577V85.3529H50.5669C51.0573 85.3529 51.4505 85.7509 51.4505 86.2422C51.4505 86.7336 51.0533 87.1193 50.5669 87.1193V87.1153Z"/>
<path id="Vector_9" d="M63.0457 83.5784L59.8521 92.4267H61.7285L62.6242 89.9537H65.3396L66.2352 92.4267H68.1117L64.9181 83.5784H63.0416H63.0457ZM63.2686 88.1792L63.9778 86.1813L64.6992 88.1792H63.2645H63.2686Z"/>
<path id="Vector_10" d="M83.0378 83.5784H81.2789V89.4868L77.7489 83.5784H75.686V92.4308H77.445V86.5346L80.9871 92.4308H83.0378V83.5784Z"/>
<path id="Vector_11" d="M94.6778 92.4308V88.2157L96.9838 83.5784H95.0182L93.8064 86.0311L92.5825 83.5784H90.6128L92.9188 88.2157V92.4308H94.6778Z"/>
<path id="Vector_12" d="M0 96.7271H1.02536V99.9676H1.59276V96.7271H2.61812V96.2195H0V96.7271Z"/>
<path id="Vector_13" d="M6.75188 96.2195L5.39014 99.9676H5.98995L6.2777 99.131H7.69619L7.98799 99.9676H8.58781L7.22606 96.2195H6.75188ZM6.44387 98.6275L6.98694 96.991H6.9991L7.54218 98.6275H6.44792H6.44387Z"/>
<path id="Vector_14" d="M13.2606 98.4407H14.0225V98.6356C14.0225 98.8711 13.9455 99.0579 13.8037 99.2041C13.6577 99.3544 13.4794 99.4315 13.2565 99.4315C13.1228 99.4315 13.0093 99.4031 12.912 99.3462C12.8148 99.2975 12.7378 99.2366 12.677 99.1594C12.604 99.0782 12.5554 98.9727 12.5311 98.8427C12.5027 98.7128 12.4905 98.461 12.4905 98.0955C12.4905 97.7301 12.5027 97.4742 12.5311 97.3402C12.5554 97.2143 12.604 97.1088 12.677 97.0276C12.7378 96.9504 12.8148 96.8854 12.912 96.8367C13.0093 96.788 13.1228 96.7595 13.2565 96.7555C13.4389 96.7555 13.5929 96.8123 13.7185 96.9139C13.8401 97.0194 13.9252 97.1494 13.9698 97.2996H14.5696C14.5088 96.9869 14.367 96.723 14.14 96.5118C13.9131 96.3007 13.6172 96.1951 13.2565 96.191C12.9607 96.191 12.7175 96.2641 12.5189 96.4022C12.3203 96.5362 12.1744 96.6905 12.0812 96.8651C12.0245 96.9545 11.9839 97.0763 11.9556 97.2225C11.9313 97.3687 11.915 97.661 11.915 98.0955C11.915 98.53 11.9272 98.8143 11.9556 98.9645C11.9677 99.0457 11.988 99.1107 12.0083 99.1635C12.0285 99.2163 12.0569 99.2691 12.0812 99.3259C12.1704 99.5006 12.3163 99.6508 12.5189 99.7848C12.7175 99.9229 12.9607 99.996 13.2565 100C13.6375 99.9919 13.9536 99.862 14.2049 99.6102C14.4562 99.3584 14.5818 99.0417 14.5899 98.6681V97.9047H13.2606V98.4407Z"/>
<path id="Vector_15" d="M18.9751 96.2195H18.4077V99.9676H20.7948V99.4315H18.9751V96.2195Z"/>
<path id="Vector_16" d="M25.0503 96.2195H24.4829V99.9676H25.0503V96.2195Z"/>
<path id="Vector_17" d="M31.2308 98.8833H31.2186L29.5246 96.2195H28.9937V99.9676H29.561V97.3037H29.5692L31.2632 99.9676H31.7982V96.2195H31.2308V98.8833Z"/>
<path id="Vector_18" d="M35.7417 99.9676H38.1329V99.4315H36.3091V98.3311H37.8654V97.8275H36.3091V96.7555H38.1329V96.2195H35.7417V99.9676Z"/>
<path id="Vector_19" d="M47.4461 98.4407H48.208V98.6356C48.208 98.8711 48.131 99.0579 47.9892 99.2041C47.8473 99.3544 47.665 99.4315 47.4421 99.4315C47.3083 99.4315 47.1948 99.4031 47.0976 99.3462C47.0003 99.2975 46.9193 99.2366 46.8625 99.1594C46.7896 99.0782 46.7409 98.9727 46.7166 98.8427C46.6882 98.7128 46.6761 98.461 46.6761 98.0955C46.6761 97.7301 46.6882 97.4742 46.7166 97.3402C46.7409 97.2143 46.7896 97.1088 46.8625 97.0276C46.9233 96.9504 47.0003 96.8854 47.0976 96.8367C47.1948 96.788 47.3083 96.7595 47.4421 96.7555C47.6244 96.7555 47.7784 96.8123 47.9041 96.9139C48.0257 97.0194 48.1108 97.1494 48.1554 97.2996H48.7552C48.6944 96.9869 48.5525 96.723 48.3256 96.5118C48.0986 96.3007 47.8028 96.1951 47.4421 96.191C47.1462 96.191 46.903 96.2641 46.7045 96.4022C46.5059 96.5362 46.36 96.6905 46.2668 96.8651C46.21 96.9545 46.1695 97.0763 46.1411 97.2225C46.1168 97.3687 46.1006 97.661 46.1006 98.0955C46.1006 98.53 46.1127 98.8143 46.1411 98.9645C46.1533 99.0457 46.1735 99.1107 46.1938 99.1635C46.2141 99.2163 46.2424 99.2691 46.2668 99.3259C46.3559 99.5006 46.5018 99.6508 46.7045 99.7848C46.903 99.9229 47.1462 99.996 47.4421 100C47.823 99.9919 48.1392 99.862 48.3904 99.6102C48.6417 99.3584 48.7673 99.0417 48.7754 98.6681V97.9047H47.4461V98.4407Z"/>
<path id="Vector_20" d="M54.9722 96.8611C54.8831 96.6865 54.7412 96.5322 54.5467 96.3982C54.3481 96.2601 54.1009 96.1911 53.801 96.187C53.5051 96.187 53.2619 96.2601 53.0633 96.3982C52.8647 96.5322 52.7189 96.6865 52.6256 96.8611C52.5689 96.9504 52.5284 97.0723 52.5 97.2184C52.4757 97.3646 52.4595 97.657 52.4595 98.0915C52.4595 98.526 52.4716 98.8103 52.5 98.9605C52.5122 99.0417 52.5324 99.1067 52.5527 99.1595C52.5729 99.2123 52.6013 99.2651 52.6256 99.3219C52.7148 99.4965 52.8607 99.6468 53.0633 99.7808C53.2619 99.9188 53.5051 99.9919 53.801 99.996C54.0968 99.9879 54.3481 99.9188 54.5467 99.7808C54.7412 99.6468 54.8871 99.4965 54.9722 99.3219C55.0371 99.2326 55.0776 99.1108 55.1019 98.9605C55.1222 98.8103 55.1343 98.5179 55.1343 98.0915C55.1343 97.6651 55.1222 97.3646 55.1019 97.2184C55.0776 97.0723 55.033 96.9504 54.9722 96.8611ZM54.5305 98.8427C54.5021 98.9727 54.4535 99.0783 54.3805 99.1595C54.3238 99.2366 54.2468 99.2975 54.1535 99.3463C54.0563 99.4031 53.9387 99.4316 53.801 99.4316C53.6632 99.4316 53.5537 99.4031 53.4565 99.3463C53.3592 99.2975 53.2822 99.2366 53.2214 99.1595C53.1485 99.0783 53.0998 98.9727 53.0755 98.8427C53.0471 98.7128 53.035 98.461 53.035 98.0956C53.035 97.7301 53.0471 97.4743 53.0755 97.3403C53.0998 97.2144 53.1485 97.1088 53.2214 97.0276C53.2822 96.9504 53.3592 96.8855 53.4565 96.8367C53.5537 96.788 53.6672 96.7596 53.801 96.7555C53.9347 96.7555 54.0522 96.7839 54.1535 96.8367C54.2468 96.8895 54.3238 96.9504 54.3805 97.0276C54.4535 97.1088 54.5061 97.2103 54.5305 97.3403C54.5548 97.4743 54.5669 97.726 54.5669 98.0956C54.5669 98.4651 54.5548 98.7128 54.5305 98.8427Z"/>
<path id="Vector_21" d="M58.9521 99.9676H61.3433V99.4315H59.5195V98.3311H61.0758V97.8275H59.5195V96.7555H61.3433V96.2195H58.9521V99.9676Z"/>
<path id="Vector_22" d="M66.4214 97.8316C66.243 97.8113 66.1012 97.791 65.9999 97.7707C65.8134 97.7382 65.6797 97.6732 65.5986 97.5839C65.5135 97.4946 65.473 97.3971 65.473 97.2915C65.473 97.1129 65.5379 96.9748 65.6594 96.8855C65.777 96.7961 65.9229 96.7555 66.0971 96.7555C66.4335 96.7636 66.7415 96.857 67.0252 97.0438L67.3414 96.5768C66.9969 96.3291 66.5916 96.1992 66.1255 96.187C65.7405 96.187 65.4406 96.2926 65.2298 96.4916C65.011 96.6905 64.9056 96.9545 64.9056 97.2834C64.9056 97.5555 64.9907 97.7869 65.165 97.9778C65.3312 98.1646 65.5784 98.2824 65.8986 98.3352C66.0769 98.3595 66.243 98.3839 66.393 98.4042C66.7213 98.461 66.8834 98.6275 66.8793 98.9077C66.8712 99.2488 66.6281 99.4234 66.1417 99.4316C65.7324 99.4316 65.3757 99.3057 65.0799 99.058L64.707 99.4843C65.1042 99.8254 65.5824 100 66.1377 100C66.9969 99.9879 67.4346 99.6265 67.4508 98.9077C67.4508 98.6438 67.3697 98.4082 67.2036 98.2093C67.0374 98.0062 66.778 97.8803 66.4254 97.8316H66.4214Z"/>
<path id="Vector_23" d="M77.664 97.8275H76.1807V96.2195H75.6133V99.9676H76.1807V98.3311H77.664V99.9676H78.2314V96.2195H77.664V97.8275Z"/>
<path id="Vector_24" d="M82.1748 99.9676H84.5619V99.4315H82.7422V98.3311H84.2985V97.8275H82.7422V96.7555H84.5619V96.2195H82.1748V99.9676Z"/>
<path id="Vector_25" d="M90.8477 97.2672C90.8356 96.922 90.714 96.654 90.4749 96.4672C90.2763 96.3007 90.025 96.2195 89.7129 96.2195H88.2539V99.9676H88.8213V98.3636H89.5468L90.3208 99.9676H90.9977L90.1304 98.3026C90.6045 98.1199 90.8477 97.7748 90.8558 97.2631L90.8477 97.2672ZM88.8213 97.8641V96.7271H89.7089C89.8912 96.7271 90.029 96.7677 90.1263 96.8448C90.2479 96.9342 90.3087 97.0722 90.3127 97.2672C90.3127 97.4296 90.26 97.5676 90.1547 97.6773C90.0493 97.7991 89.8912 97.86 89.6764 97.8641H88.8172H88.8213Z"/>
<path id="Vector_26" d="M94.6089 99.9676H97V99.4315H95.1763V98.3311H96.7326V97.8275H95.1763V96.7555H97V96.2195H94.6089V99.9676Z"/>
</g>
<defs>
<clipPath id="clip0_51_1426">
<rect width="97" height="100"/>
</clipPath>
</defs>
</svg>
