<svg width="70" height="100" viewBox="0 0 70 100"  xmlns="http://www.w3.org/2000/svg">
<g id="_&#208;&#160;&#194;&#160;&#208;&#160;&#194;&#181;&#208;&#160;&#194;&#182;&#208;&#160;&#209;&#145;&#208;&#160;&#209;&#152;_&#208;&#160;&#209;&#145;&#208;&#160;&#194;&#183;&#208;&#160;&#209;&#149;&#208;&#160;&#194;&#187;&#208;&#161;&#208;&#143;&#208;&#161;&#226;&#128;&#160;&#208;&#160;&#209;&#145;&#208;&#160;&#209;&#145;" clip-path="url(#clip0_51_1302)">
<path id="Vector" d="M64.1169 57.6476C63.0782 59.4874 61.8525 61.2184 60.4565 62.8115L60.4939 62.8491L59.1976 64.1579C53.4266 69.9992 45.7444 73.2188 37.5636 73.2188C29.3828 73.2188 21.7546 70.0243 15.9919 64.2248C10.2292 58.4253 7.05492 50.715 7.05492 42.5155C7.05492 41.9092 7.07154 41.2945 7.10893 40.6841C7.10893 40.6004 7.11724 40.5168 7.12555 40.429V40.4039C7.12971 40.3496 7.13386 40.291 7.13802 40.2367V40.2074C7.15048 40.082 7.15879 39.9523 7.17126 39.8269C7.17957 39.7224 7.18788 39.6136 7.20034 39.5008C7.21696 39.3377 7.23358 39.1704 7.2502 39.0074C7.26266 38.9112 7.27097 38.8025 7.28759 38.6979C7.30421 38.5641 7.32083 38.4094 7.3416 38.2589C7.35407 38.1753 7.36653 38.0917 7.379 38.008C7.39562 37.87 7.42054 37.7153 7.44547 37.5648C7.45794 37.4854 7.47456 37.3934 7.48702 37.3056C7.49949 37.2303 7.51195 37.155 7.52857 37.0798C7.54519 36.9836 7.56596 36.8707 7.58674 36.762C7.60335 36.6658 7.62413 36.5613 7.6449 36.4568C7.66983 36.3355 7.69061 36.2184 7.71969 36.093C7.89419 35.2567 8.11024 34.4163 8.35537 33.5968L8.36368 33.5759C8.39277 33.4671 8.426 33.3584 8.4634 33.2539C8.49248 33.1619 8.52156 33.0699 8.55065 32.9737C8.72515 32.4385 8.91627 31.895 9.11986 31.3723C9.14894 31.3012 9.17802 31.2218 9.20711 31.1465C9.24034 31.0671 9.26943 30.9834 9.30682 30.8956C9.34837 30.7953 9.39407 30.6824 9.43977 30.5695C9.47301 30.4859 9.51456 30.3897 9.55611 30.2977L9.57273 30.2559C9.6309 30.1305 9.68491 30.0008 9.74307 29.8754C9.78462 29.7792 9.82617 29.6872 9.87187 29.5953C10.6405 27.9227 11.5753 26.3087 12.6431 24.7951L12.8176 24.5568C12.9381 24.3895 13.0586 24.2223 13.1832 24.0634C13.2414 23.9881 13.3037 23.9045 13.3661 23.8251C13.499 23.6494 13.6361 23.478 13.7691 23.3108C13.848 23.2146 13.927 23.1101 14.0101 23.0139C14.0848 22.9219 14.1679 22.8215 14.251 22.7254C14.33 22.6292 14.4172 22.5289 14.5003 22.4327C14.5959 22.324 14.6914 22.2111 14.787 22.1024L11.2056 18.4939C5.2642 25.0711 1.99854 33.5717 1.99854 42.5113C1.99854 52.0739 5.6963 61.0595 12.4146 67.8207C19.1329 74.5819 28.0616 78.3032 37.5636 78.3032C47.0656 78.3032 56.0483 74.5568 62.7707 67.758C64.6902 65.8179 66.3812 63.6687 67.8063 61.3564L64.1127 57.6392L64.1169 57.6476Z"/>
<path id="Vector_2" d="M18.5969 61.6031C23.6616 66.7001 30.4007 69.51 37.5636 69.51C37.7879 69.51 38.0123 69.51 38.2367 69.5016C38.3488 69.5016 38.4569 69.4974 38.569 69.4932H38.5857C38.7519 69.4849 38.9139 69.4765 39.0801 69.4681C39.213 69.4598 39.3418 69.4514 39.4748 69.4431C39.5413 69.4389 39.5994 69.4347 39.6535 69.4305L39.7449 69.4221C39.8653 69.4138 39.9858 69.4012 40.1105 69.3887C40.2185 69.3803 40.3182 69.372 40.4221 69.3594C40.4969 69.3511 40.5633 69.3427 40.6257 69.3385L40.7628 69.3218C40.85 69.3092 40.9373 69.3009 41.0287 69.2883C41.3611 69.2465 41.6851 69.2005 42.0051 69.1462C42.0965 69.1295 42.1837 69.1127 42.271 69.1002H42.3001C42.3707 69.0835 42.4413 69.0709 42.5078 69.0584L42.541 69.05C42.6324 69.0333 42.7238 69.0166 42.8153 68.9956C43.0562 68.9497 43.2931 68.8995 43.5257 68.8451C43.6836 68.8117 43.8415 68.7699 43.9994 68.7322H44.0201C44.0617 68.7155 44.0991 68.7071 44.1406 68.6988C44.257 68.6695 44.3608 68.6402 44.4689 68.6152C44.5603 68.5901 44.6475 68.5692 44.7306 68.5441C44.8054 68.5232 44.8719 68.5064 44.9342 68.4855C44.9965 68.4688 45.0464 68.4563 45.0921 68.4395L45.1295 68.427C45.1959 68.4103 45.2624 68.3894 45.3289 68.3685C45.4411 68.335 45.5366 68.3057 45.6322 68.2723C45.7111 68.2472 45.7776 68.2263 45.8524 68.2054C46.0768 68.1301 46.3011 68.0549 46.5213 67.9754C46.5837 67.9545 46.6418 67.9336 46.7 67.9127L46.7457 67.896C46.8246 67.8667 46.8953 67.8416 46.9617 67.8165C47.0739 67.7747 47.1695 67.7371 47.2692 67.6994C47.3523 67.666 47.4271 67.6409 47.4977 67.6116C47.6348 67.5573 47.7595 67.5071 47.8841 67.4528L48.258 67.2939C48.3744 67.2437 48.4907 67.1935 48.5987 67.1433C48.6652 67.1141 48.7192 67.089 48.7774 67.0639L48.8314 67.0388C48.9228 66.997 49.0142 66.951 49.1056 66.9092C49.6707 66.6374 50.2274 66.3489 50.7634 66.0395C50.8215 66.006 50.8756 65.9726 50.9337 65.9433C51.0584 65.8722 51.183 65.797 51.3035 65.7259L51.9184 65.3454C52.1885 65.1698 52.471 64.9858 52.7743 64.7767C52.8574 64.7182 52.9405 64.6596 53.0236 64.6011L53.0568 64.576C53.1191 64.53 53.1815 64.4882 53.2438 64.4422L53.2604 64.4297C53.3061 64.3962 53.3518 64.3628 53.3975 64.3293L53.4141 64.3168C53.4931 64.2624 53.5679 64.2039 53.6426 64.1453C53.7299 64.0826 53.813 64.0157 53.8919 63.953C53.9501 63.907 53.9958 63.8694 54.0457 63.8317L54.1038 63.7858C54.1869 63.7189 54.2742 63.6519 54.3573 63.5809C54.4445 63.5098 54.5276 63.4387 54.6149 63.3718L54.6356 63.3551C54.7977 63.2213 54.9556 63.0833 55.1176 62.9453C55.1675 62.9035 55.2132 62.8617 55.263 62.8157L51.6774 59.203C47.7511 62.5732 42.7695 64.4171 37.5761 64.4171C25.577 64.4171 15.8132 54.5911 15.8132 42.5155C15.8132 36.6282 18.1025 31.1047 22.2532 26.961C24.2018 25.0167 26.5368 23.4404 29.0587 22.3574L25.2529 18.5273C22.8265 19.7943 20.612 21.4208 18.6634 23.3693C13.5572 28.4747 10.7485 35.2735 10.7485 42.5155C10.7485 49.7575 13.5406 56.5061 18.6053 61.6031H18.5969Z"/>
<path id="Vector_3" d="M68.0014 35.7919C68.0014 26.2293 64.3037 17.2437 57.5853 10.4825C50.867 3.72136 41.9342 0 32.4322 0C22.9302 0 13.9475 3.74226 7.22507 10.5452C5.30555 12.4812 3.61455 14.6346 2.18945 16.9468L5.88307 20.664C6.92177 18.8242 8.14743 17.0932 9.54344 15.5001L9.50605 15.4625L10.8023 14.1537C16.5692 8.31243 24.2556 5.09282 32.4364 5.09282C40.6172 5.09282 48.2454 8.28734 54.0081 14.0868C59.7708 19.8863 62.945 27.5924 62.945 35.7961C62.945 36.4024 62.9284 37.0212 62.891 37.6275C62.891 37.707 62.8827 37.7948 62.8744 37.8826C62.8744 37.9453 62.8661 38.008 62.8619 38.0707V38.1C62.8495 38.2255 62.8412 38.3551 62.8287 38.4805C62.8204 38.585 62.8121 38.6979 62.7996 38.8108C62.783 38.9697 62.7664 39.137 62.7498 39.3042C62.7373 39.4004 62.729 39.5049 62.7124 39.6136C62.6957 39.7474 62.6791 39.898 62.6584 40.0527C62.6459 40.1363 62.6334 40.2199 62.621 40.2994C62.6043 40.4415 62.5794 40.5921 62.5545 40.7468C62.542 40.8262 62.5254 40.9182 62.5129 41.006C62.5005 41.0813 62.488 41.1565 62.4714 41.2318C62.4548 41.328 62.434 41.4409 62.4132 41.5496C62.3966 41.6458 62.3758 41.7503 62.3509 41.8548C62.3301 41.9719 62.3052 42.0932 62.2761 42.2186C62.1016 43.0549 61.8856 43.8995 61.6404 44.7148C61.6072 44.8277 61.574 44.9448 61.5324 45.0619C61.5033 45.1539 61.4742 45.2459 61.4452 45.342C61.2707 45.8814 61.0795 46.4208 60.8759 46.9435C60.8469 47.0145 60.8178 47.0898 60.7887 47.1651C60.7555 47.2487 60.7222 47.3323 60.689 47.416C60.6474 47.5163 60.6017 47.6292 60.556 47.7421C60.5228 47.8257 60.4812 47.9219 60.4397 48.0139L60.4231 48.0557C60.3649 48.1811 60.3109 48.3108 60.2527 48.4362C60.2112 48.5324 60.1696 48.6244 60.1239 48.7163C59.3553 50.3889 58.4205 52.0028 57.3527 53.5165L57.1823 53.7548C57.0577 53.9262 56.9372 54.0893 56.8167 54.2482C56.7585 54.3276 56.6962 54.4071 56.6339 54.4865C56.5009 54.658 56.3638 54.8336 56.2309 55.0008C56.1519 55.097 56.073 55.2015 55.9899 55.2977C55.9193 55.3855 55.8445 55.4775 55.7655 55.5695L55.7489 55.5862C55.6658 55.6824 55.5827 55.7827 55.4955 55.8789C55.3999 55.9876 55.3044 56.1005 55.2088 56.2092L58.7902 59.8177C64.7316 53.2321 67.9973 44.7274 67.9973 35.7836L68.0014 35.7919Z"/>
<path id="Vector_4" d="M40.9499 55.9542L44.7557 59.7842C47.1821 58.5173 49.3966 56.8908 51.3452 54.9423C56.4515 49.8369 59.2601 43.0381 59.2601 35.7961C59.2601 28.5541 56.4681 21.8055 51.4034 16.7085C46.3387 11.6115 39.5996 8.80164 32.4367 8.80164C32.2124 8.80164 31.988 8.80164 31.7637 8.81C31.6515 8.81 31.5435 8.81 31.4313 8.81836H31.4147C31.2485 8.82672 31.0864 8.83509 30.9202 8.84345C30.7873 8.85181 30.6585 8.86017 30.5255 8.86854C30.4591 8.86854 30.4009 8.8769 30.3469 8.88108L30.2555 8.88944C30.1391 8.89781 30.0145 8.91035 29.894 8.92289C29.786 8.93544 29.6863 8.9438 29.5824 8.95634C29.5076 8.96471 29.4411 8.97307 29.3788 8.97725L29.2749 8.98979C29.2749 8.98979 29.25 8.98979 29.2417 8.99398C29.1544 9.00234 29.0672 9.01488 28.9799 9.02743C28.6476 9.06924 28.3235 9.11942 28.0036 9.16959C27.9122 9.18632 27.8249 9.19886 27.7377 9.21559H27.7086C27.6379 9.23231 27.5715 9.24485 27.505 9.2574L27.4593 9.26576C27.372 9.28249 27.2848 9.29921 27.1934 9.31594C26.9441 9.36193 26.7073 9.41211 26.4746 9.46646C26.3167 9.49991 26.1588 9.54173 26.001 9.57936H25.9802C25.9386 9.5919 25.9012 9.60445 25.8597 9.61281C25.7434 9.64208 25.6395 9.67135 25.5315 9.69643C25.4401 9.72152 25.357 9.74243 25.2697 9.76752C25.1949 9.78842 25.1284 9.80515 25.062 9.82605C24.9997 9.84278 24.9498 9.85951 24.9041 9.87205L24.8667 9.88459C24.8002 9.90132 24.7337 9.92223 24.6673 9.94313C24.5551 9.97658 24.4595 10.0059 24.364 10.0393C24.285 10.0644 24.2185 10.0853 24.1438 10.1062C23.9194 10.1815 23.695 10.2567 23.4748 10.3362C23.4125 10.3571 23.3585 10.378 23.3003 10.3989L23.2505 10.4156C23.1757 10.4449 23.1092 10.4658 23.0427 10.4951C22.9264 10.5369 22.8267 10.5745 22.727 10.6163C22.6439 10.6498 22.5733 10.679 22.4985 10.7083C22.3614 10.7627 22.2367 10.8128 22.1121 10.8672L21.7381 11.0261C21.6218 11.0763 21.5096 11.1264 21.3974 11.1766C21.3351 11.2059 21.277 11.231 21.2188 11.2561L21.1648 11.2811C21.0734 11.323 20.982 11.369 20.8906 11.4108C20.3255 11.6826 19.7688 11.9711 19.2328 12.2805C19.1705 12.3139 19.1206 12.3432 19.0624 12.3766C18.9461 12.4435 18.8256 12.5146 18.7134 12.5815L18.327 12.8199C18.2481 12.87 18.165 12.9244 18.0819 12.9746C17.8077 13.146 17.5293 13.3342 17.2302 13.5432C17.1512 13.5976 17.0765 13.6519 17.0017 13.7021L16.9518 13.7356C16.8812 13.7857 16.8189 13.8317 16.7565 13.8777L16.7316 13.8945C16.6901 13.9279 16.6485 13.9572 16.6028 13.9906L16.5862 14.0032C16.5072 14.0575 16.4325 14.1161 16.3577 14.1746C16.2704 14.2373 16.1915 14.3042 16.1084 14.3669C16.0502 14.4129 16.0004 14.4506 15.9547 14.4882L15.8965 14.5342C15.8134 14.6011 15.7261 14.668 15.6431 14.7391C15.5475 14.8143 15.4561 14.8938 15.3647 14.9691C15.2026 15.1029 15.0448 15.2408 14.8827 15.3788C14.8329 15.4206 14.7872 15.4624 14.7373 15.5084L18.327 19.1211C22.2533 15.751 27.2349 13.9028 32.4284 13.9028C44.4275 13.9028 54.1912 23.7289 54.1912 35.8045C54.1912 41.6918 51.902 47.2152 47.7513 51.3589C45.8027 53.3032 43.4677 54.8796 40.9458 55.9625L40.9499 55.9542Z"/>
<path id="Vector_5" d="M5.60482 91.1022C5.47187 91.7001 5.21842 92.1558 4.8528 92.4694C4.47887 92.7705 4.026 92.9252 3.48587 92.9252C3.04547 92.9252 2.6383 92.8123 2.2519 92.5907C1.87797 92.3691 1.5996 92.0262 1.4251 91.5705C1.23813 91.1147 1.15088 90.5711 1.15088 89.9607C1.15088 89.484 1.22982 89.0157 1.38355 88.5725C1.53727 88.1292 1.80318 87.7738 2.1688 87.5062C2.54274 87.2512 3.01638 87.1174 3.56897 87.1174C4.05508 87.1174 4.44979 87.2303 4.76971 87.4728C5.08962 87.7069 5.3306 88.0833 5.49679 88.6059L5.51757 88.6603L6.62274 88.4052L6.60197 88.3383C6.39423 87.6484 6.02861 87.1048 5.50926 86.716C4.98991 86.3397 4.35007 86.1515 3.58974 86.1515C2.92913 86.1515 2.31007 86.2978 1.74501 86.5947C1.19243 86.9041 0.752018 87.3515 0.452873 87.9285C0.153727 88.5056 0 89.1955 0 89.9607C0 90.6715 0.132953 91.3488 0.39886 91.9593C0.664767 92.5823 1.05947 93.0715 1.57882 93.3935C2.08571 93.728 2.75878 93.8953 3.57728 93.8953C4.39577 93.8953 5.03561 93.6737 5.58405 93.2513C6.13663 92.829 6.51057 92.1977 6.72246 91.3865L6.74323 91.3196L5.62975 91.0436L5.60897 91.1105L5.60482 91.1022Z"/>
<path id="Vector_6" d="M15.7136 86.6408C15.1527 86.3063 14.5087 86.139 13.8149 86.139C12.743 86.139 11.8621 86.4945 11.1891 87.1927C10.516 87.891 10.1753 88.882 10.1753 90.1113C10.1753 90.7677 10.3207 91.3866 10.6157 91.9761C10.9024 92.5657 11.3345 93.0298 11.8954 93.3769C12.4563 93.7197 13.1003 93.887 13.8024 93.887C14.463 93.887 15.0821 93.7323 15.6472 93.4187C16.2205 93.1176 16.6609 92.6535 16.9808 92.0514C17.2883 91.4618 17.4462 90.7761 17.4462 90.0193C17.4462 89.2625 17.2925 88.6102 17.0058 88.0206C16.7066 87.4311 16.2787 86.9669 15.7136 86.6324V86.6408ZM15.5931 92.1727C15.1278 92.6702 14.5212 92.9295 13.8066 92.9295C13.092 92.9295 12.5061 92.6744 12.0283 92.1852C11.563 91.6834 11.322 90.9977 11.322 90.1322C11.322 89.0534 11.5755 88.2673 12.0616 87.8116C12.5477 87.3558 13.1418 87.1216 13.8149 87.1216C14.301 87.1216 14.7289 87.2429 15.1153 87.4771C15.4893 87.7112 15.7884 88.0541 15.9879 88.4889C16.1873 88.9238 16.287 89.4423 16.287 90.0318C16.287 90.9517 16.0543 91.6751 15.5931 92.1768V92.1727Z"/>
<path id="Vector_7" d="M27.0893 86.4609L25.311 91.558C25.1656 91.9677 25.0576 92.2897 24.9786 92.5447L24.6795 91.6583L22.9012 86.394H22.7808V89.1161L24.4261 93.8911H25.4066L27.0851 89.1286V86.4651L27.0893 86.4609Z"/>
<path id="Vector_8" d="M22.3859 86.394H21.3057V93.8911H22.3859V86.394Z"/>
<path id="Vector_9" d="M28.5558 86.394H27.4839V93.8911H28.5558V86.394Z"/>
<path id="Vector_10" d="M33.5334 86.394H32.4199V93.8911H33.5334V86.394Z"/>
<path id="Vector_11" d="M38.0121 87.5606C37.8459 87.2512 37.6465 86.9962 37.3848 86.8289C37.1313 86.6491 36.8114 86.5278 36.4458 86.4735C36.1799 86.4191 35.7935 86.394 35.2991 86.394H33.9321V87.3934H35.378C35.8184 87.3934 36.1176 87.4143 36.2837 87.4603C36.5247 87.5272 36.7242 87.661 36.8696 87.87C37.0233 88.0791 37.0898 88.3258 37.0898 88.6269C37.0898 89.0283 36.9693 89.3377 36.7158 89.5593C36.4624 89.7809 36.022 89.8938 35.4029 89.8938H33.9363V90.9057H35.3946C36.4541 90.9057 37.2144 90.6715 37.6216 90.2283C38.0412 89.7851 38.249 89.2415 38.249 88.5976C38.249 88.2213 38.17 87.8742 38.0163 87.5648L38.0121 87.5606Z"/>
<path id="Vector_12" d="M45.017 86.3941L42.1045 93.8912H43.2845L43.6168 93.0131H43.6044L44.4436 90.7385L44.6223 90.2702L45.2414 88.6144H45.2538C45.3868 88.2464 45.4948 87.8701 45.5862 87.5021C45.6984 87.8576 45.8521 88.2924 46.0391 88.7774L46.7911 90.7301H44.8841L44.5434 91.65H47.1484L48.0209 93.8828H49.2881L46.1762 86.3857H45.0295L45.017 86.3941Z"/>
<path id="Vector_13" d="M54.0704 86.394H53.0317V93.8911H54.0704V86.394Z"/>
<path id="Vector_14" d="M57.951 92.0263L57.9302 91.9928V93.8911H59.0312V86.394H57.951V92.0263Z"/>
<path id="Vector_15" d="M54.4653 88.7942L57.5316 93.3225V91.4033L54.4653 86.8833V88.7942Z"/>
<path id="Vector_16" d="M68.6746 86.394L67.208 88.5934C66.9213 89.0283 66.6679 89.438 66.4477 89.7934V89.7809L65.8286 90.7259V93.8911H66.9546V90.7259L69.9876 86.394H68.6746Z"/>
<path id="Vector_17" d="M66.2152 89.392L65.754 88.6478L64.2624 86.394H62.8955L65.5878 90.3705L66.2152 89.392Z"/>
<path id="Vector_18" d="M0 97.6292H0.739554V99.9791H1.15088V97.6292H1.89043V97.2612H0V97.6292Z"/>
<path id="Vector_19" d="M4.8736 97.2612L3.89307 99.9791H4.32517L4.53291 99.3728H5.55914L5.76688 99.9791H6.19898L5.21845 97.2612H4.87775H4.8736ZM4.64924 99.0048L5.03979 97.8173H5.0481L5.43865 99.0048H4.64924Z"/>
<path id="Vector_20" d="M9.56841 98.871H10.1168V99.0132C10.1168 99.1846 10.0628 99.3226 9.95896 99.4271C9.85509 99.5358 9.72214 99.5902 9.56426 99.5902C9.4687 99.5902 9.3856 99.5693 9.31497 99.5275C9.24434 99.494 9.18617 99.448 9.14462 99.3895C9.09061 99.3309 9.05737 99.2557 9.04075 99.1595C9.01998 99.0633 9.01167 98.8836 9.01167 98.6159C9.01167 98.3483 9.01998 98.1685 9.04075 98.0682C9.05737 97.9762 9.09477 97.9009 9.14462 97.8424C9.18617 97.788 9.24434 97.7379 9.31497 97.7044C9.3856 97.6668 9.4687 97.6501 9.56426 97.6459C9.69306 97.6459 9.80524 97.6877 9.89664 97.7588C9.98389 97.834 10.0462 97.9302 10.0795 98.0389H10.5116C10.47 97.8131 10.3661 97.6208 10.1999 97.4661C10.0338 97.3114 9.82186 97.2361 9.56426 97.2319C9.35236 97.2319 9.17371 97.2863 9.03244 97.3866C8.88703 97.4828 8.78316 97.5957 8.71668 97.7212C8.67513 97.7881 8.64605 97.8717 8.62527 97.9804C8.60866 98.0891 8.59619 98.2982 8.59619 98.6159C8.59619 98.9337 8.6045 99.1386 8.62527 99.2473C8.63358 99.3059 8.64605 99.356 8.66267 99.3937C8.67929 99.4313 8.69591 99.4689 8.71668 99.5107C8.78316 99.6362 8.88703 99.7449 9.03244 99.8411C9.17371 99.9414 9.35236 99.9916 9.56426 99.9958C9.83848 99.9916 10.067 99.8954 10.2498 99.7156C10.4285 99.5317 10.524 99.3059 10.5282 99.0299V98.478H9.56841V98.8668V98.871Z"/>
<path id="Vector_21" d="M13.6899 97.2612H13.2827V99.9791H15.007V99.5902H13.6899V97.2612Z"/>
<path id="Vector_22" d="M18.0776 97.2612H17.6704V99.9791H18.0776V97.2612Z"/>
<path id="Vector_23" d="M22.5354 99.193H22.5312L21.3056 97.2612H20.9233V99.9791H21.3305V98.0473H21.3388L22.5603 99.9791H22.9467V97.2612H22.5354V99.193Z"/>
<path id="Vector_24" d="M25.793 99.9791H27.5172V99.5902H26.2043V98.7916H27.3261V98.4278H26.2043V97.6501H27.5172V97.2612H25.793V99.9791Z"/>
<path id="Vector_25" d="M34.2398 98.871H34.7882V99.0132C34.7882 99.1846 34.7342 99.3226 34.6304 99.4271C34.5265 99.5358 34.3935 99.5902 34.2356 99.5902C34.1401 99.5902 34.057 99.5693 33.9864 99.5275C33.9157 99.494 33.8576 99.448 33.816 99.3895C33.762 99.3309 33.7288 99.2557 33.7121 99.1595C33.6914 99.0633 33.6831 98.8836 33.6831 98.6159C33.6831 98.3483 33.6914 98.1685 33.7121 98.0682C33.7288 97.9762 33.7662 97.9009 33.816 97.8424C33.8576 97.788 33.9157 97.7379 33.9864 97.7044C34.057 97.6668 34.1401 97.6501 34.2356 97.6459C34.3686 97.6459 34.4766 97.6877 34.568 97.7588C34.6553 97.834 34.7176 97.9302 34.7508 98.0389H35.1829C35.1414 97.8131 35.0375 97.6208 34.8713 97.4661C34.7051 97.3114 34.4932 97.2361 34.2356 97.2319C34.0238 97.2319 33.8451 97.2863 33.7038 97.3866C33.5584 97.4828 33.4545 97.5957 33.3881 97.7212C33.3465 97.7881 33.3174 97.8717 33.2967 97.9804C33.28 98.0891 33.2676 98.2982 33.2676 98.6159C33.2676 98.9337 33.2759 99.1386 33.2967 99.2473C33.305 99.3059 33.3174 99.356 33.3341 99.3937C33.3507 99.4313 33.3673 99.4689 33.3881 99.5107C33.4545 99.6362 33.5584 99.7449 33.7038 99.8411C33.8451 99.9414 34.0238 99.9916 34.2356 99.9958C34.5099 99.9916 34.7384 99.8954 34.9212 99.7156C35.0998 99.5317 35.1954 99.3059 35.1996 99.0299V98.478H34.2398V98.8668V98.871Z"/>
<path id="Vector_26" d="M39.6699 97.7296C39.6076 97.6041 39.5037 97.4912 39.3624 97.3951C39.217 97.2947 39.0384 97.2445 38.8265 97.2404C38.6146 97.2404 38.4359 97.2947 38.2947 97.3951C38.1492 97.4912 38.0454 97.6041 37.9789 97.7296C37.9373 97.7965 37.9083 97.8801 37.8875 97.9888C37.8709 98.0975 37.8584 98.3066 37.8584 98.6244C37.8584 98.9421 37.8667 99.147 37.8875 99.2557C37.8958 99.3143 37.9083 99.3645 37.9249 99.4021C37.9415 99.4397 37.9581 99.4774 37.9789 99.5192C38.0454 99.6446 38.1492 99.7533 38.2947 99.8495C38.4359 99.9498 38.6146 100 38.8265 100.004C39.0425 100 39.2212 99.9457 39.3624 99.8495C39.5037 99.7533 39.6076 99.6446 39.6699 99.5192C39.7156 99.4523 39.7488 99.3645 39.7654 99.2557C39.7821 99.147 39.7904 98.938 39.7904 98.6244C39.7904 98.3108 39.7821 98.0975 39.7654 97.9888C39.7488 97.8801 39.7156 97.7965 39.6699 97.7296ZM39.35 99.1638C39.3292 99.2599 39.2918 99.3352 39.2419 99.3937C39.2004 99.4481 39.1464 99.4941 39.0799 99.5317C39.0093 99.5735 38.922 99.5944 38.8265 99.5944C38.7309 99.5944 38.6478 99.5735 38.5772 99.5317C38.5065 99.4983 38.4484 99.4523 38.4068 99.3937C38.3528 99.3352 38.3196 99.2599 38.303 99.1638C38.2822 99.0676 38.2739 98.8878 38.2739 98.6202C38.2739 98.3526 38.2822 98.1728 38.303 98.0724C38.3196 97.9804 38.357 97.9052 38.4068 97.8466C38.4484 97.7923 38.5065 97.7421 38.5772 97.7087C38.6478 97.671 38.7309 97.6543 38.8265 97.6501C38.922 97.6501 39.0093 97.671 39.0799 97.7087C39.1464 97.7463 39.2004 97.7923 39.2419 97.8466C39.296 97.9052 39.3333 97.9804 39.35 98.0724C39.3666 98.1686 39.3791 98.3526 39.3791 98.6202C39.3791 98.8878 39.3707 99.0676 39.35 99.1638Z"/>
<path id="Vector_27" d="M42.541 99.9791H44.2653V99.5902H42.9523V98.7916H44.0741V98.4278H42.9523V97.6501H44.2653V97.2612H42.541V99.9791Z"/>
<path id="Vector_28" d="M47.9339 98.432C47.8051 98.4153 47.7054 98.4027 47.6306 98.3902C47.4977 98.3651 47.4021 98.3191 47.3398 98.2564C47.2775 98.1937 47.2484 98.1226 47.2484 98.0431C47.2484 97.9135 47.2941 97.8132 47.3855 97.7504C47.4686 97.6877 47.5766 97.6543 47.7013 97.6543C47.9464 97.6585 48.1666 97.7295 48.3702 97.8633L48.5987 97.5247C48.3494 97.3449 48.0586 97.2487 47.722 97.2445C47.4437 97.2445 47.2276 97.3198 47.0739 97.4661C46.916 97.6125 46.8371 97.8048 46.8371 98.039C46.8371 98.2355 46.8994 98.4027 47.024 98.5407C47.1445 98.6745 47.3232 98.7623 47.5558 98.7999C47.6846 98.8167 47.8051 98.8334 47.9132 98.8501C48.15 98.8919 48.2663 99.0132 48.2663 99.2139C48.2622 99.4606 48.0835 99.586 47.7345 99.5902C47.4395 99.5902 47.1819 99.4982 46.9659 99.3184L46.6958 99.6278C46.9825 99.8745 47.3273 100 47.7262 100C48.3453 99.9916 48.661 99.7282 48.6735 99.2097C48.6735 99.0174 48.6153 98.8501 48.4948 98.7038C48.3743 98.5574 48.1874 98.4654 47.9339 98.4278V98.432Z"/>
<path id="Vector_29" d="M56.044 98.4278H54.9763V97.2612H54.5649V99.9791H54.9763V98.7916H56.044V99.9791H56.4554V97.2612H56.044V98.4278Z"/>
<path id="Vector_30" d="M59.3013 99.9791H61.0255V99.5902H59.7084V98.7916H60.8302V98.4278H59.7084V97.6501H61.0255V97.2612H59.3013V99.9791Z"/>
<path id="Vector_31" d="M65.5584 98.0222C65.5501 97.7713 65.4628 97.579 65.2883 97.441C65.1471 97.3198 64.9643 97.2612 64.7399 97.2612H63.6846V99.9791H64.0959V98.8167H64.6194L65.1761 99.9791H65.6623L65.0349 98.7749C65.3797 98.6411 65.5542 98.3902 65.5584 98.0222ZM64.0959 98.4529V97.6292H64.7357C64.8687 97.6292 64.9684 97.6585 65.0349 97.7128C65.1221 97.7755 65.1678 97.8801 65.172 98.0222C65.172 98.1393 65.1346 98.2397 65.0598 98.3191C64.985 98.4069 64.8687 98.4487 64.715 98.4529H64.0959Z"/>
<path id="Vector_32" d="M68.2759 99.9791H70.0001V99.5902H68.683V98.7916H69.8048V98.4278H68.683V97.6501H70.0001V97.2612H68.2759V99.9791Z"/>
</g>
<defs>
<clipPath id="clip0_51_1302">
<rect width="70" height="100" fill="white"/>
</clipPath>
</defs>
</svg>
