<svg width="88" height="100" viewBox="0 0 88 100"  xmlns="http://www.w3.org/2000/svg">
<g id="Group">
<path id="Vector" d="M75.1165 7.73926C70.1457 2.75118 63.5332 0 56.4998 0C49.4665 0 42.854 2.747 37.8832 7.73926C33.9957 11.6403 31.4748 16.5447 30.5582 21.8715C30.4665 22.4108 30.3873 22.9502 30.329 23.4979C30.2707 24.0331 30.229 24.5767 30.1998 25.1202C30.179 25.5509 30.1665 25.9857 30.1665 26.4205V30.0121V31.6302V33.2483V52.8453H49.6957H51.3082H52.9207C52.9498 52.4062 52.9624 51.9589 52.9624 51.5115V47.9617H51.354H35.0373V33.2023V29.9787V26.4289C35.0373 25.9815 35.0499 25.5383 35.079 25.0951C35.1124 24.5516 35.1665 24.0164 35.2374 23.4812C35.3124 22.9335 35.4082 22.3983 35.5207 21.8673C36.404 17.7531 38.4665 14.0779 41.3249 11.2054C45.2124 7.30443 50.5748 4.89192 56.4957 4.88774C68.329 4.88774 77.9582 14.5503 77.9582 26.4247C77.9582 32.3619 75.5499 37.7472 71.6624 41.6482C68.7999 44.5206 65.1374 46.5861 61.0374 47.4767V51.5157C61.0374 51.8334 61.0332 52.1512 61.0207 52.4606C66.329 51.5407 71.2207 49.0112 75.1082 45.1102C80.0832 40.1179 82.8207 33.4825 82.8207 26.4289C82.8207 19.3753 80.0832 12.7357 75.1082 7.74763L75.1165 7.73926Z" />
<path id="Vector_2" d="M35.0376 29.9703H52.9626V44.7338V51.5072C52.9626 51.9546 52.9459 52.3978 52.9209 52.841C52.8876 53.3846 52.8376 53.9239 52.7626 54.4549C52.6918 54.9985 52.5959 55.5378 52.4792 56.0647C51.5917 60.1789 49.5334 63.8583 46.6709 66.7307C42.7834 70.6317 37.4209 73.0442 31.5001 73.0484C19.6667 73.0484 10.0376 63.3858 10.0376 51.5114C10.0376 45.5742 12.4459 40.1889 16.3334 36.2879C19.1959 33.4155 22.8626 31.35 26.9584 30.4594V26.4205C26.9584 26.1027 26.9626 25.7849 26.9751 25.4714C21.6667 26.387 16.7751 28.9208 12.8834 32.8218C7.9084 37.8141 5.1709 44.4453 5.1709 51.5031C5.1709 58.5608 7.9084 65.1962 12.8834 70.1843C17.8584 75.1766 24.4709 77.9236 31.5001 77.9236C38.5292 77.9236 45.1459 75.1766 50.1167 70.1843C54.7834 65.5015 57.4834 59.3719 57.7959 52.8034C57.8042 52.5943 57.8126 52.3811 57.8209 52.172C57.8209 52.0591 57.8251 51.9421 57.8251 51.8292C57.8251 51.7205 57.8251 51.6118 57.8251 51.5031V25.0825H38.2959H36.6876H35.0751C35.0459 25.5215 35.0334 25.9689 35.0334 26.4163V29.9661L35.0376 29.9703Z" />
<path id="Vector_3" d="M5.64604 90.8684C5.2252 91.2614 4.64186 91.5039 4.01686 91.5039C2.68352 91.5039 1.60854 90.4335 1.60854 89.0956C1.60854 87.7576 2.68769 86.6873 4.01686 86.6873C4.64186 86.6873 5.22104 86.9298 5.64604 87.3353L6.77519 86.1897C6.05436 85.4998 5.08352 85.0775 4.01686 85.0775C1.80852 85.0775 0.0126953 86.8796 0.0126953 89.0956C0.0126953 91.3116 1.80852 93.1136 4.01686 93.1136C5.08352 93.1136 6.05852 92.6913 6.77519 92.0015L5.64604 90.8684Z" />
<path id="Vector_4" d="M21.3416 89.0999C21.3416 86.8839 19.5458 85.0818 17.3374 85.0818C15.1291 85.0818 13.3291 86.8839 13.3291 89.0999C13.3291 91.3158 15.1249 93.1179 17.3374 93.1179C19.5499 93.1179 21.3416 91.3158 21.3416 89.0999ZM17.3374 91.5165C16.0041 91.5165 14.9291 90.4336 14.9291 89.0999C14.9291 87.7661 16.0083 86.6915 17.3374 86.6915C18.6666 86.6915 19.7374 87.7744 19.7374 89.0999C19.7374 90.4253 18.6583 91.5165 17.3374 91.5165Z" />
<path id="Vector_5" d="M36.554 93.1178V85.0775H34.829L32.4915 90.9562L30.1456 85.0775H28.4248V93.1178H30.0206V89.0998L31.6248 93.1178H33.3498L34.954 89.0998V93.1178H36.554Z" />
<path id="Vector_6" d="M45.875 85.0775H43.6333V93.1178H45.2291V89.9025H45.8833C47.2041 89.9025 48.2708 88.8196 48.2708 87.4942C48.2708 86.1688 47.2041 85.0775 45.8708 85.0775H45.875ZM45.875 88.2928H45.2291V86.6914H45.875C46.3208 86.6914 46.6791 87.051 46.6791 87.4984C46.6791 87.9458 46.3208 88.2928 45.875 88.2928Z" />
<path id="Vector_7" d="M58.8956 85.0775H57.1956L54.2998 93.1178H55.9998L56.8123 90.8684H59.2748L60.0873 93.1178H61.7873L58.8915 85.0775H58.8956ZM57.3956 89.2586L58.0415 87.444L58.6956 89.2586H57.3956Z" />
<path id="Vector_8" d="M73.7376 90.4461L70.5334 85.0775H68.6626V93.1178H70.2584V87.7618L73.4709 93.1178H75.3334V85.0775H73.7376V90.4461Z" />
<path id="Vector_9" d="M85.8916 93.1178V89.2879L87.9833 85.0775H86.1999L85.0999 87.3061L83.9874 85.0775H82.2041L84.2958 89.2879V93.1178H85.8916Z" />
<path id="Vector_10" d="M0 97.0232H0.929159V99.9709H1.44582V97.0232H2.37498V96.5632H0V97.0232Z" />
<path id="Vector_11" d="M6.12492 96.5632L4.8916 99.9709H5.43743L5.69994 99.2099H6.98742L7.24992 99.9709H7.79159L6.55827 96.5632H6.12909H6.12492ZM5.84576 98.75L6.33742 97.2615H6.34576L6.83743 98.75H5.84576Z" />
<path id="Vector_12" d="M11.5 97.299C11.5541 97.2279 11.625 97.1693 11.7125 97.1233C11.8 97.0774 11.9041 97.0523 12.025 97.0523C12.1875 97.0523 12.3291 97.1024 12.4458 97.1944C12.5541 97.2906 12.6333 97.4077 12.675 97.5456H13.2208C13.1666 97.2613 13.0375 97.023 12.8291 96.8265C12.6208 96.6342 12.3541 96.538 12.0291 96.5338C11.7625 96.5338 11.5375 96.6007 11.3625 96.7261C11.1791 96.8474 11.05 96.9896 10.9666 97.1484C10.9166 97.2321 10.8791 97.3408 10.8541 97.4746C10.8291 97.6084 10.8208 97.8718 10.8208 98.269C10.8208 98.6662 10.8333 98.9212 10.8541 99.0592C10.8666 99.1345 10.8833 99.193 10.9 99.2432C10.9208 99.2892 10.9416 99.3393 10.9666 99.3895C11.05 99.5484 11.1791 99.6864 11.3625 99.8035C11.5416 99.9289 11.7625 99.9916 12.0291 100C12.375 99.9916 12.6625 99.8745 12.8916 99.6488C13.1166 99.4188 13.2333 99.1345 13.2416 98.7916V98.0976H12.0375V98.5867H12.7291V98.7623C12.7291 98.9756 12.6583 99.147 12.5291 99.2766C12.4 99.4146 12.2333 99.4815 12.0333 99.4815C11.9125 99.4815 11.8083 99.4564 11.7208 99.4062C11.6333 99.3644 11.5625 99.3059 11.5083 99.2348C11.4416 99.1596 11.3958 99.0676 11.375 98.9463C11.35 98.8292 11.3375 98.6035 11.3375 98.2648C11.3375 97.9261 11.35 97.7003 11.375 97.5791C11.3958 97.462 11.4416 97.37 11.5083 97.2948L11.5 97.299Z" />
<path id="Vector_13" d="M16.6958 96.5632V99.9709H18.8666V99.4817H17.2125V96.5632H16.6958Z" />
<path id="Vector_14" d="M22.7249 96.5632H22.2124V99.9709H22.7249V96.5632Z" />
<path id="Vector_15" d="M28.3331 98.9841H28.3206L26.7873 96.5632H26.2998V99.9709H26.8165V97.55H26.8248L28.3581 99.9709H28.8456V96.5632H28.3331V98.9841Z" />
<path id="Vector_16" d="M34.5915 97.0524V96.5632H32.4248V99.9709H34.5915V99.4817H32.9373V98.4824H34.3498V98.0224H32.9373V97.0524H34.5915Z" />
<path id="Vector_17" d="M42.3708 96.7261C42.1875 96.8473 42.0583 96.9895 41.975 97.1484C41.925 97.232 41.8874 97.3407 41.8624 97.4745C41.8374 97.6083 41.8291 97.8717 41.8291 98.2689C41.8291 98.6661 41.8416 98.9211 41.8624 99.0591C41.8749 99.1344 41.8916 99.1929 41.9083 99.2431C41.9291 99.2891 41.95 99.3393 41.975 99.3894C42.0583 99.5483 42.1875 99.6863 42.3708 99.8034C42.55 99.9288 42.7708 99.9915 43.0374 99.9999C43.3833 99.9915 43.6708 99.8744 43.8999 99.6487C44.1249 99.4187 44.2416 99.1344 44.2499 98.7915V98.0975H43.0458V98.5867H43.7374V98.7623C43.7374 98.9755 43.6666 99.1469 43.5375 99.2765C43.4083 99.4145 43.2416 99.4814 43.0416 99.4814C42.9208 99.4814 42.8166 99.4563 42.7291 99.4062C42.6416 99.3643 42.5708 99.3058 42.5166 99.2347C42.4499 99.1595 42.4041 99.0675 42.3833 98.9462C42.3583 98.8292 42.3458 98.6034 42.3458 98.2647C42.3458 97.926 42.3583 97.7003 42.3833 97.579C42.4041 97.4619 42.4499 97.3699 42.5166 97.2947C42.5708 97.2236 42.6416 97.1651 42.7291 97.1191C42.8166 97.0731 42.9208 97.048 43.0416 97.048C43.2041 97.048 43.3458 97.0982 43.4625 97.1902C43.5708 97.2863 43.6499 97.4034 43.6916 97.5414H44.2374C44.1833 97.2571 44.0541 97.0187 43.8458 96.8222C43.6374 96.6299 43.3708 96.5337 43.0458 96.5295C42.7791 96.5295 42.5541 96.5964 42.3791 96.7219L42.3708 96.7261Z" />
<path id="Vector_18" d="M47.7459 97.1484C47.6959 97.2321 47.6584 97.3408 47.6334 97.4746C47.6084 97.6084 47.6001 97.8718 47.6001 98.269C47.6001 98.6662 47.6126 98.9212 47.6334 99.0592C47.6459 99.1345 47.6626 99.193 47.6793 99.2432C47.7001 99.2892 47.7209 99.3393 47.7459 99.3895C47.8293 99.5484 47.9584 99.6864 48.1418 99.8035C48.3209 99.9289 48.5417 99.9916 48.8084 100C49.0792 99.9916 49.3042 99.9289 49.4834 99.8035C49.6626 99.6822 49.7918 99.5442 49.8709 99.3895C49.9293 99.3059 49.9668 99.1972 49.9918 99.0592C50.0126 98.9212 50.0209 98.6578 50.0209 98.269C50.0209 97.8801 50.0126 97.6084 49.9918 97.4746C49.9709 97.3408 49.9293 97.2321 49.8709 97.1484C49.7918 96.9896 49.6626 96.8516 49.4834 96.7261C49.3042 96.6007 49.0792 96.538 48.8084 96.5338C48.5417 96.5338 48.3168 96.6007 48.1418 96.7261C47.9584 96.8474 47.8293 96.9896 47.7459 97.1484ZM48.1501 97.5833C48.1709 97.4662 48.2168 97.3742 48.2834 97.299C48.3376 97.2279 48.4084 97.1693 48.4959 97.1233C48.5834 97.0774 48.6876 97.0523 48.8084 97.0523C48.9292 97.0523 49.0376 97.0815 49.1293 97.1233C49.2126 97.1693 49.2834 97.2279 49.3334 97.299C49.4001 97.37 49.4459 97.4662 49.4709 97.5833C49.4959 97.7045 49.5043 97.9345 49.5043 98.269C49.5043 98.6035 49.4918 98.8293 49.4709 98.9505C49.4459 99.0676 49.4001 99.1637 49.3334 99.239C49.2834 99.3101 49.2126 99.3644 49.1293 99.4104C49.0376 99.4606 48.9334 99.4857 48.8084 99.4857C48.6834 99.4857 48.5834 99.4606 48.4959 99.4104C48.4084 99.3686 48.3376 99.3101 48.2834 99.239C48.2168 99.1637 48.1709 99.0718 48.1501 98.9505C48.1251 98.8334 48.1126 98.6076 48.1126 98.269C48.1126 97.9303 48.1251 97.7045 48.1501 97.5833Z" />
<path id="Vector_19" d="M53.4834 99.9709H55.6501V99.4817H53.9959V98.4824H55.4084V98.0224H53.9959V97.0524H55.6501V96.5632H53.4834V99.9709Z" />
<path id="Vector_20" d="M60.0002 99.4816C59.6294 99.4816 59.3044 99.3645 59.0377 99.1429L58.7002 99.5317C59.0627 99.8453 59.496 100 59.996 100C60.7752 99.9917 61.171 99.6614 61.1877 99.0091C61.1877 98.7666 61.1127 98.5575 60.9627 98.3736C60.8085 98.1896 60.5752 98.0725 60.2585 98.0307C60.096 98.0098 59.971 97.9931 59.8752 97.9764C59.7085 97.9471 59.5877 97.8886 59.5085 97.8091C59.4335 97.7297 59.396 97.6419 59.396 97.5415C59.396 97.3785 59.4543 97.253 59.5668 97.1736C59.671 97.0941 59.8043 97.0565 59.9627 97.0565C60.2668 97.0607 60.5502 97.1485 60.8044 97.3199L61.0919 96.8935C60.7794 96.6677 60.4127 96.5506 59.9919 96.5422C59.6419 96.5422 59.371 96.6384 59.1793 96.8182C58.9835 97.0022 58.8835 97.2405 58.8835 97.5373C58.8835 97.784 58.9627 97.9973 59.1169 98.1687C59.271 98.3359 59.4919 98.4446 59.7835 98.4948C59.946 98.5199 60.096 98.5408 60.2335 98.5575C60.5335 98.6077 60.6794 98.7624 60.6752 99.0175C60.671 99.3269 60.446 99.4858 60.0043 99.4899L60.0002 99.4816Z" />
<path id="Vector_21" d="M68.5957 99.9709H69.1124V98.4824H70.454V99.9709H70.9707V96.5632H70.454V98.0224H69.1124V96.5632H68.5957V99.9709Z" />
<path id="Vector_22" d="M76.7167 97.0524V96.5632H74.5459V99.9709H76.7167V99.4817H75.0626V98.4824H76.4751V98.0224H75.0626V97.0524H76.7167Z" />
<path id="Vector_23" d="M82.4167 97.5124C82.4083 97.1988 82.2958 96.9563 82.0792 96.7849C81.9 96.6343 81.6708 96.5591 81.3875 96.5591H80.0625V99.9667H80.575V98.5117H81.2333L81.9333 99.9667H82.5458L81.7583 98.4531C82.1917 98.2859 82.4083 97.9723 82.4167 97.5082V97.5124ZM80.5792 98.0559V97.0232H81.3834C81.55 97.0232 81.675 97.0566 81.7625 97.1277C81.8708 97.2072 81.9292 97.3368 81.9333 97.5124C81.9333 97.6587 81.8875 97.7842 81.7917 97.8845C81.6958 97.9932 81.55 98.0517 81.3583 98.0517H80.5792V98.0559Z" />
<path id="Vector_24" d="M85.8291 99.9709H87.9999V99.4817H86.3458V98.4824H87.7541V98.0224H86.3458V97.0524H87.9999V96.5632H85.8291V99.9709Z" fill="white"/>
</g>
</svg>
