<?xml version="1.0" encoding="utf-8"?><svg viewBox="0 0 160 100" xmlns="http://www.w3.org/2000/svg" xmlns:xlink="http://www.w3.org/1999/xlink"><style>:root>svg{display:none}:root>svg:target{display:block}</style><svg fill="none" viewBox="0 0 122 26" id="acticom-logo" xmlns="http://www.w3.org/2000/svg"><g fill="#F2EFE8"><path fill-rule="evenodd" clip-rule="evenodd" d="M7.49 8.662L18.977.182a.718.718 0 011.13.234c.062.136.077.287.044.431l-1.753 13.986c-.064 1.307-.966 1.274-1.344.764-.56-1.295-1.756-2.635-3.395-3.695.245.014.491-.033.714-.136 2.371-1.275 1.409-3.22 1.751-5.446-1.793 1.4-3.997 1.56-3.937 4.209.02.234.097.46.227.657l.012.02c-1.746-.854-3.52-1.194-4.94-1.026-.644-.061-1.12-.81.004-1.518z"/><path fill-rule="evenodd" clip-rule="evenodd" d="M4.78 12.38C1.651 14.519-.543 17.72.116 18.484c.801.924 1.155-.347 2.25.878 1.093 1.226-.114 4.467 2.492 6.107 2.754 1.392 5.012-1.252 6.645-.939 1.633.314.687 1.25 1.904 1.464 1 .179 2.733-3.282 3.06-7.003.242-2.76-1.13-4.712-3.376-6.15.212.492.094 1.49-1.39 3.741-2.07 3.145-3.692 4.392-4.068 4.173-.377-.22-.09-2.21 1.654-5.539 1.249-2.385 2.07-2.983 2.612-3.05-2.391-1.18-4.803-1.37-7.12.216z"/><path d="M29.73 18.86h2.191l1.252-2.89h5.755l1.234 2.89h2.26L37.067 6.8h-1.982L29.73 18.86zm4.225-4.755l2.087-4.79 2.103 4.79h-4.19zM45.9 18.86h2.139v-3.472l1.895-1.916 4.155 5.388h2.59l-5.285-6.825 5.06-5.149h-2.626l-5.79 6.021v-6.02H45.9V18.86zM63.405 18.86h2.156V8.836h3.86v-1.95h-9.875v1.95h3.86V18.86zM73.897 18.86h2.138V6.886h-2.138V18.86zM86.335 19.065c2.277 0 3.668-.82 4.937-2.12l-1.373-1.37c-1.043.959-2 1.557-3.495 1.557-2.33 0-4.016-1.915-4.016-4.259 0-2.377 1.686-4.259 4.016-4.259 1.391 0 2.434.599 3.408 1.488l1.373-1.556C90.02 7.45 88.665 6.68 86.422 6.68c-3.686 0-6.277 2.788-6.277 6.192 0 3.473 2.643 6.192 6.19 6.192zM100.378 19.065c3.738 0 6.381-2.822 6.381-6.192 0-3.404-2.608-6.192-6.346-6.192s-6.38 2.822-6.38 6.192c0 3.404 2.607 6.192 6.345 6.192zm.035-1.933c-2.416 0-4.138-1.933-4.138-4.259 0-2.36 1.687-4.259 4.103-4.259 2.417 0 4.138 1.933 4.138 4.26 0 2.36-1.686 4.258-4.103 4.258zM110.038 18.86h2.104v-8.553l3.808 5.611h.069l3.842-5.645v8.587H122V6.886h-2.278l-3.703 5.662-3.703-5.662h-2.278V18.86z"/></g></svg><svg fill="none" viewBox="0 0 16 8" id="arrow1" xmlns="http://www.w3.org/2000/svg"><path d="M1 3.5a.5.5 0 000 1v-1zm14.354.854a.5.5 0 000-.708L12.172.464a.5.5 0 10-.708.708L14.293 4l-2.829 2.828a.5.5 0 10.708.708l3.182-3.182zM1 4.5h14v-1H1v1z" fill="#2F3074"/></svg><svg fill="none" viewBox="0 0 8 5" id="icon-acc-01" xmlns="http://www.w3.org/2000/svg"><path d="M.94 0L4 3.09 7.06 0 8 .951 4 5 0 .951.94 0z" fill="#fff"/></svg><svg fill="none" viewBox="0 0 4 6" id="icon-back" xmlns="http://www.w3.org/2000/svg"><path d="M3.42 4.912L1.514 3 3.42 1.087 2.833.5.333 3l2.5 2.5.588-.588z" fill="#FF5E3B"/></svg><svg fill="none" viewBox="0 0 20 20" id="icon-cart" xmlns="http://www.w3.org/2000/svg"><g clip-path="url(#eclip0_74_437)"><path fill-rule="evenodd" clip-rule="evenodd" d="M0 1.25C0 .79.373.417.833.417h.208a2.5 2.5 0 012.165 1.25h14.029a2.5 2.5 0 012.473 2.866l-1.173 7.917a2.5 2.5 0 01-2.473 2.133H5.626a2.5 2.5 0 01-2.478-2.17L1.867 2.808a.833.833 0 00-.826-.724H.833A.833.833 0 010 1.25zm3.618 2.083l1.182 8.86a.833.833 0 00.826.724h10.436a.833.833 0 00.824-.711l1.173-7.917a.833.833 0 00-.824-.956H3.618zm2.215 13.334a.833.833 0 100 1.666.833.833 0 000-1.666zm-2.5.833a2.5 2.5 0 115 0 2.5 2.5 0 01-5 0zM15 17.5a.833.833 0 111.667 0 .833.833 0 01-1.667 0zm.833-2.5a2.5 2.5 0 100 5 2.5 2.5 0 000-5z" fill="#fff"/></g><defs><clipPath id="eclip0_74_437"><path fill="#fff" d="M0 0h20v20H0z"/></clipPath></defs></svg><svg fill="none" viewBox="0 0 22 21" id="icon-close" xmlns="http://www.w3.org/2000/svg"><path d="M21 19.148L1.851 0 .437 1.414l19.149 19.149L21 19.148z" fill="#fff"/><path d="M1 19.148L20.149 0l1.414 1.414L2.414 20.563 1 19.148z" fill="#fff"/></svg><svg viewBox="0 0 24 24" id="icon-del" xmlns="http://www.w3.org/2000/svg"><g clip-path="url(#gclip0_203_474)"><path d="M4 21.333A2.666 2.666 0 006.667 24h10.667A2.666 2.666 0 0020 21.333v-16H4v16zm12.667-20L15.334 0H8.667L7.334 1.333H2.667V4h18.667V1.333h-4.667z"/></g><defs><clipPath id="gclip0_203_474"><path fill="#fff" d="M0 0h24v24H0z"/></clipPath></defs></svg><svg viewBox="0 0 24 24" id="icon-login" xmlns="http://www.w3.org/2000/svg"><path d="M12.12 13.53h-.17c-2.27-.07-3.97-1.84-3.97-4.02 0-2.22 1.81-4.03 4.03-4.03s4.03 1.81 4.03 4.03a4.014 4.014 0 01-3.89 4.02h-.03zM12 6.97c-1.4 0-2.53 1.14-2.53 2.53a2.52 2.52 0 002.43 2.53.84.84 0 01.23 0 2.535 2.535 0 002.4-2.53c0-1.39-1.13-2.53-2.53-2.53zM12 22.75c-2.69 0-5.26-1-7.25-2.82a.755.755 0 01-.24-.63c.13-1.19.87-2.3 2.1-3.12 2.98-1.98 7.81-1.98 10.78 0 1.23.83 1.97 1.93 2.1 3.12.03.24-.06.47-.24.63A10.71 10.71 0 0112 22.75zM6.08 19.1A9.208 9.208 0 0012 21.25c2.17 0 4.26-.76 5.92-2.15-.18-.61-.66-1.2-1.37-1.68-2.46-1.64-6.63-1.64-9.11 0-.71.48-1.18 1.07-1.36 1.68z"/><path d="M12 22.75C6.07 22.75 1.25 17.93 1.25 12S6.07 1.25 12 1.25 22.75 6.07 22.75 12 17.93 22.75 12 22.75zm0-20C6.9 2.75 2.75 6.9 2.75 12S6.9 21.25 12 21.25s9.25-4.15 9.25-9.25S17.1 2.75 12 2.75z"/></svg><svg viewBox="0 0 20 16" id="icon-mail" xmlns="http://www.w3.org/2000/svg"><path d="M2.5.5A2.5 2.5 0 000 3v10a2.5 2.5 0 002.5 2.5h15A2.5 2.5 0 0020 13V3A2.5 2.5 0 0017.5.5h-15zm-.833 2.946l6.946 4.631a2.5 2.5 0 002.774 0l6.946-4.631V13c0 .46-.373.833-.833.833h-15A.833.833 0 011.667 13V3.446zm15.58-1.28L10.463 6.69a.833.833 0 01-.924 0L2.752 2.167h14.496z"/></svg><svg fill="none" viewBox="0 0 24 24" id="icon-search" xmlns="http://www.w3.org/2000/svg"><path d="M15.594 6.808a6.213 6.213 0 10-8.786 8.786 6.213 6.213 0 008.786-8.786zm-10.2-1.415a8.213 8.213 0 0112.28 10.866l4.125 4.126a1 1 0 01-1.414 1.414l-4.126-4.126A8.215 8.215 0 015.393 5.393z" fill="#443D5C"/></svg><svg fill="none" viewBox="0 0 160 30" id="logo" xmlns="http://www.w3.org/2000/svg"><path d="M58.608.756h1.133V24.96c0 2.365-1.934 4.283-4.317 4.283H54.29V5.04c0-2.365 1.934-4.283 4.317-4.283zm-18.657 0c-2.383 0-4.317 1.918-4.317 4.283v24.205h1.094c2.383 0 4.317-1.918 4.317-4.283v-7.558h4.474c2.383 0 4.318-1.918 4.318-4.283v-.717h-8.792V.756h-1.094zM115.302 12.655l-4.025-.756c-2.794-.504-3.36-2.093-3.36-3.352 0-1.745 1.563-3.605 4.454-3.683h4.493c2.442 0 4.455-1.976 4.455-4.418V0h-8.928c-5.646.078-10.061 4.05-10.061 9.05 0 4.167 2.969 7.326 7.755 8.237l4.103.756c2.266.426 3.614 1.724 3.614 3.469 0 2.15-1.895 3.604-4.728 3.604-.175 0-.332-.02-.488-.038l-.273-.02h-4.611c-2.442 0-4.454 1.977-4.454 4.419v.484l8.869.02 1.016-.02v.02c6.759-.078 10.413-4.613 10.413-8.896.019-4.263-3.146-7.5-8.244-8.43zM145.583 29.36c8.361 0 14.417-6.027 14.417-14.34C160 6.685 153.944.64 145.583.64c-8.381 0-14.457 6.046-14.457 14.38 0 8.313 6.076 14.34 14.457 14.34zm0-23.895c4.395 0 9.142 2.985 9.142 9.516 0 6.511-4.747 9.476-9.142 9.476-4.416 0-9.182-2.965-9.182-9.476 0-6.55 4.766-9.516 9.182-9.516z" fill="#2F3074"/><path d="M27.917 14.496h2.227C29.89 6.105 23.56 0 15.101 0 6.35 0 0 6.318 0 15.02 0 23.681 6.35 29.98 15.082 30h10.51v-1.124c0-2.423-1.992-4.419-4.454-4.419h-6.056c-4.415-.019-9.163-2.984-9.163-9.476 0-6.531 4.748-9.516 9.182-9.516 3.048 0 7.131 1.57 8.596 6.008a4.45 4.45 0 004.22 3.023z" fill="#15C6E1"/><path d="M73.358 13.159V7.888L86.544 28.76h1.642c2.246 0 4.082-1.822 4.082-4.05V1.24h-.937c-2.247 0-4.083 1.822-4.083 4.05v15.408L75.135 1.24H72.46c-2.247 0-4.083 1.822-4.083 4.05v11.92h.899c2.246 0 4.083-1.822 4.083-4.051z" fill="#2F3074"/><path d="M73.358 25.058v-6.473h-.899c-2.247 0-4.083 1.822-4.083 4.05v6.183h1.211c2.09-.02 3.77-1.686 3.77-3.76z" fill="#FF5E3B"/></svg><svg fill="none" viewBox="0 0 153 29" id="logo-footer" xmlns="http://www.w3.org/2000/svg"><g clip-path="url(#lclip0_106_456)"><path d="M56.044.73h1.084v23.4c0 2.285-1.85 4.14-4.13 4.14h-1.083V4.87c0-2.285 1.85-4.14 4.129-4.14zm-17.84 0a4.136 4.136 0 00-4.13 4.14v23.4h1.047a4.136 4.136 0 004.128-4.14v-7.307h4.279a4.136 4.136 0 004.128-4.14v-.693h-8.407V.73h-1.046zM110.257 12.233l-3.848-.73c-2.672-.488-3.214-2.024-3.214-3.241 0-1.686 1.495-3.485 4.26-3.56h4.296c2.336 0 4.26-1.91 4.26-4.271V0h-8.538c-5.398.075-9.62 3.915-9.62 8.749 0 4.027 2.839 7.081 7.416 7.962l3.923.73c2.167.412 3.456 1.668 3.456 3.354 0 2.079-1.812 3.484-4.521 3.484-.168 0-.317-.019-.467-.037l-.261-.02h-4.409c-2.335 0-4.26 1.912-4.26 4.272v.468l8.482.02.971-.02v.02c6.464-.076 9.957-4.46 9.957-8.6.019-4.121-3.007-7.25-7.883-8.149zM139.213 28.382c7.996 0 13.787-5.827 13.787-13.863 0-8.056-5.791-13.9-13.787-13.9-8.014 0-13.824 5.844-13.824 13.9 0 8.036 5.81 13.863 13.824 13.863zm0-23.1c4.204 0 8.743 2.886 8.743 9.2 0 6.294-4.539 9.16-8.743 9.16-4.222 0-8.78-2.866-8.78-9.16 0-6.333 4.558-9.2 8.78-9.2z" fill="#fff"/><path d="M26.696 14.013h2.13C28.581 5.9 22.53 0 14.44 0 6.07 0 0 6.107 0 14.519 0 22.893 6.071 28.98 14.422 29h10.05v-1.087c0-2.341-1.905-4.27-4.259-4.27h-5.791c-4.222-.02-8.762-2.886-8.762-9.162 0-6.313 4.54-9.198 8.78-9.198 2.915 0 6.82 1.517 8.22 5.807a4.26 4.26 0 004.036 2.923z" fill="#15C6E1"/><path d="M70.148 12.72V7.625L82.758 27.8h1.57c2.148 0 3.904-1.76 3.904-3.915V1.199h-.897c-2.148 0-3.904 1.761-3.904 3.915v14.894L71.849 1.199h-2.56c-2.148 0-3.904 1.761-3.904 3.915v11.522h.86c2.147 0 3.903-1.761 3.903-3.916z" fill="#fff"/><path d="M70.148 24.223v-6.257h-.859c-2.148 0-3.904 1.76-3.904 3.915v5.976h1.158a3.629 3.629 0 003.605-3.634z" fill="#FF5E3B"/></g><defs><clipPath id="lclip0_106_456"><path fill="#fff" d="M0 0h153v29H0z"/></clipPath></defs></svg><svg fill="none" viewBox="0 0 89 100" id="mn-01" xmlns="http://www.w3.org/2000/svg"><g clip-path="url(#mclip0_51_1356)" fill="#fff"><path d="M39.951 16.424l7.862 13.727a145.86 145.86 0 019.484.13L39.95 0 20.893 33.27c3.31-.76 6.82-1.396 10.491-1.894l8.567-14.956v.004zM25.838 29.691L39.95 5.051l12.927 22.566a152.1 152.1 0 00-2.385-.016c-.41 0-.822 0-1.24.004l-7.128-12.448-2.17-3.788-2.173 3.788-7.953 13.886c-1.345.197-2.676.41-3.987.644l-.004.004zM28.26 75.56c-9.832-4.353-15.84-10.181-15.84-16.583 0-2.132.665-4.198 1.918-6.167h55.865L60.026 35.043c3.87-.326 7.883-.493 11.99-.493 5.53 0 10.885.31 15.968.887-.295-.097-.594-.189-.892-.28.298.091.601.183.892.28.34.037.68.079 1.02.12a97.177 97.177 0 00-2.734-.656c-8.297-1.865-17.847-2.93-28.007-2.943h-.182a141.283 141.283 0 00-9.065.288c-7.082.448-13.736 1.413-19.723 2.797-.518.122-1.029.243-1.535.368-3.55.878-6.849 1.911-9.84 3.07C6.874 42.745 0 48.758 0 55.422c0 8.555 11.33 16.04 28.26 20.141v-.004zm22.95-39.48l4.88 8.518H23.837c6.828-3.839 16.329-6.832 27.372-8.518zM5.39 92.373c.306-.142.576-.334.804-.577.228-.242.41-.518.54-.828.128-.309.194-.64.194-.986v-.695H5.335v.552c0 .222-.033.406-.095.552a.945.945 0 01-.237.347.937.937 0 01-.336.18c-.12.038-.232.055-.336.055-.365 0-.618-.11-.759-.33-.141-.222-.212-.494-.212-.82v-5.737c0-.376.067-.69.195-.937.129-.246.394-.372.789-.372.302 0 .543.117.717.347.179.23.266.506.266.82v.535H6.92v-.631c0-.39-.066-.749-.195-1.08a2.59 2.59 0 00-.54-.856c-.468-.494-1.078-.74-1.829-.74a2.75 2.75 0 00-1.054.196c-.32.13-.593.314-.821.544-.228.23-.407.506-.531.82a2.757 2.757 0 00-.187 1.024v6.18c0 .514.079.936.24 1.267.163.33.37.602.619.81.249.21.531.356.846.444.316.088.618.125.921.125.353 0 .685-.07.992-.213l.008.004zM19.735 83.919c0-.452-.079-.853-.236-1.196a2.655 2.655 0 00-.61-.866 2.88 2.88 0 00-.867-.506 2.767 2.767 0 00-1.925 0c-.32.117-.602.285-.85.506a2.52 2.52 0 00-.627.866 2.858 2.858 0 00-.237 1.196v5.925c0 .472.08.878.237 1.212.157.335.365.615.626.836.25.23.535.406.85.519.32.117.64.171.963.171.324 0 .643-.058.963-.171.32-.117.605-.289.867-.519.249-.221.452-.497.61-.836.157-.334.236-.74.236-1.212v-5.925zm-1.593 5.925c0 .388-.108.673-.32.857a1.126 1.126 0 01-.759.276c-.294 0-.543-.092-.759-.276-.216-.184-.32-.469-.32-.857v-5.925c0-.39.109-.673.32-.858.212-.184.465-.275.76-.275.294 0 .543.091.759.275.211.184.319.469.319.858v5.925zM31.01 87.214h-.032l-2.05-5.942h-1.53V92.49h1.593v-6.823h.033l1.564 4.825h.796l1.58-4.826h.03v6.824h1.597V81.272h-1.547l-2.033 5.942zM46.804 82.058a2.229 2.229 0 00-.908-.615c-.332-.117-.718-.171-1.157-.171h-2.394v11.223h1.593v-4.382h.813c.593 0 1.074-.105 1.44-.31.365-.205.655-.489.875-.857.186-.305.311-.631.37-.978.057-.347.086-.774.086-1.276 0-.673-.054-1.204-.157-1.601a2.376 2.376 0 00-.565-1.033h.005zM46 85.478c-.017.23-.067.427-.15.586a.89.89 0 01-.39.393c-.178.096-.427.142-.75.142h-.768v-3.813h.83c.31 0 .551.046.717.142.166.096.29.23.374.41.083.18.128.384.14.623.01.238.017.485.017.748 0 .284-.008.54-.025.773l.005-.004zM56.155 81.272L53.67 92.495h1.593l.47-2.413h2.173l.469 2.413h1.593l-2.485-11.223h-1.328zm-.14 7.296l.78-4.064h.032l.78 4.064h-1.593zM72.51 92.49V81.272h-1.594v6.761h-.033l-2.406-6.761h-1.535V92.49h1.597v-6.744h.03l2.438 6.744h1.502zM83.283 92.49V87.75l2.19-6.477h-1.688l-1.282 4.457h-.033l-1.282-4.457h-1.689l2.191 6.477v4.741h1.593zM3.107 99.975v-2.818h.884v-.44H1.73v.44h.884v2.818h.493zM7.563 96.718l-1.174 3.257h.518l.25-.728h1.227l.25.728h.518l-1.174-3.257h-.415zm-.266 2.09l.469-1.421h.008l.47 1.421h-.947zM12.678 97.42a.627.627 0 01.502-.238c.158 0 .29.05.398.138a.707.707 0 01.216.334h.518a1.206 1.206 0 00-.373-.685c-.195-.184-.452-.276-.763-.28-.253 0-.465.062-.635.183a1.11 1.11 0 00-.377.402.928.928 0 00-.108.31c-.021.129-.033.38-.033.76s.012.623.033.757c.012.071.025.13.045.176.021.046.042.092.063.142.078.15.203.284.377.397.17.121.382.18.635.188.328-.004.601-.117.821-.339.216-.221.328-.493.332-.82v-.664h-1.15v.468h.66v.172a.67.67 0 01-.19.493.63.63 0 01-.473.197.567.567 0 01-.299-.075.568.568 0 01-.203-.164.565.565 0 01-.125-.276c-.025-.112-.037-.33-.037-.652s.012-.54.037-.656c.021-.109.063-.201.125-.272l.004.004zM17.627 96.718v3.257h2.062v-.468h-1.572v-2.79h-.49zM23.365 96.718h-.49v3.257h.49v-3.257zM26.771 96.718v3.257h.49v-2.317h.008l1.46 2.317h.465v-3.257h-.49v2.316h-.008l-1.465-2.316h-.46zM34.666 97.186v-.468H32.6v3.257h2.066v-.468h-1.577v-.954h1.344v-.439H33.09v-.928h1.577zM41.693 97.278a.845.845 0 00-.108.31c-.02.129-.033.38-.033.76s.013.623.033.757c.013.071.025.13.046.176.02.046.042.092.062.142.08.15.204.284.378.397.17.121.382.18.635.188.327-.004.601-.117.821-.338.216-.222.328-.494.332-.82v-.665h-1.15v.469h.66v.171a.67.67 0 01-.19.493.63.63 0 01-.473.197.567.567 0 01-.3-.075.57.57 0 01-.202-.163.564.564 0 01-.125-.276c-.025-.113-.037-.33-.037-.653 0-.322.012-.54.037-.656.02-.109.062-.2.125-.272a.627.627 0 01.502-.238c.157 0 .29.05.398.138a.707.707 0 01.215.334h.52a1.206 1.206 0 00-.374-.685c-.195-.184-.452-.276-.764-.28-.253 0-.464.062-.634.183a1.11 1.11 0 00-.378.402l.004.004zM47.186 97.278a.845.845 0 00-.108.31c-.02.129-.033.38-.033.76s.012.623.033.757c.013.071.025.13.046.176l.062.142c.079.15.203.284.377.397.17.122.382.18.635.188.257-.004.473-.066.643-.188.17-.113.295-.246.37-.397a.772.772 0 00.111-.314c.021-.13.03-.384.03-.756 0-.373-.009-.632-.03-.761a.751.751 0 00-.111-.31 1.08 1.08 0 00-.37-.401c-.17-.121-.386-.18-.643-.184-.253 0-.464.063-.635.184-.174.117-.298.25-.377.401v-.004zm.386.414a.626.626 0 01.626-.51.593.593 0 01.498.238.596.596 0 01.133.272c.02.117.033.334.033.656s-.012.536-.033.653a.572.572 0 01-.133.276.538.538 0 01-.195.163.592.592 0 01-.303.075.567.567 0 01-.298-.075.568.568 0 01-.204-.163.563.563 0 01-.124-.276c-.025-.113-.038-.33-.038-.653 0-.322.013-.539.038-.656zM52.65 99.975h2.062v-.468h-1.573v-.954h1.345v-.439h-1.345v-.928h1.573v-.468H52.65v3.257zM58.856 99.507c-.352 0-.66-.113-.916-.322l-.32.372a1.83 1.83 0 001.236.447c.743-.008 1.12-.326 1.137-.949 0-.23-.07-.435-.216-.606-.145-.176-.369-.289-.672-.33-.153-.022-.273-.038-.365-.05a.647.647 0 01-.348-.16.363.363 0 01-.108-.255c0-.154.058-.276.162-.35a.614.614 0 01.377-.114c.29.004.556.088.8.251l.275-.406a1.798 1.798 0 00-1.05-.338c-.332 0-.593.092-.771.263a.905.905 0 00-.283.69c0 .238.075.44.224.602.146.16.357.264.635.31l.427.058c.282.05.424.197.424.44-.005.296-.22.447-.64.455l-.008-.008zM69.298 99.975v-3.257h-.49v1.396h-1.277v-1.396h-.49v3.257h.49v-1.422h1.278v1.422h.49zM74.77 97.186v-.468h-2.066v3.257h2.066v-.468h-1.576v-.954h1.344v-.439h-1.344v-.928h1.576zM79.57 98.528c.411-.159.619-.46.627-.903-.008-.301-.116-.531-.32-.694-.17-.142-.39-.213-.66-.213h-1.26v3.257h.49v-1.392h.626l.667 1.392h.585l-.75-1.447h-.005zm-1.124-.385v-.986h.768c.157 0 .278.033.36.1.104.075.158.2.162.368 0 .142-.045.26-.137.355-.09.105-.228.16-.41.16h-.743v.004zM85.511 97.186v-.468H83.45v3.257h2.062v-.468H83.94v-.954h1.344v-.439h-1.344v-.928h1.572z"/></g><defs><clipPath id="mclip0_51_1356"><path fill="#fff" d="M0 0h89v100H0z"/></clipPath></defs></svg><svg fill="none" viewBox="0 0 78 100" id="mn-02" xmlns="http://www.w3.org/2000/svg"><g clip-path="url(#nclip0_51_1389)" fill="#fff"><path d="M23.679 24.584L47.973 0l-9.658 2.674c-10.049 2.783-18.517 7.602-25.164 14.328l-7.49 7.582a12.617 12.617 0 009.007 3.773c3.262 0 6.52-1.26 9.007-3.773h.004zm-8.105-5.13c5.578-5.643 12.548-9.86 20.753-12.563L21.256 22.136a9.196 9.196 0 01-6.588 2.763 9.169 9.169 0 01-3.709-.776l4.615-4.67zM20.373 61.969l7.49 7.578a12.92 12.92 0 003.73-9.113c0-3.3-1.242-6.597-3.73-9.113L3.57 26.737l2.643 9.771c2.751 10.167 7.514 18.735 14.165 25.46h-.003zm5.07-8.2c2.78 2.811 3.434 6.968 1.961 10.413l-4.611-4.665c-5.578-5.643-9.746-12.696-12.417-20.997l15.068 15.245v.004zM63.332 43.375c-3.258 0-6.52 1.26-9.007 3.777L30.027 71.736l9.657-2.674C49.734 66.28 58.201 61.46 64.85 54.73l7.49-7.578a12.687 12.687 0 00-4.216-2.831 12.606 12.606 0 00-4.795-.946h.004zm-.903 8.907c-5.577 5.643-12.548 9.865-20.752 12.563L56.744 49.6a9.202 9.202 0 016.588-2.763 9.17 9.17 0 013.709.776l-4.616 4.67h.004zM50.133 20.415L74.43 45l-2.643-9.771c-2.751-10.167-7.514-18.735-14.165-25.46l-7.49-7.583c-4.975 5.033-4.975 13.193 0 18.226v.004zm.459-12.865l4.611 4.665c5.578 5.643 9.746 12.696 12.417 20.997L52.552 17.967c-2.779-2.811-3.433-6.972-1.96-10.417zM.838 92.54c.232.197.495.334.787.411.291.077.579.117.858.117.332 0 .64-.064.927-.198.287-.133.535-.31.75-.537a2.67 2.67 0 00.503-.771c.12-.291.184-.598.184-.921v-.647H3.362v.517c0 .206-.028.38-.088.517a.897.897 0 01-.22.324 1.007 1.007 0 01-.623.222c-.339 0-.574-.105-.706-.311-.132-.206-.196-.46-.196-.768v-5.36c0-.356.06-.646.184-.877.12-.23.367-.347.734-.347.284 0 .503.11.671.323.164.214.248.473.248.768v.5H4.85v-.59c0-.363-.06-.698-.184-1.01a2.398 2.398 0 00-.503-.803c-.435-.46-1.006-.69-1.705-.69-.359 0-.686.06-.982.185-.295.121-.55.291-.762.51-.216.217-.38.472-.495.767a2.597 2.597 0 00-.176.957V90.6c0 .481.076.877.224 1.188.151.31.343.561.574.76l-.004-.009zM16.764 84.965c0-.42-.072-.796-.22-1.119a2.495 2.495 0 00-.566-.812 2.67 2.67 0 00-.807-.472 2.57 2.57 0 00-2.583.472 2.34 2.34 0 00-.583.812c-.144.323-.22.7-.22 1.12v5.537c0 .44.072.82.22 1.135.144.316.34.574.583.78.232.218.5.38.795.485a2.57 2.57 0 001.788 0c.296-.11.567-.27.807-.485.231-.206.423-.465.567-.78.143-.315.22-.69.22-1.135v-5.538zm-1.485 5.538c0 .364-.1.63-.3.804a1.04 1.04 0 01-.706.259 1.04 1.04 0 01-.707-.259c-.2-.17-.3-.44-.3-.804v-5.538c0-.363.1-.63.3-.803.2-.17.435-.26.707-.26.271 0 .507.086.707.26.2.173.299.44.299.803v5.538zM27.26 88.043h-.032l-1.904-5.55h-1.43V92.98h1.486V86.6h.032l1.453 4.508h.743l1.473-4.508h.028v6.379h1.485V82.493h-1.441l-1.893 5.55zM41.96 83.228a2.086 2.086 0 00-.842-.573 3.26 3.26 0 00-1.078-.162h-2.228V92.98h1.485v-4.097h.759c.555 0 .998-.096 1.341-.286.34-.19.611-.46.815-.804.175-.283.287-.59.343-.913a7.68 7.68 0 00.08-1.192c0-.63-.048-1.127-.144-1.494a2.251 2.251 0 00-.523-.966h-.008zm-.75 3.196c-.016.214-.06.395-.14.545a.824.824 0 01-.364.367c-.163.09-.399.134-.698.134h-.715v-3.563h.77c.292 0 .516.044.671.133a.837.837 0 01.352.384c.076.166.12.36.132.582.007.222.015.452.015.698 0 .267-.008.505-.02.724l-.003-.004zM50.668 82.493L48.352 92.98h1.485l.435-2.255h2.025l.435 2.255h1.485L51.9 82.493h-1.237.004zm-.132 6.819l.727-3.801h.028l.726 3.8h-1.485.004zM65.895 92.98V82.493H64.41v6.318h-.028l-2.244-6.318h-1.425V92.98h1.485v-6.306h.028l2.272 6.305h1.397zM72.403 82.493l2.04 6.051v4.436h1.481v-4.436l2.04-6.05h-1.573l-1.194 4.168h-.027l-1.194-4.169h-1.573zM.822 99.972h.46v-2.634h.822v-.408H0v.408h.822v2.634zM6.192 99.293l.232.683h.479L5.809 96.93h-.384l-1.093 3.046h.483l.231-.683h1.146zm-.575-1.74h.008l.435 1.328h-.878l.435-1.329zM10.193 97.584a.578.578 0 01.467-.222c.148 0 .271.045.371.13.096.084.164.19.204.315h.483a1.156 1.156 0 00-.347-.643c-.184-.17-.42-.258-.711-.262-.236 0-.435.06-.591.17-.16.108-.28.234-.351.375a.82.82 0 00-.1.29c-.02.122-.032.356-.032.712 0 .355.012.582.032.707a.943.943 0 00.04.161 1.026 1.026 0 00.411.505c.16.113.355.17.59.174.308-.004.564-.11.763-.315.2-.206.304-.46.312-.768v-.622h-1.07v.437h.615v.157c0 .19-.064.343-.176.46a.587.587 0 01-.44.186.536.536 0 01-.275-.068.523.523 0 01-.191-.154.468.468 0 01-.116-.258c-.024-.105-.032-.307-.032-.606 0-.3.012-.505.032-.61a.553.553 0 01.116-.255l-.004.004zM14.8 96.93v3.042h1.92v-.436h-1.465V96.93H14.8zM20.142 96.93h-.456v3.046h.456V96.93zM23.311 96.93v3.042h.46V97.81h.008l1.357 2.16h.431v-3.04h-.455v2.16h-.008l-1.361-2.16h-.431zM30.662 97.366v-.436h-1.92v3.042h1.92v-.436h-1.465v-.893h1.25v-.408h-1.25v-.869h1.465zM37.206 97.451a.82.82 0 00-.1.29c-.02.122-.032.356-.032.712 0 .355.012.581.032.707a.936.936 0 00.04.161 1.027 1.027 0 00.411.505c.16.113.355.17.59.174.308-.004.564-.11.763-.315a1.1 1.1 0 00.312-.768v-.622h-1.07v.437h.614v.157c0 .19-.06.344-.175.46a.587.587 0 01-.44.186.537.537 0 01-.275-.068.56.56 0 01-.191-.154.47.47 0 01-.116-.258 3.843 3.843 0 01-.032-.606c0-.3.012-.505.032-.61a.578.578 0 01.583-.477c.147 0 .271.045.371.13.096.084.164.19.204.315h.483a1.155 1.155 0 00-.348-.643c-.183-.17-.419-.258-.71-.262-.236 0-.435.06-.591.17-.16.108-.28.234-.352.375l-.004.004zM42.32 97.451a.822.822 0 00-.1.29c-.02.122-.032.356-.032.712 0 .355.012.581.032.707a.943.943 0 00.04.161 1.027 1.027 0 00.411.505c.16.113.355.17.591.174.24-.004.44-.065.599-.174.16-.109.271-.23.343-.371a.657.657 0 00.104-.295c.016-.121.028-.36.028-.707s-.008-.59-.028-.711a.749.749 0 00-.104-.29 1.01 1.01 0 00-.343-.377 1.01 1.01 0 00-.599-.17c-.236 0-.435.061-.59.17-.16.11-.28.235-.352.376zm.36.388a.577.577 0 01.583-.477c.107 0 .203.024.282.065.076.04.136.093.184.157.06.065.1.15.12.255.02.109.032.31.032.61 0 .299-.012.5-.032.606a.617.617 0 01-.12.258.578.578 0 01-.467.222.537.537 0 01-.276-.068.559.559 0 01-.191-.154.469.469 0 01-.116-.258c-.024-.105-.032-.307-.032-.606 0-.3.012-.505.032-.61zM47.406 99.972h1.92v-.436h-1.465v-.893h1.25v-.408h-1.25v-.869h1.466v-.436h-1.92v3.042zM53.183 99.535c-.331 0-.615-.105-.854-.302l-.3.347c.32.279.703.416 1.15.416.69-.008 1.042-.303 1.058-.885a.892.892 0 00-.2-.57c-.135-.165-.343-.266-.626-.306a4.557 4.557 0 01-.34-.049c-.147-.028-.255-.077-.323-.15a.336.336 0 01-.1-.237c0-.146.052-.255.152-.332a.552.552 0 01.351-.105c.272.004.52.085.747.235l.255-.38a1.676 1.676 0 00-.978-.315c-.311 0-.55.085-.718.246a.83.83 0 00-.264.642c0 .223.068.408.208.566.135.15.331.246.59.29.144.021.276.041.4.057.263.045.395.182.391.408-.004.279-.204.42-.595.424h-.004zM62.905 99.972V96.93h-.455v1.305h-1.19V96.93h-.455v3.042h.455v-1.33h1.19v1.33h.455zM67.999 97.366v-.436h-1.92v3.042h1.92v-.436h-1.465v-.893h1.25v-.408h-1.25v-.869h1.465zM73.05 97.778c-.008-.282-.108-.497-.3-.65a.926.926 0 00-.615-.202h-1.174v3.046h.456v-1.3h.582l.623 1.3h.543l-.698-1.35c.383-.149.575-.428.582-.844zm-.56.336c-.083.097-.211.15-.383.15h-.69v-.926h.714c.144 0 .256.032.336.093.095.073.147.186.151.343 0 .134-.04.243-.123.336l-.005.004zM78 97.366v-.436h-1.92v3.042H78v-.436h-1.465v-.893h1.25v-.408h-1.25v-.869H78z"/></g><defs><clipPath id="nclip0_51_1389"><path fill="#fff" d="M0 0h78v100H0z"/></clipPath></defs></svg><svg fill="none" viewBox="0 0 70 100" id="mn-03" xmlns="http://www.w3.org/2000/svg"><g clip-path="url(#oclip0_51_1302)" fill="#fff"><path d="M64.117 57.648a30.841 30.841 0 01-3.66 5.163l.037.038-1.296 1.309c-5.771 5.841-13.454 9.06-21.634 9.06-8.181 0-15.81-3.194-21.572-8.993-5.763-5.8-8.937-13.51-8.937-21.71 0-.606.017-1.22.054-1.83 0-.085.008-.168.017-.256v-.025l.012-.167v-.03c.012-.125.02-.255.033-.38.009-.105.017-.213.03-.326l.05-.494c.012-.096.02-.204.037-.31.016-.133.033-.288.054-.438a1454.875 1454.875 0 00.103-.694c.013-.08.03-.172.042-.26.012-.075.025-.15.042-.225.016-.096.037-.21.058-.318.016-.096.037-.2.058-.305.025-.121.046-.239.075-.364.174-.836.39-1.677.635-2.496l.009-.021c.029-.109.062-.218.1-.322l.087-.28c.174-.535.365-1.079.569-1.602.029-.07.058-.15.087-.226.033-.079.062-.163.1-.25l.133-.326c.033-.084.075-.18.116-.272l.017-.042c.058-.125.112-.255.17-.38.042-.097.083-.189.129-.28a30.308 30.308 0 012.771-4.8l.175-.24c.12-.166.24-.334.365-.493.058-.075.12-.159.183-.238.133-.176.27-.347.403-.514.079-.096.158-.2.241-.297.075-.092.158-.192.241-.289.079-.096.166-.196.25-.292.095-.109.19-.222.286-.33l-3.581-3.61c-5.942 6.578-9.207 15.079-9.207 24.018 0 9.563 3.697 18.548 10.416 25.31 6.718 6.76 15.647 10.482 25.149 10.482s18.484-3.746 25.207-10.545c1.92-1.94 3.61-4.09 5.035-6.402l-3.693-3.717.004.009z"/><path d="M18.597 61.603C23.662 66.7 30.4 69.51 37.564 69.51c.224 0 .448 0 .673-.008.112 0 .22-.005.332-.009h.017l.494-.025.395-.025c.066-.004.124-.008.178-.013l.092-.008c.12-.008.24-.02.366-.033.108-.009.207-.017.311-.03.075-.008.141-.016.204-.02l.137-.017c.087-.013.174-.021.266-.034.332-.041.656-.087.976-.142.091-.017.179-.033.266-.046h.03c.07-.016.14-.03.207-.042l.033-.008a6.21 6.21 0 00.274-.054c.241-.046.478-.096.71-.15.159-.034.317-.076.474-.114h.021a.647.647 0 01.12-.033c.117-.03.22-.059.329-.084.091-.025.178-.046.262-.07.074-.022.14-.039.203-.06.063-.016.112-.029.158-.046l.038-.012c.066-.017.132-.038.199-.059.112-.033.208-.062.303-.096.08-.025.146-.046.22-.067.225-.075.45-.15.67-.23.062-.02.12-.041.178-.062l.046-.017c.079-.03.15-.054.216-.08.112-.041.207-.079.307-.117.083-.033.158-.058.229-.087.137-.055.262-.105.386-.16l.374-.158c.116-.05.233-.1.34-.15.067-.03.121-.055.18-.08l.053-.025c.092-.042.183-.088.275-.13.565-.272 1.121-.56 1.657-.87.059-.033.113-.066.17-.096.125-.07.25-.146.37-.217l.615-.38c.27-.176.553-.36.856-.57l.25-.175.033-.025c.062-.046.124-.088.187-.134l.016-.012.138-.1.016-.013c.08-.055.154-.113.229-.172.087-.062.17-.13.249-.192.058-.046.104-.084.154-.121l.058-.046c.083-.067.17-.134.253-.205.087-.071.17-.142.258-.21l.02-.016c.163-.134.32-.272.483-.41a3.95 3.95 0 00.145-.13l-3.586-3.612a21.601 21.601 0 01-14.1 5.214c-12 0-21.764-9.826-21.764-21.901 0-5.888 2.29-11.411 6.44-15.555a21.944 21.944 0 016.806-4.604l-3.806-3.83a26.942 26.942 0 00-6.59 4.842c-5.106 5.106-7.915 11.904-7.915 19.147 0 7.242 2.793 13.99 7.857 19.087h-.008z"/><path d="M68.001 35.792c0-9.563-3.697-18.548-10.416-25.31C50.867 3.723 41.935 0 32.432 0 22.93 0 13.947 3.742 7.225 10.545a35.714 35.714 0 00-5.036 6.402l3.694 3.717a30.84 30.84 0 013.66-5.164l-.037-.037 1.296-1.31c5.767-5.84 13.454-9.06 21.634-9.06 8.181 0 15.81 3.194 21.572 8.994 5.763 5.8 8.937 13.505 8.937 21.71 0 .605-.017 1.224-.054 1.83 0 .08-.008.168-.017.256 0 .062-.008.125-.012.188v.029c-.013.125-.02.255-.033.38-.009.105-.017.218-.03.33l-.05.494c-.012.096-.02.2-.037.31-.016.133-.033.284-.054.439l-.037.246c-.017.142-.042.293-.067.448-.012.08-.029.171-.041.259-.012.075-.025.15-.042.226a18.495 18.495 0 01-.12.623c-.02.117-.046.238-.075.364-.174.836-.39 1.68-.636 2.496-.033.113-.066.23-.108.347l-.087.28a29.176 29.176 0 01-.656 1.823l-.1.251c-.042.1-.087.213-.133.326a6.73 6.73 0 01-.116.272l-.017.042c-.058.125-.112.255-.17.38a30.31 30.31 0 01-2.9 5.08l-.17.239A30.3 30.3 0 0156.23 55c-.08.096-.158.2-.241.297-.07.087-.146.18-.224.271l-.017.017c-.083.096-.166.197-.254.293-.095.109-.19.221-.286.33l3.581 3.609c5.942-6.586 9.207-15.09 9.207-24.034l.004.008z"/><path d="M40.95 55.954l3.806 3.83a26.94 26.94 0 006.59-4.842c5.106-5.105 7.914-11.904 7.914-19.146 0-7.242-2.792-13.99-7.857-19.087C46.34 11.61 39.6 8.802 32.437 8.802c-.225 0-.449 0-.673.008-.113 0-.22 0-.333.008h-.016l-.495.025-.395.026c-.066 0-.124.008-.178.012l-.091.008c-.117.009-.241.021-.362.034-.108.012-.208.02-.312.033-.074.009-.14.017-.203.021l-.104.013s-.025 0-.033.004a32.253 32.253 0 00-1.238.176c-.092.016-.18.029-.266.046h-.03c-.07.016-.136.029-.203.041l-.046.009-.266.05c-.249.046-.486.096-.718.15-.158.034-.316.076-.474.113h-.02c-.042.013-.08.025-.121.034-.117.03-.22.058-.328.083-.092.026-.175.046-.262.072-.075.02-.142.037-.208.058-.062.017-.112.034-.158.046l-.037.013a3.573 3.573 0 00-.2.058 6.74 6.74 0 00-.303.096 6.375 6.375 0 01-.22.067c-.225.075-.449.15-.67.23-.061.021-.116.042-.174.063l-.05.017c-.074.029-.14.05-.207.08a6.4 6.4 0 00-.316.12c-.083.034-.154.063-.229.092-.137.055-.261.105-.386.16l-.374.158a27.911 27.911 0 00-.52.23l-.053.025c-.092.042-.183.088-.274.13-.565.272-1.122.56-1.658.87-.063.033-.112.062-.17.096a26.3 26.3 0 00-.35.204l-.386.239c-.079.05-.162.104-.245.155-.274.171-.553.36-.852.568l-.228.16-.05.033-.196.142-.024.017c-.042.033-.084.062-.13.096l-.016.012c-.079.054-.153.113-.228.172-.088.062-.166.13-.25.192-.058.046-.108.084-.153.121l-.059.046c-.083.067-.17.134-.253.205-.096.075-.187.155-.278.23-.162.134-.32.272-.482.41a4.12 4.12 0 00-.146.13l3.59 3.612a21.606 21.606 0 0114.101-5.218c12 0 21.763 9.826 21.763 21.901 0 5.888-2.289 11.411-6.44 15.555a21.942 21.942 0 01-6.805 4.603l.004-.008zM5.605 91.102c-.133.598-.387 1.054-.752 1.367-.374.302-.827.456-1.367.456-.44 0-.848-.113-1.234-.334-.374-.222-.652-.565-.827-1.02-.187-.456-.274-1-.274-1.61 0-.477.079-.945.233-1.388.153-.444.42-.8.785-1.067.374-.255.847-.389 1.4-.389.486 0 .88.113 1.2.356.32.234.562.61.728 1.133l.02.054 1.106-.255-.021-.067c-.208-.69-.573-1.233-1.093-1.622-.52-.376-1.159-.564-1.92-.564-.66 0-1.279.146-1.844.443a3.19 3.19 0 00-1.292 1.334C.153 88.505 0 89.195 0 89.96c0 .71.133 1.388.399 1.998.266.623.66 1.112 1.18 1.434.507.335 1.18.502 1.998.502.819 0 1.459-.221 2.007-.644.553-.422.927-1.053 1.138-1.865l.021-.066-1.113-.276-.021.067-.004-.009zM15.714 86.64a3.664 3.664 0 00-1.9-.501c-1.071 0-1.952.356-2.625 1.054-.673.698-1.014 1.689-1.014 2.918 0 .657.146 1.276.44 1.865.287.59.72 1.054 1.28 1.4.561.344 1.205.511 1.907.511.661 0 1.28-.155 1.845-.468.574-.301 1.014-.766 1.334-1.368.307-.59.465-1.275.465-2.032 0-.757-.154-1.409-.44-1.998a3.324 3.324 0 00-1.292-1.389v.009zm-.12 5.533c-.466.497-1.073.757-1.787.757-.715 0-1.3-.256-1.779-.745-.465-.502-.706-1.187-.706-2.053 0-1.079.254-1.865.74-2.32a2.495 2.495 0 011.753-.69c.486 0 .914.12 1.3.355.374.234.673.577.873 1.012.2.435.299.953.299 1.543 0 .92-.233 1.643-.694 2.145v-.004zM27.09 86.46l-1.779 5.098c-.145.41-.253.732-.332.987l-.3-.887-1.778-5.264h-.12v2.722l1.645 4.775h.98l1.68-4.762v-2.664l.003-.004zM22.386 86.394h-1.08v7.497h1.08v-7.497zM28.556 86.394h-1.072v7.497h1.072v-7.497zM33.533 86.394H32.42v7.497h1.113v-7.497zM38.012 87.56c-.166-.309-.365-.564-.627-.731a2.165 2.165 0 00-.94-.355c-.265-.055-.651-.08-1.146-.08h-1.367v1h1.446c.44 0 .74.02.906.066.24.067.44.201.586.41.153.21.22.456.22.757 0 .401-.12.71-.374.932-.254.222-.694.335-1.313.335h-1.467v1.012h1.459c1.06 0 1.82-.235 2.227-.678.42-.443.627-.986.627-1.63 0-.377-.079-.724-.233-1.033l-.004-.004zM45.017 86.394l-2.913 7.497h1.18l.333-.878h-.013l.84-2.275.178-.468.62-1.656h.012c.133-.368.24-.744.332-1.112.112.356.266.79.453 1.275l.752 1.953h-1.907l-.34.92h2.604l.873 2.233h1.267l-3.112-7.497H45.03l-.012.008zM54.07 86.394h-1.038v7.497h1.038v-7.497zM57.951 92.026l-.02-.033v1.898h1.1v-7.497h-1.08v5.632zM54.465 88.794l3.067 4.529v-1.92l-3.067-4.52v1.911zM68.675 86.394l-1.467 2.2c-.287.434-.54.844-.76 1.2v-.013l-.62.945v3.165h1.127v-3.165l3.033-4.332h-1.313zM66.215 89.392l-.461-.744-1.492-2.254h-1.367l2.693 3.977.627-.979zM0 97.63h.74v2.35h.41v-2.35h.74v-.369H0v.368zM4.874 97.261l-.98 2.718h.431l.208-.606h1.026l.208.606h.432l-.98-2.718H4.873zm-.225 1.744l.39-1.188h.01l.39 1.188h-.79zM9.568 98.871h.549v.142c0 .172-.054.31-.158.414a.525.525 0 01-.395.163.48.48 0 01-.249-.063.431.431 0 01-.17-.138.436.436 0 01-.104-.23 3.128 3.128 0 01-.03-.543c0-.268.009-.448.03-.548a.473.473 0 01.104-.226.47.47 0 01.17-.138.578.578 0 01.25-.058c.128 0 .24.042.332.113a.6.6 0 01.182.28h.433a1.015 1.015 0 00-.312-.573c-.166-.155-.378-.23-.636-.234a.9.9 0 00-.532.155.922.922 0 00-.315.334.752.752 0 00-.092.26c-.016.108-.029.317-.029.635s.008.523.03.631c.008.059.02.109.037.147a.913.913 0 00.37.447c.14.1.32.15.531.155a.964.964 0 00.686-.28.966.966 0 00.278-.686v-.552h-.96v.393zM13.69 97.261h-.407v2.718h1.724v-.389H13.69v-2.329zM18.078 97.261h-.408v2.718h.408v-2.718zM22.535 99.193h-.004l-1.225-1.932h-.383v2.718h.408v-1.932h.008l1.221 1.932h.387v-2.718h-.412v1.932zM25.793 99.98h1.724v-.39h-1.313v-.798h1.122v-.364h-1.122v-.778h1.313v-.389h-1.724v2.718zM34.24 98.871h.548v.142c0 .172-.054.31-.158.414a.525.525 0 01-.394.163.48.48 0 01-.25-.063.431.431 0 01-.17-.138.437.437 0 01-.104-.23 3.138 3.138 0 01-.029-.543c0-.268.008-.448.03-.548a.474.474 0 01.103-.226.47.47 0 01.17-.138.577.577 0 01.25-.058c.133 0 .24.042.332.113.087.075.15.171.183.28h.432a1.014 1.014 0 00-.312-.573c-.166-.155-.378-.23-.635-.234a.9.9 0 00-.532.155.921.921 0 00-.316.334.75.75 0 00-.091.26c-.017.108-.03.317-.03.635s.009.523.03.631a.57.57 0 00.037.147c.017.037.033.075.054.117.067.125.17.234.316.33.141.1.32.15.532.155a.964.964 0 00.685-.28.967.967 0 00.279-.686v-.552h-.96v.393zM39.67 97.73a.894.894 0 00-.308-.335.953.953 0 00-.535-.155.9.9 0 00-.532.155.92.92 0 00-.316.335.752.752 0 00-.091.259c-.017.108-.03.318-.03.635 0 .318.009.523.03.632.008.058.02.109.037.146.017.038.033.075.054.117.066.126.17.234.316.33.14.1.32.151.532.155a.966.966 0 00.535-.154.886.886 0 00.308-.33.633.633 0 00.095-.264c.017-.109.025-.318.025-.632 0-.313-.008-.526-.025-.635a.613.613 0 00-.095-.26zm-.32 1.434a.514.514 0 01-.108.23.526.526 0 01-.665.138.43.43 0 01-.17-.138.436.436 0 01-.104-.23 3.125 3.125 0 01-.03-.544c0-.267.01-.447.03-.548a.474.474 0 01.104-.225.47.47 0 01.17-.138.576.576 0 01.503 0c.066.037.12.083.162.138a.442.442 0 01.108.225c.017.097.03.28.03.548s-.01.448-.03.544zM42.541 99.98h1.724v-.39h-1.313v-.798h1.122v-.364h-1.122v-.778h1.313v-.389h-1.724v2.718zM47.934 98.432c-.129-.017-.229-.03-.303-.042a.542.542 0 01-.291-.134.293.293 0 01-.092-.213c0-.13.046-.23.138-.293a.516.516 0 01.315-.096c.245.005.466.076.67.21l.228-.34c-.25-.18-.54-.275-.877-.28-.278 0-.494.076-.648.222a.747.747 0 00-.237.573c0 .197.062.364.187.502.12.133.3.221.532.259.129.017.25.033.357.05.237.042.353.163.353.364-.004.247-.182.372-.532.376-.294 0-.552-.092-.768-.272l-.27.31c.287.246.631.372 1.03.372.62-.008.935-.272.947-.79a.768.768 0 00-.178-.506c-.12-.147-.308-.239-.561-.276v.004zM56.044 98.428h-1.068V97.26h-.411v2.718h.411v-1.187h1.068v1.187h.411v-2.718h-.411v1.167zM59.301 99.98h1.724v-.39h-1.317v-.798h1.122v-.364h-1.122v-.778h1.318v-.389H59.3v2.718zM65.558 98.022c-.008-.25-.095-.443-.27-.581-.14-.121-.324-.18-.548-.18h-1.055v2.718h.41v-1.162h.524l.557 1.162h.486l-.627-1.204c.345-.134.52-.385.523-.753zm-1.462.43v-.823h.64c.133 0 .232.03.299.084.087.063.133.167.137.31a.419.419 0 01-.112.296c-.075.088-.191.13-.345.134h-.62zM68.276 99.98H70v-.39h-1.317v-.798h1.122v-.364h-1.122v-.778H70v-.389h-1.724v2.718z"/></g><defs><clipPath id="oclip0_51_1302"><path fill="#fff" d="M0 0h70v100H0z"/></clipPath></defs></svg><svg fill="none" viewBox="0 0 75 100" id="mn-04" xmlns="http://www.w3.org/2000/svg"><g fill="#fff"><path d="M53.632 23.97l-9.88 9.955 3.817 3.846 9.879-9.955-3.816-3.846zM33.661 44.093l-9.878 9.955 3.816 3.845 9.878-9.955-3.816-3.846zM47.356 17.649l-9.879 9.955 3.817 3.846 9.878-9.955-3.816-3.846zM27.39 37.768l-9.88 9.956 3.817 3.845 9.878-9.955-3.816-3.846z"/><path d="M21.326 23.97l-3.816 3.846 9.878 9.955 3.816-3.846-9.878-9.955zM27.602 17.648l-3.816 3.846 9.878 9.955 3.816-3.846-9.878-9.955zM47.57 37.773l-3.817 3.845 9.879 9.955 3.816-3.846-9.878-9.954zM41.294 44.095l-3.816 3.846 9.878 9.955 3.816-3.846-9.878-9.955z"/><path d="M51.173 61.741l-3.815-3.847-9.88 9.956-9.88-9.956-3.814 3.847 13.694 13.8 13.695-13.8zM17.509 27.816l-3.815-3.848L0 37.769 13.694 51.57l3.815-3.844-9.88-9.956 9.88-9.953zM61.263 23.968l-3.814 3.848 9.88 9.953-9.88 9.956 3.814 3.844 13.694-13.8-13.694-13.8zM47.358 17.644l3.815-3.844L37.478 0 23.784 13.8l3.815 3.844 9.88-9.952 9.88 9.952zM6.02 92.755c.59-.45.99-1.132 1.216-2.002l.023-.07-1.193-.299-.024.07c-.14.644-.412 1.133-.804 1.466-.4.322-.887.49-1.466.49-.475 0-.91-.117-1.322-.356-.4-.24-.696-.608-.887-1.098-.202-.49-.295-1.073-.295-1.728 0-.513.081-1.01.249-1.488.167-.479.447-.859.84-1.145.4-.274.91-.415 1.5-.415.521 0 .945.117 1.287.38.342.25.603.654.782 1.215l.023.058 1.182-.274-.023-.07c-.226-.737-.614-1.32-1.17-1.74-.557-.404-1.24-.607-2.057-.607-.708 0-1.373.156-1.976.478a3.445 3.445 0 00-1.384 1.43c-.319.619-.486 1.356-.486 2.178 0 .76.14 1.49.424 2.144.284.666.708 1.19 1.264 1.536.544.356 1.263.537 2.138.537s1.56-.24 2.15-.69h.008zM18.224 91.478c.33-.631.498-1.372.498-2.179 0-.807-.168-1.513-.475-2.143a3.565 3.565 0 00-1.384-1.49 3.935 3.935 0 00-2.033-.536c-1.147 0-2.092.38-2.812 1.132-.719.749-1.088 1.81-1.088 3.131 0 .701.155 1.371.474 2.002.307.631.77 1.133 1.369 1.501.598.368 1.287.549 2.045.549.708 0 1.369-.169 1.971-.502.615-.321 1.089-.823 1.431-1.465h.004zm-3.402.928a2.545 2.545 0 01-1.901-.8c-.498-.536-.755-1.273-.755-2.201 0-1.156.272-2.002.793-2.488a2.667 2.667 0 011.878-.737c.521 0 .98.13 1.396.38.4.25.72.62.933 1.085.214.467.32 1.023.32 1.654 0 .987-.25 1.763-.743 2.296-.498.537-1.147.811-1.913.811h-.008zM30.62 85.408h-1.147v8.037h1.147v-8.037zM27.253 93.445l1.796-5.11V85.48l-1.901 5.466c-.156.439-.273.787-.354 1.058l-.319-.953-1.901-5.642h-.129v2.92l1.762 5.12h1.053l-.007-.003zM24.014 85.408h-1.159v8.037h1.159v-8.037zM40.321 89.514c.447-.477.673-1.057.673-1.751 0-.404-.082-.776-.25-1.109-.178-.333-.388-.607-.672-.787a2.338 2.338 0 00-1.003-.38c-.284-.06-.696-.083-1.229-.083h-1.466v1.07h1.548c.474 0 .793.023.968.07.26.07.475.216.626.44.167.227.237.49.237.81 0 .428-.128.76-.4 1-.272.239-.743.356-1.408.356h-1.57v1.085h1.559c1.135 0 1.948-.25 2.387-.724v.004zM35.95 85.408h-1.193v8.037h1.194v-8.037zM49.478 85.408h-1.229l-3.118 8.037h1.264l.353-.94h-.011l.898-2.442.19-.502.661-1.775h.012c.14-.391.26-.799.354-1.19.117.38.284.846.486 1.367l.805 2.096h-2.045l-.366.988h2.788l.933 2.394h1.357l-3.332-8.037v.004zM62.072 91.407v2.038h1.182v-8.037h-1.155v6.034l-.027-.035zM57.938 85.408h-1.112v8.037h1.112v-8.037zM61.648 90.776l-3.286-4.847v2.05l3.286 4.858v-2.06zM73.58 85.408l-1.57 2.359c-.307.466-.58.905-.817 1.285v-.012l-.66 1.011v3.394h1.205V90.05l3.25-4.643h-1.407zM70.45 87.822l-1.594-2.414h-1.465l2.885 4.26.672-1.047-.497-.8zM1.272 99.972v-2.519h.789v-.396H.039v.396h.793v2.52h.44zM5.257 97.057l-1.05 2.915h.463l.221-.65h1.097l.225.65h.463l-1.05-2.915h-.369zm-.237 1.87l.42-1.274h.007l.42 1.273H5.02zM9.833 97.688a.577.577 0 01.183-.149.612.612 0 01.264-.062c.14 0 .26.043.358.121.093.082.16.184.194.302h.463a1.106 1.106 0 00-.334-.615c-.175-.165-.405-.247-.68-.251a.965.965 0 00-.568.164.984.984 0 00-.339.36.8.8 0 00-.097.28c-.02.113-.03.34-.03.677s.01.556.03.674c.012.063.024.114.04.157a.976.976 0 00.397.482c.15.105.34.16.566.168a1.021 1.021 0 001.03-1.034v-.596h-1.026v.42h.591v.152c0 .184-.058.33-.17.443a.56.56 0 01-.425.176.51.51 0 01-.264-.066.567.567 0 01-.183-.145.483.483 0 01-.113-.247 3.633 3.633 0 01-.03-.58c0-.286.011-.482.03-.584a.486.486 0 01.113-.243v-.004zM14.262 97.057v2.915h1.847v-.415h-1.407v-2.5h-.44zM19.398 97.057h-.439v2.915h.44v-2.915zM22.882 97.904h.008l1.306 2.069h.416v-2.916h-.439v2.073h-.008l-1.31-2.073h-.412v2.915h.44v-2.068zM29.508 97.477v-.42h-1.847v2.915h1.847v-.415h-1.407V98.7h1.201v-.392h-1.201v-.83h1.407zM35.737 99.346a.977.977 0 00.397.482c.151.105.342.16.567.168a1.021 1.021 0 001.03-1.034v-.596h-1.026v.42h.591v.152a.6.6 0 01-.17.443.561.561 0 01-.425.176.51.51 0 01-.264-.067.568.568 0 01-.183-.144.484.484 0 01-.113-.247 3.623 3.623 0 01-.03-.58c0-.286.01-.482.03-.584a.52.52 0 01.113-.243.578.578 0 01.183-.149.612.612 0 01.264-.063c.14 0 .26.043.358.122.093.082.16.184.194.302h.463a1.106 1.106 0 00-.334-.616c-.175-.164-.405-.246-.68-.25a.965.965 0 00-.568.164.985.985 0 00-.339.36.798.798 0 00-.097.279c-.02.114-.031.34-.031.678 0 .337.012.556.031.674.012.062.023.113.039.156v-.004zM40.651 99.346a.977.977 0 00.397.482c.152.105.342.16.568.168.23-.004.42-.063.575-.168a.954.954 0 00.33-.357.668.668 0 00.102-.282 5.92 5.92 0 00.027-.674c0-.333-.008-.564-.027-.678a.67.67 0 00-.101-.278.99.99 0 00-.33-.36 1.02 1.02 0 00-.576-.165.974.974 0 00-.568.164.985.985 0 00-.338.36.802.802 0 00-.097.28c-.02.113-.032.34-.032.677s.012.556.032.674c.011.063.023.114.038.157zm.405-1.419a.484.484 0 01.113-.243.575.575 0 01.182-.149.612.612 0 01.537 0c.074.04.132.09.175.15a.49.49 0 01.117.242c.019.106.03.298.03.584s-.007.482-.03.58a.487.487 0 01-.117.247.46.46 0 01-.175.145.55.55 0 01-.272.066.51.51 0 01-.265-.066.567.567 0 01-.182-.145.483.483 0 01-.113-.247 3.636 3.636 0 01-.031-.58c0-.286.011-.482.03-.584zM47.444 97.477v-.42h-1.847v2.915h1.847v-.415h-1.408V98.7h1.202v-.392h-1.202v-.83h1.408zM51.15 99.557c-.32 0-.591-.098-.82-.29l-.288.333c.307.267.676.4 1.104.4.66-.008.999-.29 1.015-.846a.852.852 0 00-.19-.545c-.13-.157-.331-.255-.604-.294a4.606 4.606 0 01-.326-.047c-.144-.027-.245-.074-.311-.145a.316.316 0 01-.097-.227c0-.141.05-.247.143-.317a.552.552 0 01.339-.102c.26.004.497.078.715.223l.245-.365a1.622 1.622 0 00-.937-.301c-.3 0-.529.082-.692.235a.804.804 0 00-.253.615c0 .212.066.392.202.54.129.146.32.236.568.279.14.02.268.04.381.055.253.043.381.176.377.392-.004.266-.194.4-.571.407zM60.493 99.972v-2.915h-.44v1.25h-1.142v-1.25h-.44v2.915h.44V98.7h1.143v1.273h.44zM65.388 97.477v-.42h-1.847v2.915h1.847v-.415h-1.407V98.7h1.201v-.392h-1.201v-.83h1.407zM70.245 97.872c-.008-.27-.105-.478-.288-.623-.152-.13-.35-.192-.591-.192h-1.128v2.915h.44v-1.245h.56l.598 1.245h.521l-.668-1.293c.369-.14.556-.411.56-.807h-.004zm-.537.322c-.082.094-.206.14-.37.145h-.66v-.882h.688c.14 0 .249.031.323.09.093.067.144.176.144.33a.452.452 0 01-.121.32l-.004-.003zM75 97.477v-.42h-1.847v2.915H75v-.415h-1.407V98.7h1.201v-.392h-1.201v-.83H75z"/></g></svg><svg fill="none" viewBox="0 0 88 100" id="mn-05" xmlns="http://www.w3.org/2000/svg"><g fill="#fff"><path d="M75.117 7.74C70.145 2.75 63.532 0 56.5 0c-7.033 0-13.646 2.747-18.617 7.74-3.887 3.9-6.408 8.805-7.325 14.132-.091.539-.17 1.078-.229 1.626a26.99 26.99 0 00-.163 2.923V52.845H52.922c.029-.439.041-.886.041-1.334v-3.55H35.037V26.43c0-.447.013-.89.042-1.334.033-.543.087-1.079.158-1.614a21.532 21.532 0 016.087-12.276c3.888-3.9 9.25-6.313 15.172-6.317 11.833 0 21.462 9.662 21.462 21.537a21.512 21.512 0 01-6.296 15.223 21.422 21.422 0 01-10.625 5.829v4.039c0 .317-.004.635-.016.945 5.308-.92 10.2-3.45 14.087-7.35 4.975-4.993 7.713-11.628 7.713-18.682 0-7.054-2.738-13.693-7.713-18.681l.008-.009z"/><path d="M35.038 29.97h17.925v21.537c0 .448-.017.89-.042 1.334a20.522 20.522 0 01-.158 1.614A21.551 21.551 0 0146.67 66.73c-3.888 3.9-9.25 6.313-15.17 6.317-11.834 0-21.463-9.662-21.463-21.537a21.512 21.512 0 016.295-15.223 21.44 21.44 0 0110.625-5.829v-4.038c0-.318.005-.636.017-.95-5.308.916-10.2 3.45-14.092 7.35-4.975 4.993-7.712 11.624-7.712 18.682 0 7.058 2.737 13.693 7.712 18.681 4.975 4.993 11.588 7.74 18.617 7.74 7.03 0 13.646-2.747 18.617-7.74 4.666-4.683 7.366-10.812 7.679-17.38l.025-.632c0-.113.004-.23.004-.343V25.083h-22.75c-.03.439-.042.886-.042 1.333v3.55l.005.004zM5.646 90.868a2.397 2.397 0 01-1.63.636 2.401 2.401 0 01-2.407-2.408 2.404 2.404 0 012.408-2.409c.625 0 1.204.243 1.629.648l1.13-1.145a3.977 3.977 0 00-2.76-1.112c-2.207 0-4.003 1.802-4.003 4.018a4.015 4.015 0 004.004 4.018A3.97 3.97 0 006.775 92l-1.129-1.133zM21.342 89.1c0-2.216-1.796-4.018-4.005-4.018a4.019 4.019 0 000 8.036 4.012 4.012 0 004.005-4.018zm-4.005 2.416A2.411 2.411 0 0114.93 89.1a2.405 2.405 0 114.808 0c0 1.325-1.079 2.416-2.4 2.416zM36.554 93.118v-8.04h-1.725l-2.337 5.878-2.346-5.879h-1.721v8.04h1.596V89.1l1.604 4.018h1.725l1.604-4.018v4.018h1.6zM45.875 85.078h-2.242v8.04h1.596v-3.215h.654c1.321 0 2.388-1.083 2.388-2.409a2.41 2.41 0 00-2.4-2.416h.004zm0 3.215h-.646V86.69h.646c.446 0 .804.36.804.807a.793.793 0 01-.804.795zM58.896 85.078h-1.7l-2.896 8.04H56l.812-2.25h2.463l.812 2.25h1.7l-2.895-8.04h.004zm-1.5 4.18l.645-1.814.655 1.815h-1.3zM73.738 90.446l-3.205-5.368h-1.87v8.04h1.595v-5.356l3.213 5.356h1.862v-8.04h-1.595v5.368zM85.892 93.118v-3.83l2.091-4.21H86.2l-1.1 2.228-1.113-2.228h-1.783l2.092 4.21v3.83h1.596zM0 97.023h.93v2.948h.516v-2.948h.929v-.46H0v.46zM6.125 96.563l-1.233 3.408h.545l.263-.761h1.287l.263.76h.542l-1.234-3.407h-.433zm-.28 2.187l.492-1.489h.009l.491 1.489h-.991zM11.5 97.299a.631.631 0 01.213-.176.664.664 0 01.312-.07c.162 0 .304.05.42.141a.76.76 0 01.23.352h.546a1.293 1.293 0 00-.392-.72c-.208-.192-.475-.288-.8-.292-.267 0-.492.067-.666.192a1.148 1.148 0 00-.396.422.993.993 0 00-.113.327c-.025.133-.033.397-.033.794s.012.652.033.79c.013.076.03.134.046.184a1.097 1.097 0 00.463.56c.179.126.4.189.666.197.346-.008.633-.126.863-.351a1.22 1.22 0 00.35-.857v-.694h-1.205v.489h.692v.175a.7.7 0 01-.2.515.65.65 0 01-.496.204.618.618 0 01-.312-.075.576.576 0 01-.213-.171.562.562 0 01-.133-.289c-.025-.117-.037-.343-.037-.681 0-.339.012-.565.037-.686a.564.564 0 01.133-.284l-.008.004zM16.696 96.563v3.408h2.17v-.49h-1.654v-2.918h-.516zM22.725 96.563h-.513v3.408h.513v-3.408zM28.333 98.984h-.012l-1.534-2.42H26.3v3.407h.517V97.55h.008l1.533 2.42h.488v-3.407h-.513v2.421zM34.592 97.052v-.489h-2.167v3.408h2.167v-.49h-1.655v-.999h1.413v-.46h-1.413v-.97h1.655zM42.37 96.726a1.146 1.146 0 00-.395.422.992.992 0 00-.113.327c-.025.133-.033.397-.033.794s.013.652.033.79c.013.075.03.134.046.184.021.046.042.096.067.146.083.16.212.297.396.414.179.126.4.189.666.197.346-.008.634-.126.863-.351a1.22 1.22 0 00.35-.858v-.694h-1.204v.49h.691v.175a.7.7 0 01-.2.514.65.65 0 01-.495.205.619.619 0 01-.313-.075.578.578 0 01-.212-.171.562.562 0 01-.134-.289c-.025-.117-.037-.343-.037-.681 0-.339.012-.565.037-.686a.564.564 0 01.134-.284.632.632 0 01.212-.176.663.663 0 01.313-.071c.162 0 .304.05.42.142a.76.76 0 01.23.351h.545a1.293 1.293 0 00-.391-.719c-.209-.192-.475-.288-.8-.293-.267 0-.492.067-.667.193l-.008.004zM47.746 97.148a.993.993 0 00-.113.327c-.025.133-.033.397-.033.794s.013.652.033.79c.013.076.03.134.046.184.021.046.042.096.067.147.083.158.212.296.396.413.179.126.4.189.666.197.271-.008.496-.071.675-.197.18-.12.309-.259.388-.413a.827.827 0 00.12-.33c.022-.139.03-.402.03-.791s-.008-.66-.03-.794a.773.773 0 00-.12-.327 1.152 1.152 0 00-.388-.422c-.179-.125-.404-.188-.675-.192-.266 0-.491.067-.666.192a1.148 1.148 0 00-.396.422zm.404.435a.565.565 0 01.133-.284.632.632 0 01.213-.176.665.665 0 01.312-.07c.121 0 .23.029.321.07a.6.6 0 01.204.176.586.586 0 01.138.284c.025.121.033.352.033.686 0 .334-.012.56-.033.681a.621.621 0 01-.138.289.65.65 0 01-.525.247.607.607 0 01-.312-.076.576.576 0 01-.213-.171.563.563 0 01-.133-.288c-.025-.118-.037-.343-.037-.682s.012-.565.037-.686zM53.483 99.97h2.167v-.488h-1.654v-1h1.412v-.46h-1.412v-.97h1.654v-.489h-2.167v3.408zM60 99.482a1.47 1.47 0 01-.962-.34l-.338.39c.363.313.796.468 1.296.468.78-.008 1.175-.339 1.192-.99a.971.971 0 00-.225-.636c-.154-.184-.388-.301-.705-.343a9.453 9.453 0 01-.383-.055.668.668 0 01-.367-.167.378.378 0 01-.112-.267c0-.163.058-.289.17-.368a.636.636 0 01.397-.118c.304.005.587.093.841.264l.288-.426a1.896 1.896 0 00-1.1-.352c-.35 0-.621.096-.813.276a.941.941 0 00-.296.72c0 .246.08.46.234.63.154.168.375.277.666.327.163.025.313.046.45.063.3.05.446.204.442.46-.004.309-.229.468-.67.472L60 99.482zM68.596 99.97h.516v-1.488h1.342v1.489h.517v-3.408h-.517v1.46h-1.342v-1.46h-.516v3.408zM76.717 97.052v-.489h-2.171v3.408h2.17v-.49h-1.653v-.999h1.412v-.46h-1.412v-.97h1.654zM82.417 97.512c-.009-.313-.121-.556-.338-.727-.179-.15-.408-.226-.691-.226h-1.326v3.408h.513v-1.455h.658l.7 1.455h.613l-.788-1.514c.434-.167.65-.48.659-.945v.004zm-1.838.544v-1.033h.804c.167 0 .292.034.38.105.108.08.166.209.17.384a.519.519 0 01-.141.373c-.096.108-.242.167-.434.167h-.779v.004zM85.83 99.97H88v-.488h-1.654v-1h1.408v-.46h-1.408v-.97H88v-.489h-2.17v3.408z"/></g></svg><svg fill="none" viewBox="0 0 97 100" id="mn-06" xmlns="http://www.w3.org/2000/svg"><g clip-path="url(#rclip0_51_1426)" fill="#fff"><path d="M27.608 20.815H2.926l29.42 32.458h24.681l-29.42-32.458zm-17.44 3.212H26.19l23.596 26.034h-16.02L10.168 24.027zM52.444 0L27.608 19.565H2.926l5.435-4.28A71.24 71.24 0 0152.443 0zM64.654 20.702H39.973l29.419 32.457h24.682l-29.42-32.457zm-17.439 3.212h16.017l23.6 26.033H70.81L47.215 23.914zM94.074 54.41l-5.435 4.28a71.257 71.257 0 01-44.082 15.285L69.392 54.41h24.682zM6.225 89.954a2.66 2.66 0 01-1.795.702 2.65 2.65 0 01-2.659-2.651 2.647 2.647 0 012.659-2.652c.689 0 1.329.268 1.795.71l1.248-1.258a4.38 4.38 0 00-3.04-1.227 4.427 4.427 0 000 8.853 4.38 4.38 0 003.04-1.227l-1.248-1.25zM19.109 83.578a4.427 4.427 0 000 8.853 4.427 4.427 0 000-8.853zm0 7.086a2.66 2.66 0 01-2.659-2.66 2.65 2.65 0 012.659-2.651 2.645 2.645 0 012.646 2.652 2.66 2.66 0 01-2.646 2.66zM35.819 90.047l-2.586-6.469h-1.9v8.853h1.758v-4.426l1.771 4.426h1.901l1.771-4.426v4.426h1.76v-8.853h-1.901l-2.574 6.47zM50.567 83.578h-2.472v8.849h1.759V88.89h.721a2.645 2.645 0 002.634-2.652 2.652 2.652 0 00-2.646-2.66h.004zm0 3.537h-.71v-1.762h.71c.49 0 .883.398.883.89a.877.877 0 01-.883.876v-.004zM63.046 83.578l-3.194 8.849h1.877l.895-2.473h2.716l.895 2.473h1.877l-3.194-8.849h-1.876.004zm.223 4.601l.709-1.998.721 1.998h-1.434.004zM83.038 83.578h-1.76v5.909l-3.53-5.909h-2.062v8.853h1.759v-5.896l3.542 5.896h2.05v-8.853zM94.678 92.43v-4.214l2.306-4.638h-1.966l-1.212 2.453-1.224-2.453h-1.97l2.307 4.638v4.215h1.759zM0 96.727h1.025v3.24h.568v-3.24h1.025v-.508H0v.508zM6.752 96.22L5.39 99.968h.6l.288-.837h1.418l.292.837h.6l-1.362-3.749h-.474zm-.308 2.407l.543-1.636h.012l.543 1.636H6.444zM13.26 98.44h.763v.196a.782.782 0 01-.22.568.727.727 0 01-.546.228.667.667 0 01-.345-.086.676.676 0 01-.235-.187.637.637 0 01-.146-.316c-.028-.13-.04-.382-.04-.748 0-.365.012-.62.04-.755a.64.64 0 01.146-.312.686.686 0 01.235-.191.813.813 0 01.345-.082c.182 0 .336.057.462.159a.811.811 0 01.25.386h.6a1.416 1.416 0 00-.429-.788c-.227-.211-.523-.317-.883-.321-.296 0-.54.073-.738.211a1.311 1.311 0 00-.438.463 1.05 1.05 0 00-.125.358c-.025.146-.041.438-.041.873 0 .434.012.718.04.868a.924.924 0 00.053.2c.02.052.049.105.073.162.09.175.235.325.438.459.198.138.442.211.738.215.38-.008.697-.138.948-.39s.377-.568.385-.942v-.763h-1.33v.536zM18.975 96.22h-.567v3.748h2.387v-.537h-1.82V96.22zM25.05 96.22h-.567v3.748h.567v-3.749zM31.23 98.883h-.011l-1.694-2.663h-.531v3.748h.567v-2.664h.008l1.694 2.664h.535v-3.749h-.567v2.664zM35.742 99.968h2.39v-.537H36.31v-1.1h1.556v-.504H36.31v-1.072h1.824v-.535h-2.391v3.748zM47.446 98.44h.762v.196a.782.782 0 01-.219.568.72.72 0 01-.547.228.666.666 0 01-.344-.086.64.64 0 01-.236-.187.638.638 0 01-.145-.316c-.029-.13-.04-.382-.04-.748 0-.365.011-.62.04-.755a.64.64 0 01.145-.312.685.685 0 01.236-.191.812.812 0 01.344-.082c.182 0 .336.057.462.159a.811.811 0 01.251.386h.6a1.417 1.417 0 00-.43-.788c-.226-.211-.522-.317-.883-.321-.296 0-.539.073-.737.211a1.311 1.311 0 00-.438.463 1.05 1.05 0 00-.126.358c-.024.146-.04.438-.04.873 0 .434.012.718.04.868a.93.93 0 00.053.2c.02.052.048.105.073.162.089.175.235.325.438.459.198.138.441.211.737.215.381-.008.697-.138.948-.39.252-.252.377-.568.385-.942v-.763h-1.329v.536zM54.972 96.861a1.27 1.27 0 00-.425-.463c-.199-.138-.446-.207-.746-.211-.296 0-.54.073-.738.211a1.312 1.312 0 00-.437.463 1.05 1.05 0 00-.126.357c-.024.147-.04.439-.04.873 0 .435.012.72.04.87a.93.93 0 00.053.198c.02.053.048.106.073.163.089.174.235.325.437.459.199.138.442.21.738.215.296-.008.547-.077.746-.215.194-.134.34-.285.425-.46a.84.84 0 00.13-.36c.02-.15.032-.443.032-.87 0-.426-.012-.726-.032-.873a.901.901 0 00-.13-.357zm-.441 1.982a.679.679 0 01-.15.316.647.647 0 01-.227.187.688.688 0 01-.353.086.657.657 0 01-.345-.086.678.678 0 01-.235-.187.639.639 0 01-.145-.316c-.029-.13-.041-.382-.041-.747 0-.366.012-.622.04-.756a.641.641 0 01.146-.312.687.687 0 01.236-.191.813.813 0 01.344-.082.702.702 0 01.58.272.628.628 0 01.15.313c.024.134.036.386.036.756s-.012.617-.036.747zM58.952 99.968h2.391v-.537H59.52v-1.1h1.557v-.504H59.52v-1.072h1.823v-.535h-2.39v3.748zM66.421 97.832c-.178-.02-.32-.041-.421-.061-.187-.033-.32-.098-.401-.187a.414.414 0 01-.126-.293c0-.178.065-.316.186-.406a.7.7 0 01.438-.13c.337.009.645.102.928.289l.316-.467a2.127 2.127 0 00-1.215-.39c-.386 0-.685.106-.896.305-.219.198-.324.462-.324.791 0 .272.085.504.259.695.166.187.413.304.734.357l.494.07c.328.056.49.222.486.503-.008.34-.25.515-.737.524-.41 0-.766-.126-1.062-.374l-.373.426c.397.341.875.516 1.43.516.86-.012 1.298-.374 1.314-1.092 0-.264-.081-.5-.247-.699-.167-.203-.426-.329-.779-.377h-.004zM77.664 97.828h-1.483v-1.609h-.568v3.749h.568V98.33h1.483v1.637h.567v-3.749h-.567v1.609zM82.175 99.968h2.387v-.537h-1.82v-1.1h1.556v-.504h-1.556v-1.072h1.82v-.535h-2.387v3.748zM90.848 97.267c-.012-.345-.134-.613-.373-.8-.199-.166-.45-.248-.762-.248h-1.46v3.749h.568v-1.604h.726l.774 1.604h.677l-.868-1.665c.475-.183.718-.528.726-1.04l-.008.004zm-2.027.597v-1.137h.888c.182 0 .32.04.417.118.122.09.183.227.187.422 0 .163-.053.3-.158.41-.106.122-.264.183-.479.187h-.859.004zM94.609 99.968H97v-.537h-1.824v-1.1h1.557v-.504h-1.557v-1.072H97v-.535h-2.391v3.748z"/></g><defs><clipPath id="rclip0_51_1426"><path fill="#fff" d="M0 0h97v100H0z"/></clipPath></defs></svg><svg fill="none" viewBox="0 0 16 16" id="section-icon" xmlns="http://www.w3.org/2000/svg"><circle cx="8" cy="8" r="8" fill="#2F3074"/><circle cx="8" cy="8" r="5" fill="#FF5E3B"/></svg><svg fill="none" viewBox="0 0 16 16" id="section-icon2" xmlns="http://www.w3.org/2000/svg"><circle cx="8" cy="8" r="8" fill="#fff"/><circle cx="8" cy="8" r="5" fill="#FF5E3B"/></svg><svg fill="none" viewBox="0 0 40 40" id="slider-arrow-left" xmlns="http://www.w3.org/2000/svg"><g clip-path="url(#uclip0_51_1227)"><rect width="40" height="40" rx="5" transform="matrix(0 -1 -1 0 40 40)" fill="#FF5E3B"/><path d="M23.334 25.081l-5.151-5.162 5.15-5.162-1.585-1.586L15 19.92l6.748 6.748 1.585-1.586z" fill="#fff"/></g><defs><clipPath id="uclip0_51_1227"><rect width="40" height="40" rx="5" transform="matrix(0 -1 -1 0 40 40)" fill="#fff"/></clipPath></defs></svg><svg fill="none" viewBox="0 0 40 40" id="slider-arrow-right" xmlns="http://www.w3.org/2000/svg"><g clip-path="url(#vclip0_51_1224)"><rect y="40" width="40" height="40" rx="5" transform="rotate(-90 0 40)" fill="#FF5E3B"/><path d="M16.666 25.081l5.151-5.162-5.15-5.162 1.585-1.586L25 19.92l-6.748 6.748-1.585-1.586z" fill="#fff"/></g><defs><clipPath id="vclip0_51_1224"><rect y="40" width="40" height="40" rx="5" transform="rotate(-90 0 40)" fill="#fff"/></clipPath></defs></svg></svg>