<svg width="18" height="18" xmlns="http://www.w3.org/2000/svg"><g clip-path="url(#clip0_228_984)"><path d="M9.001 9.347a4.686 4.686 0 004.674-4.674A4.686 4.686 0 009 0a4.686 4.686 0 00-4.673 4.673A4.686 4.686 0 009 9.347zm8.02 3.735a4.358 4.358 0 00-.469-.857c-.939-1.388-2.387-2.307-4.02-2.531a.86.86 0 00-.592.143 4.916 4.916 0 01-2.939.959 4.916 4.916 0 01-2.939-.96.766.766 0 00-.591-.142 5.767 5.767 0 00-4.02 2.53 5.022 5.022 0 00-.47.858.434.434 0 00.02.387c.163.286.368.572.551.817.286.388.592.734.939 1.061.286.286.612.551.939.816A9.246 9.246 0 008.98 18c2 0 3.94-.633 5.552-1.837.326-.245.653-.53.939-.816.326-.327.653-.673.938-1.061.204-.266.388-.53.551-.817.102-.122.123-.265.062-.387z"/></g><defs><clipPath id="clip0_228_984"><path fill="#fff" d="M0 0h18v18H0z"/></clipPath></defs></svg>347 1.0012 13.4694C1.16448 13.7551 1.36855 14.0409 1.55222 14.2857C1.83792 14.6735 2.14405 15.0204 2.49101 15.347C2.77671 15.6327 3.10323 15.898 3.4298 16.1633C5.04202 17.3674 6.98081 18 8.98081 18C10.9808 18 12.9196 17.3673 14.5318 16.1633C14.8583 15.9184 15.1849 15.6327 15.4706 15.347C15.7971 15.0204 16.1237 14.6735 16.4094 14.2857C16.6135 14.0204 16.7972 13.7551 16.9604 13.4694C17.0624 13.347 17.0828 13.2041 17.0216 13.0816Z" />
</g>
</g>
<defs>
<clipPath id="clip0_228_984">
<rect width="18" height="18" fill="white"/>
</clipPath>
</defs>
</svg>
