<svg width="22" height="22" fill="none" xmlns="http://www.w3.org/2000/svg"><g clip-path="url(#clip0_255_2899)"><path d="M11 .615a6.931 6.931 0 00-6.923 6.923c0 1.146.287 2.283.831 3.29l5.714 10.333a.432.432 0 00.757 0l5.715-10.336a6.936 6.936 0 00.83-3.287A6.931 6.931 0 0011 .615zM11 11a3.466 3.466 0 01-3.46-3.462A3.465 3.465 0 0111 4.077a3.466 3.466 0 013.462 3.461A3.466 3.466 0 0111 11z" fill="#FF5E3B"/></g><defs><clipPath id="clip0_255_2899"><path fill="#fff" transform="translate(.615 .615)" d="M0 0h20.769v20.769H0z"/></clipPath></defs></svg>9.09158 10.9999 7.53871 9.44699 7.53871 7.53833C7.53871 5.62967 9.09158 4.0768 11.0002 4.0768C12.9089 4.0768 14.4618 5.62967 14.4618 7.53833C14.4618 9.44699 12.9089 10.9999 11.0002 10.9999Z" fill="#FF5E3B"/>
</g>
</g>
<defs>
<clipPath id="clip0_255_2899">
<rect width="20.7692" height="20.7692" fill="white" transform="translate(0.615234 0.615234)"/>
</clipPath>
</defs>
</svg>
