<svg width="20" height="20" viewBox="0 0 20 20" fill="none" xmlns="http://www.w3.org/2000/svg">
<g id="svg-gobbler (9) 1" clip-path="url(#clip0_255_2894)">
<g id="Group">
<path id="Vector" d="M19.1658 14.5342L16.4606 11.829C15.4945 10.8629 13.852 11.2494 13.4656 12.5053C13.1757 13.3749 12.2096 13.858 11.3401 13.6647C9.40779 13.1816 6.79923 10.6697 6.31616 8.64078C6.02632 7.77122 6.606 6.80509 7.47552 6.51529C8.7315 6.12883 9.11795 4.4864 8.15182 3.52026L5.44663 0.815083C4.67373 0.138788 3.51436 0.138788 2.83807 0.815083L1.00241 2.65074C-0.83325 4.58301 1.19564 9.70353 5.73648 14.2444C10.2773 18.7852 15.3978 20.9107 17.3301 18.9784L19.1658 17.1428C19.8421 16.3699 19.8421 15.2105 19.1658 14.5342Z" fill="#FF5E3B"/>
</g>
</g>
<defs>
<clipPath id="clip0_255_2894">
<rect width="19.3846" height="19.3846" fill="white" transform="translate(0.308594 0.307861)"/>
</clipPath>
</defs>
</svg>
