<svg width="10" height="11" fill="none" xmlns="http://www.w3.org/2000/svg"><path d="M1.645 2.682c-.135.178-.23.21-.23.06V2.47A.707.707 0 000 2.47v2.424a.707.707 0 00.707.707h2.424a.707.707 0 000-1.414H2.87c-.144 0-.185-.165-.063-.352a3.046 3.046 0 012.54-1.372A3.04 3.04 0 018.384 5.5a3.04 3.04 0 01-3.037 3.037.808.808 0 000 1.616A4.658 4.658 0 0010 5.5 4.659 4.659 0 005.347.847a4.666 4.666 0 00-3.702 1.835z" fill="#FF5E3B"/></svg>8C0.350708 1.85202 0.272759 1.9041 0.2071 1.96976C0.141441 2.03542 0.089358 2.11337 0.0538236 2.19915C0.0182893 2.28494 -1.38366e-09 2.37689 0 2.46974L0 4.89403C0 5.08156 0.0744962 5.26142 0.2071 5.39402C0.339705 5.52662 0.519554 5.60112 0.707085 5.60112H3.13138C3.31891 5.60112 3.49876 5.52662 3.63136 5.39402C3.76397 5.26142 3.83846 5.08156 3.83846 4.89403C3.83846 4.7065 3.76397 4.52665 3.63136 4.39405C3.49876 4.26145 3.31891 4.18695 3.13138 4.18695H2.86996C2.72551 4.18695 2.6849 4.0219 2.80733 3.83543C3.3633 2.98955 4.31645 2.46267 5.34657 2.46267C7.02135 2.46267 8.38381 3.82512 8.38381 5.49991C8.38381 7.17448 7.02135 8.53694 5.34657 8.53694C5.13225 8.53694 4.92671 8.62208 4.77516 8.77362C4.62361 8.92517 4.53848 9.13071 4.53848 9.34503C4.53848 9.55935 4.62361 9.7649 4.77516 9.91644C4.92671 10.068 5.13225 10.1531 5.34657 10.1531C7.91248 10.1533 10 8.06582 10 5.50011C10 2.9342 7.91248 0.84668 5.34657 0.84668C3.87967 0.846478 2.51419 1.54366 1.64508 2.68247Z" fill="#FF5E3B"/>
</svg>
