<svg width="10" height="10" fill="none" xmlns="http://www.w3.org/2000/svg"><g clip-path="url(#clip0_268_2125)"><path d="M10 3.184v-.528c0-.604-.49-1.094-1.094-1.094H1.094A1.096 1.096 0 000 2.657v.528a.098.098 0 00.098.097h9.804A.098.098 0 0010 3.184zm-10 .82v3.34c0 .604.49 1.093 1.094 1.093h7.812c.604 0 1.094-.49 1.094-1.093v-3.34a.098.098 0 00-.098-.098H.098A.098.098 0 000 4.004zm2.5 2.559c0 .172-.14.312-.313.312h-.312a.313.313 0 01-.313-.313V6.25c0-.173.14-.313.313-.313h.313c.172 0 .312.14.312.313v.313z" fill="#fff"/></g><defs><clipPath id="clip0_268_2125"><path fill="#fff" d="M0 0h10v10H0z"/></clipPath></defs></svg>971 3.95317 9.9714 3.93485C9.95308 3.91654 9.92824 3.90625 9.90234 3.90625H0.0976562C0.0717562 3.90625 0.046917 3.91654 0.0286029 3.93485C0.0102888 3.95317 0 3.97801 0 4.00391ZM2.5 6.5625C2.5 6.73508 2.36008 6.875 2.1875 6.875H1.875C1.70242 6.875 1.5625 6.73508 1.5625 6.5625V6.25C1.5625 6.07742 1.70242 5.9375 1.875 5.9375H2.1875C2.36008 5.9375 2.5 6.07742 2.5 6.25V6.5625Z" fill="white"/>
</g>
</g>
<defs>
<clipPath id="clip0_268_2125">
<rect width="10" height="10" fill="white"/>
</clipPath>
</defs>
</svg>
