<svg width="26" height="26" xmlns="http://www.w3.org/2000/svg"><g clip-path="url(#clip0_228_1083)"><path d="M10.93 16.89l1.528 1.527L17.875 13l-5.417-5.417-1.527 1.528 2.795 2.806H3.25v2.166h10.476L10.93 16.89zm9.653-13.64H5.417A2.166 2.166 0 003.25 5.417V9.75h2.167V5.417h15.166v15.166H5.417V16.25H3.25v4.333c0 1.192.964 2.167 2.167 2.167h15.166a2.173 2.173 0 002.167-2.167V5.417a2.173 2.173 0 00-2.167-2.167z"/></g><defs><clipPath id="clip0_228_1083"><path fill="#fff" d="M0 0h26v26H0z"/></clipPath></defs></svg>.225 21.775 3.25 20.5833 3.25Z" />
</g>
<defs>
<clipPath id="clip0_228_1083">
<rect width="26" height="26" fill="white"/>
</clipPath>
</defs>
</svg>
