<svg width="20" height="20" viewBox="0 0 20 20" fill="none" xmlns="http://www.w3.org/2000/svg">
<g id="ShoppingCart1" clip-path="url(#clip0_74_437)">
<path id="icon" fill-rule="evenodd" clip-rule="evenodd" d="M0 1.25008C0 0.789844 0.373096 0.416748 0.833333 0.416748H1.04081C1.95778 0.416748 2.77109 0.913517 3.20628 1.66675H17.2349C18.7615 1.66675 19.9316 3.02301 19.7079 4.53312L18.5351 12.4498C18.3535 13.6756 17.3013 14.5834 16.0621 14.5834H5.62586C4.37285 14.5834 3.31339 13.6558 3.14779 12.4138L1.86683 2.80661C1.81163 2.39261 1.45847 2.08341 1.04081 2.08341H0.833333C0.373096 2.08341 0 1.71032 0 1.25008ZM3.61849 3.33341L4.79984 12.1936C4.85504 12.6076 5.20819 12.9167 5.62586 12.9167H16.0621C16.4751 12.9167 16.8259 12.6141 16.8864 12.2055L18.0592 4.28887C18.1338 3.7855 17.7438 3.33341 17.2349 3.33341H3.61849ZM5.83333 16.6667C5.3731 16.6667 5 17.0398 5 17.5001C5 17.9603 5.3731 18.3334 5.83333 18.3334C6.29357 18.3334 6.66667 17.9603 6.66667 17.5001C6.66667 17.0398 6.29357 16.6667 5.83333 16.6667ZM3.33333 17.5001C3.33333 16.1194 4.45262 15.0001 5.83333 15.0001C7.21405 15.0001 8.33333 16.1194 8.33333 17.5001C8.33333 18.8808 7.21405 20.0001 5.83333 20.0001C4.45262 20.0001 3.33333 18.8808 3.33333 17.5001ZM15 17.5001C15 17.0398 15.3731 16.6667 15.8333 16.6667C16.2936 16.6667 16.6667 17.0398 16.6667 17.5001C16.6667 17.9603 16.2936 18.3334 15.8333 18.3334C15.3731 18.3334 15 17.9603 15 17.5001ZM15.8333 15.0001C14.4526 15.0001 13.3333 16.1194 13.3333 17.5001C13.3333 18.8808 14.4526 20.0001 15.8333 20.0001C17.214 20.0001 18.3333 18.8808 18.3333 17.5001C18.3333 16.1194 17.214 15.0001 15.8333 15.0001Z" fill="white"/>
</g>
<defs>
<clipPath id="clip0_74_437">
<rect width="20" height="20" fill="white"/>
</clipPath>
</defs>
</svg>
