<svg width="160" height="30" viewBox="0 0 160 30" fill="none" xmlns="http://www.w3.org/2000/svg">
<path d="M58.6082 0.755829H59.7412V24.9613C59.7412 27.3256 57.8072 29.2442 55.4238 29.2442H54.2907V5.03877C54.2907 2.67443 56.2248 0.755829 58.6082 0.755829ZM39.9513 0.755829C37.5679 0.755829 35.6338 2.67443 35.6338 5.03877V29.2442H36.7278C39.1112 29.2442 41.0453 27.3256 41.0453 24.9613V17.4031H45.519C47.9024 17.4031 49.8365 15.4845 49.8365 13.1202V12.4031H41.0453V0.755829H39.9513Z" fill="#2F3074"/>
<path d="M115.302 12.655L111.277 11.8992C108.483 11.3953 107.917 9.8062 107.917 8.54651C107.917 6.80233 109.48 4.94186 112.371 4.86434H116.864C119.306 4.86434 121.319 2.8876 121.319 0.445736V0H112.391C106.745 0.0775194 102.33 4.05039 102.33 9.05039C102.33 13.2171 105.299 16.376 110.085 17.2868L114.188 18.0426C116.454 18.469 117.802 19.7674 117.802 21.5116C117.802 23.6628 115.907 25.1163 113.074 25.1163C112.899 25.1163 112.742 25.0969 112.586 25.0775L112.313 25.0581H107.702C105.26 25.0581 103.248 27.0349 103.248 29.4767V29.9612L112.117 29.9806L113.133 29.9612V29.9806C119.892 29.9031 123.546 25.3682 123.546 21.0853C123.565 16.8217 120.4 13.5853 115.302 12.655Z" fill="#2F3074"/>
<path d="M145.583 29.3605C153.944 29.3605 160 23.3333 160 15.0194C160 6.68604 153.944 0.639526 145.583 0.639526C137.202 0.639526 131.126 6.68604 131.126 15.0194C131.126 23.3333 137.202 29.3605 145.583 29.3605ZM145.583 5.46511C149.978 5.46511 154.725 8.4496 154.725 14.9806C154.725 21.4922 149.978 24.4574 145.583 24.4574C141.167 24.4574 136.401 21.4922 136.401 14.9806C136.401 8.43022 141.167 5.46511 145.583 5.46511Z" fill="#2F3074"/>
<path d="M27.917 14.4961H30.1441C29.8901 6.10465 23.5604 0 15.1013 0C6.34921 0 0 6.31783 0 15.0194C0 23.6822 6.34921 29.9806 15.0818 30H25.5922V28.876C25.5922 26.4535 23.5995 24.4574 21.138 24.4574H15.0818C10.6667 24.438 5.91941 21.4729 5.91941 14.9806C5.91941 8.44961 10.6667 5.46512 15.1013 5.46512C18.149 5.46512 22.232 7.03488 23.6972 11.4729C24.3028 13.2752 26.0024 14.4961 27.917 14.4961Z" fill="#15C6E1"/>
<path d="M73.3577 13.1589V7.88758L86.5445 28.7597H88.1855C90.4321 28.7597 92.2685 26.938 92.2685 24.7093V1.2403H91.3308C89.0842 1.2403 87.2478 3.062 87.2478 5.29068V20.6977L75.1354 1.2403H72.459C70.2124 1.2403 68.376 3.062 68.376 5.29068V17.2093H69.2746C71.5213 17.2093 73.3577 15.3876 73.3577 13.1589Z" fill="#2F3074"/>
<path d="M73.3577 25.0581V18.5853H72.459C70.2124 18.5853 68.376 20.407 68.376 22.6357V28.8178C68.7862 28.8178 69.177 28.8178 69.5872 28.8178C71.6776 28.7984 73.3577 27.1318 73.3577 25.0581Z" fill="#FF5E3B"/>
</svg>
