<svg width="75" height="100" viewBox="0 0 75 100"  xmlns="http://www.w3.org/2000/svg">
<g id="Group">
<path id="Vector" d="M53.6315 23.9703L43.7529 33.9254L47.5691 37.7711L57.4476 27.8161L53.6315 23.9703Z" />
<path id="Vector_2" d="M33.6613 44.0925L23.7827 54.0476L27.5989 57.8933L37.4774 47.9382L33.6613 44.0925Z" />
<path id="Vector_3" d="M47.3561 17.6489L37.4775 27.604L41.2937 31.4497L51.1723 21.4946L47.3561 17.6489Z" />
<path id="Vector_4" d="M27.3893 37.7684L17.5107 47.7235L21.3269 51.5692L31.2055 41.6141L27.3893 37.7684Z" />
<path id="Vector_5" d="M21.3259 23.9702L17.5098 27.8159L27.3883 37.771L31.2045 33.9253L21.3259 23.9702Z" />
<path id="Vector_6" d="M27.6018 17.6478L23.7856 21.4935L33.6642 31.4486L37.4804 27.6029L27.6018 17.6478Z" />
<path id="Vector_7" d="M47.5696 37.7725L43.7534 41.6182L53.632 51.5732L57.4481 47.7275L47.5696 37.7725Z" />
<path id="Vector_8" d="M41.2937 44.095L37.4775 47.9407L47.3561 57.8957L51.1723 54.05L41.2937 44.095Z" />
<path id="Vector_9" d="M51.1728 61.7414L47.3585 57.8936L37.4785 67.8501L27.5985 57.8936L23.7842 61.7414L37.4785 75.5418L51.1728 61.7414Z" />
<path id="Vector_10" d="M17.5087 27.8163L13.6943 23.9685L0 37.7689L13.6943 51.5693L17.5087 47.7254L7.62871 37.7689L17.5087 27.8163Z" />
<path id="Vector_11" d="M61.2631 23.9685L57.4487 27.8163L67.3287 37.7689L57.4487 47.7254L61.2631 51.5693L74.9574 37.7689L61.2631 23.9685Z" />
<path id="Vector_12" d="M47.3585 17.6443L51.1728 13.8004L37.4785 0L23.7842 13.8004L27.5985 17.6443L37.4785 7.6917L47.3585 17.6443Z" />
<path id="Vector_13" d="M6.01914 92.7549C6.61015 92.3043 7.01064 91.6225 7.23616 90.7527L7.25949 90.6821L6.0658 90.3843L6.04247 90.4549C5.9025 91.0975 5.63032 91.5873 5.23761 91.9203C4.83712 92.2416 4.35109 92.4101 3.77175 92.4101C3.29738 92.4101 2.86191 92.2926 2.44975 92.0536C2.04927 91.8145 1.75376 91.4462 1.56324 90.9564C1.36105 90.4666 1.26773 89.8828 1.26773 89.2284C1.26773 88.7151 1.34939 88.2175 1.51658 87.7395C1.68378 87.2614 1.96372 86.8813 2.35643 86.5953C2.75692 86.321 3.26628 86.18 3.85729 86.18C4.37831 86.18 4.80213 86.2975 5.14429 86.56C5.48646 86.8108 5.74697 87.2144 5.92583 87.7747L5.94916 87.8335L7.13117 87.5592L7.10784 87.4887C6.88232 86.752 6.49351 86.1682 5.93749 85.7489C5.38148 85.3454 4.69715 85.1416 3.88062 85.1416C3.17296 85.1416 2.50808 85.2983 1.9054 85.6196C1.31439 85.9527 0.843907 86.4307 0.521185 87.0498C0.20235 87.6689 0.0351562 88.4056 0.0351562 89.2284C0.0351562 89.9886 0.175143 90.7174 0.458983 91.3718C0.742824 92.0379 1.16664 92.5629 1.72266 92.9078C2.26701 93.2643 2.98633 93.4446 3.86118 93.4446C4.73603 93.4446 5.42036 93.2056 6.01137 92.7549H6.01914Z" />
<path id="Vector_14" d="M18.224 91.4776C18.5545 90.8467 18.7217 90.1062 18.7217 89.299C18.7217 88.4918 18.5545 87.7865 18.2473 87.1557C17.9285 86.5248 17.4658 86.0233 16.8631 85.6667C16.2605 85.3101 15.5761 85.1299 14.8296 85.1299C13.6826 85.1299 12.7377 85.51 12.0184 86.2623C11.2991 87.0107 10.9297 88.0726 10.9297 89.393C10.9297 90.0944 11.0852 90.7645 11.4041 91.3953C11.7112 92.0262 12.1739 92.5277 12.7727 92.896C13.3715 93.2644 14.0597 93.4446 14.8179 93.4446C15.5256 93.4446 16.1866 93.2761 16.7892 92.9431C17.4036 92.6218 17.8779 92.1202 18.2201 91.4776H18.224ZM14.8218 92.4062C14.0636 92.4062 13.4259 92.132 12.9205 91.6069C12.4228 91.0701 12.1661 90.3334 12.1661 89.4048C12.1661 88.2489 12.4383 87.4025 12.9593 86.9167C13.4804 86.4269 14.118 86.18 14.8374 86.18C15.3584 86.18 15.8172 86.3093 16.2332 86.5601C16.6337 86.8109 16.9526 87.1792 17.1664 87.6455C17.3803 88.1117 17.4852 88.6681 17.4852 89.299C17.4852 90.2864 17.2364 91.0623 16.7426 91.5951C16.2449 92.132 15.5956 92.4062 14.8296 92.4062H14.8218Z" />
<path id="Vector_15" d="M30.6197 85.4081H29.4727V93.4446H30.6197V85.4081Z" />
<path id="Vector_16" d="M27.2526 93.4446L29.049 88.3351V85.4786L27.1476 90.9447C26.9921 91.3836 26.8754 91.7323 26.7938 92.0027L26.475 91.0505L24.5736 85.4081H24.4453V88.3272L26.2067 93.4485H27.2604L27.2526 93.4446Z" />
<path id="Vector_17" d="M24.0137 85.4081H22.855V93.4446H24.0137V85.4081Z" />
<path id="Vector_18" d="M40.3211 89.5145C40.7682 89.0365 40.9937 88.4566 40.9937 87.763C40.9937 87.3594 40.9121 86.9872 40.7449 86.6541C40.566 86.3211 40.356 86.0468 40.0722 85.8665C39.8 85.6745 39.4579 85.5452 39.069 85.4865C38.7852 85.4277 38.3731 85.4042 37.8404 85.4042H36.3745V86.4739H37.922C38.3964 86.4739 38.7152 86.4974 38.8902 86.5444C39.1507 86.6149 39.3646 86.7599 39.5162 86.9833C39.6834 87.2105 39.7534 87.4731 39.7534 87.7944C39.7534 88.2215 39.6251 88.5545 39.3529 88.7935C39.0807 89.0326 38.6102 89.1501 37.9453 89.1501H36.3745V90.2355H37.9337C39.069 90.2355 39.8817 89.9847 40.3211 89.5106V89.5145Z" />
<path id="Vector_19" d="M35.9505 85.4081H34.7568V93.4446H35.9505V85.4081Z" />
<path id="Vector_20" d="M49.4779 85.4081H48.2492L45.1309 93.4446H46.3945L46.7484 92.5042H46.7367L47.6349 90.0631L47.8254 89.5615L48.4864 87.7865H48.4981C48.638 87.3947 48.7586 86.9872 48.8519 86.5953C48.9685 86.9754 49.1357 87.4417 49.3379 87.9629L50.1428 90.0592H48.0976L47.7321 91.0466H50.5199L51.4531 93.4407H52.8101L49.4779 85.4042V85.4081Z" />
<path id="Vector_21" d="M62.0718 91.4071V93.4446H63.2538V85.4081H62.099V91.4423L62.0718 91.4071Z" />
<path id="Vector_22" d="M57.9382 85.4081H56.8262V93.4446H57.9382V85.4081Z" />
<path id="Vector_23" d="M61.6479 90.7762L58.3623 85.9292V87.9785L61.6479 92.8372V90.7762Z" />
<path id="Vector_24" d="M73.5806 85.4081L72.0097 87.7669C71.7026 88.2332 71.4304 88.6721 71.1932 89.0521V89.0404L70.5322 90.0513V93.4446H71.7376V90.0513L74.9881 85.4081H73.5806Z" />
<path id="Vector_25" d="M70.4507 87.8218L68.8565 85.4081H67.3906L70.2757 89.6673L70.9483 88.6211L70.4507 87.8218Z" />
<path id="Vector_26" d="M1.27164 99.9725V97.453H2.06095V97.0573H0.0390625V97.453H0.832264V99.9725H1.27164Z" />
<path id="Vector_27" d="M5.25686 97.0573L4.20703 99.9725H4.66973L4.89136 99.3221H5.98785L6.21336 99.9725H6.67606L5.62623 97.0573H5.26074H5.25686ZM5.01967 98.9263L5.4396 97.6528H5.44738L5.8673 98.9263H5.02356H5.01967Z" />
<path id="Vector_28" d="M9.83322 97.6882C9.87988 97.6294 9.94209 97.5785 10.016 97.5393C10.0898 97.5001 10.1793 97.4805 10.2804 97.4766C10.4203 97.4766 10.5409 97.5197 10.6381 97.5981C10.7314 97.6803 10.7975 97.7822 10.8325 97.8998H11.2952C11.2485 97.6568 11.1397 97.4531 10.9608 97.2846C10.7858 97.12 10.5564 97.0377 10.2804 97.0338C10.051 97.0338 9.86433 97.0926 9.71269 97.1984C9.55716 97.3042 9.4444 97.4217 9.37441 97.5589C9.33164 97.6294 9.29665 97.7234 9.27721 97.8371C9.25777 97.9507 9.24609 98.178 9.24609 98.5149C9.24609 98.8519 9.25777 99.0714 9.27721 99.1889C9.28887 99.2516 9.30054 99.3025 9.31609 99.3456C9.33164 99.3848 9.35108 99.4279 9.37441 99.471C9.4444 99.6042 9.55716 99.7257 9.71269 99.8276C9.86433 99.9334 10.0548 99.9882 10.2804 99.9961C10.5759 99.9922 10.8208 99.8903 11.0152 99.6944C11.2097 99.4984 11.3069 99.2516 11.3107 98.9616V98.366H10.2843V98.7853H10.8753V98.9381C10.8753 99.1223 10.8169 99.2673 10.7042 99.3809C10.5914 99.4985 10.4514 99.5572 10.2804 99.5572C10.1754 99.5572 10.0898 99.5337 10.016 99.4906C9.94209 99.4514 9.87988 99.4044 9.83322 99.3456C9.7749 99.2829 9.7399 99.2007 9.72046 99.0988C9.70102 98.9969 9.68936 98.8049 9.68936 98.5189C9.68936 98.2328 9.70102 98.0369 9.72046 97.935C9.7399 97.8371 9.7749 97.7548 9.83322 97.6921V97.6882Z" />
<path id="Vector_29" d="M14.2622 97.0573V99.9725H16.1091V99.5572H14.7016V97.0573H14.2622Z" />
<path id="Vector_30" d="M19.3984 97.0573H18.959V99.9725H19.3984V97.0573Z" />
<path id="Vector_31" d="M22.8822 97.9036H22.89L24.1965 99.9725H24.6125V97.0573H24.1731V99.1301H24.1654L22.855 97.0573H22.4429V99.9725H22.8822V97.9036Z" />
<path id="Vector_32" d="M29.508 97.4765V97.0573H27.6611V99.9725H29.508V99.5572H28.1005V98.699H29.302V98.3072H28.1005V97.4765H29.508Z" />
<path id="Vector_33" d="M35.737 99.3455C35.7525 99.3847 35.772 99.4278 35.7953 99.4709C35.8653 99.6041 35.9781 99.7256 36.1336 99.8275C36.2852 99.9333 36.4757 99.9881 36.7013 99.9959C36.9968 99.992 37.2417 99.8901 37.4361 99.6942C37.6305 99.4983 37.7278 99.2515 37.7316 98.9615V98.3659H36.7052V98.7852H37.2962V98.938C37.2962 99.1222 37.2378 99.2671 37.1251 99.3808C37.0123 99.4983 36.8723 99.5571 36.7013 99.5571C36.5963 99.5571 36.5107 99.5336 36.4369 99.4905C36.363 99.4513 36.3008 99.4043 36.2541 99.3455C36.1958 99.2828 36.1608 99.2005 36.1414 99.0986C36.1219 98.9968 36.1103 98.8048 36.1103 98.5187C36.1103 98.2327 36.1219 98.0368 36.1414 97.9349C36.1608 97.8369 36.1997 97.7547 36.2541 97.692C36.3008 97.6332 36.363 97.5823 36.4369 97.5431C36.5107 97.5039 36.6002 97.4843 36.7013 97.4804C36.8412 97.4804 36.9618 97.5235 37.059 97.6018C37.1523 97.6841 37.2184 97.786 37.2534 97.9036H37.7161C37.6694 97.6606 37.5606 97.4569 37.3817 97.2884C37.2067 97.1238 36.9773 97.0415 36.7013 97.0376C36.4719 97.0376 36.2852 97.0964 36.1336 97.2022C35.9781 97.308 35.8653 97.4255 35.7953 97.5627C35.7525 97.6332 35.7175 97.7272 35.6981 97.8409C35.6787 97.9545 35.667 98.1818 35.667 98.5187C35.667 98.8557 35.6787 99.0751 35.6981 99.1927C35.7098 99.2554 35.7214 99.3063 35.737 99.3494V99.3455Z" />
<path id="Vector_34" d="M40.6515 99.3456C40.6671 99.3848 40.6865 99.4279 40.7098 99.471C40.7798 99.6042 40.8926 99.7257 41.0481 99.8276C41.1998 99.9334 41.3903 99.9882 41.6158 99.9961C41.8452 99.9922 42.0357 99.9334 42.1913 99.8276C42.3429 99.7257 42.4518 99.6082 42.5218 99.471C42.5723 99.4005 42.6034 99.3065 42.6229 99.1889C42.6384 99.0714 42.6501 98.848 42.6501 98.5149C42.6501 98.1819 42.6423 97.9507 42.6229 97.8371C42.6034 97.7234 42.5723 97.6294 42.5218 97.5589C42.4557 97.4256 42.3429 97.3042 42.1913 97.1984C42.0396 97.0926 41.8452 97.0377 41.6158 97.0338C41.3903 97.0338 41.1998 97.0926 41.0481 97.1984C40.8926 97.3042 40.7798 97.4217 40.7098 97.5589C40.6671 97.6294 40.6321 97.7234 40.6126 97.8371C40.5932 97.9507 40.5815 98.178 40.5815 98.5149C40.5815 98.8519 40.5932 99.0714 40.6126 99.1889C40.6243 99.2516 40.636 99.3025 40.6515 99.3456ZM41.0559 97.9272C41.0753 97.8292 41.1103 97.747 41.1687 97.6843C41.2153 97.6255 41.2775 97.5745 41.3514 97.5354C41.4253 97.4962 41.5147 97.4766 41.6158 97.4727C41.7208 97.4727 41.8102 97.4962 41.888 97.5354C41.9619 97.5745 42.0202 97.6255 42.063 97.6843C42.1213 97.747 42.1602 97.8292 42.1796 97.9272C42.199 98.033 42.2107 98.225 42.2107 98.511C42.2107 98.7971 42.2029 98.993 42.1796 99.0909C42.1602 99.1928 42.1213 99.2751 42.063 99.3378C42.0202 99.3966 41.9619 99.4475 41.888 99.4828C41.8102 99.5259 41.7208 99.5494 41.6158 99.5494C41.5108 99.5494 41.4253 99.5259 41.3514 99.4828C41.2775 99.4436 41.2153 99.3966 41.1687 99.3378C41.1103 99.2751 41.0753 99.1928 41.0559 99.0909C41.0365 98.9891 41.0248 98.7971 41.0248 98.511C41.0248 98.225 41.0365 98.0291 41.0559 97.9272Z" />
<path id="Vector_35" d="M47.4441 97.4765V97.0573H45.5972V99.9725H47.4441V99.5572H46.0365V98.699H47.238V98.3072H46.0365V97.4765H47.4441Z" />
<path id="Vector_36" d="M51.1497 99.5572C50.8308 99.5572 50.5586 99.4593 50.3292 99.2673L50.0415 99.6003C50.3487 99.8668 50.7181 100 51.1458 100C51.8068 99.9922 52.145 99.71 52.1606 99.1536C52.1606 98.946 52.0945 98.7657 51.9701 98.609C51.8417 98.4523 51.6396 98.3543 51.3674 98.3151C51.2313 98.2994 51.1224 98.2838 51.0408 98.2681C50.8969 98.2407 50.7958 98.1936 50.7297 98.1231C50.6636 98.0565 50.6325 97.9781 50.6325 97.8958C50.6325 97.7548 50.6831 97.649 50.7764 97.5785C50.8658 97.5119 50.9786 97.4766 51.1147 97.4766C51.3752 97.4805 51.6123 97.555 51.8301 97.6999L52.0751 97.3355C51.8107 97.1435 51.4957 97.0417 51.138 97.0338C50.8386 97.0338 50.6092 97.1161 50.4459 97.2689C50.2787 97.4257 50.1931 97.6294 50.1931 97.8841C50.1931 98.0957 50.2592 98.2759 50.3953 98.4248C50.5236 98.5698 50.7142 98.6599 50.963 98.703C51.103 98.7226 51.2313 98.7422 51.3441 98.7579C51.5968 98.801 51.7251 98.9342 51.7212 99.1497C51.7173 99.4162 51.5268 99.5494 51.1497 99.5572Z" />
<path id="Vector_37" d="M60.4931 99.9725V97.0573H60.0537V98.3072H58.9106V97.0573H58.4712V99.9725H58.9106V98.699H60.0537V99.9725H60.4931Z" />
<path id="Vector_38" d="M65.3884 97.4765V97.0573H63.5415V99.9725H65.3884V99.5572H63.9809V98.699H65.1823V98.3072H63.9809V97.4765H65.3884Z" />
<path id="Vector_39" d="M70.2446 97.8723C70.2368 97.6019 70.1396 97.3942 69.9569 97.2493C69.8052 97.1199 69.6069 97.0573 69.3659 97.0573H68.2383V99.9725H68.6777V98.7265H69.2376L69.8363 99.9725H70.3574L69.6886 98.6794C70.058 98.5384 70.2446 98.268 70.2485 97.8723H70.2446ZM69.708 98.1936C69.6264 98.2876 69.5019 98.3346 69.3386 98.3386H68.6777V97.4569H69.3659C69.5058 97.4569 69.6147 97.4883 69.6886 97.547C69.7819 97.6137 69.8325 97.7234 69.8325 97.8762C69.8325 98.0016 69.7936 98.1113 69.7119 98.1975L69.708 98.1936Z" />
<path id="Vector_40" d="M75.0002 97.4765V97.0573H73.1533V99.9725H75.0002V99.5572H73.5927V98.699H74.7942V98.3072H73.5927V97.4765H75.0002Z" />
</g>
</svg>
