<svg width="75" height="100" xmlns="http://www.w3.org/2000/svg"><path d="M53.632 23.97l-9.88 9.955 3.817 3.846 9.879-9.955-3.816-3.846zM33.661 44.093l-9.878 9.955 3.816 3.845 9.878-9.955-3.816-3.846zm13.695-26.444l-9.879 9.955 3.817 3.846 9.878-9.955-3.816-3.846zM27.39 37.768l-9.88 9.956 3.817 3.845 9.878-9.955-3.816-3.846z"/><path d="M21.326 23.97l-3.816 3.846 9.878 9.955 3.816-3.846-9.878-9.955zm6.276-6.322l-3.816 3.846 9.878 9.955 3.816-3.846-9.878-9.955zM47.57 37.773l-3.817 3.845 9.879 9.955 3.816-3.846-9.878-9.954zm-6.276 6.322l-3.816 3.846 9.878 9.955 3.816-3.846-9.878-9.955z"/><path d="M51.173 61.741l-3.815-3.847-9.88 9.956-9.88-9.956-3.814 3.847 13.694 13.8 13.695-13.8zM17.509 27.816l-3.815-3.848L0 37.769 13.694 51.57l3.815-3.844-9.88-9.956 9.88-9.953zm43.754-3.848l-3.814 3.848 9.88 9.953-9.88 9.956 3.814 3.844 13.694-13.8-13.694-13.8zm-13.905-6.324l3.815-3.844L37.478 0 23.784 13.8l3.815 3.844 9.88-9.952 9.88 9.952zM6.02 92.755c.59-.45.99-1.132 1.216-2.002l.023-.07-1.193-.299-.024.07c-.14.644-.412 1.133-.804 1.466-.4.322-.887.49-1.466.49-.475 0-.91-.117-1.322-.356-.4-.24-.696-.608-.887-1.098-.202-.49-.295-1.073-.295-1.728 0-.513.081-1.01.249-1.488.167-.479.447-.859.84-1.145.4-.274.91-.415 1.5-.415.521 0 .945.117 1.287.38.342.25.603.654.782 1.215l.023.058 1.182-.274-.023-.07c-.226-.737-.614-1.32-1.17-1.74-.557-.404-1.24-.607-2.057-.607-.708 0-1.373.156-1.976.478a3.445 3.445 0 00-1.384 1.43c-.319.619-.486 1.356-.486 2.178 0 .76.14 1.49.424 2.144.284.666.708 1.19 1.264 1.536.544.356 1.263.537 2.138.537s1.56-.24 2.15-.69h.008zm12.204-1.277c.33-.631.498-1.372.498-2.179 0-.807-.168-1.513-.475-2.143a3.565 3.565 0 00-1.384-1.49 3.935 3.935 0 00-2.033-.536c-1.147 0-2.092.38-2.812 1.132-.719.749-1.088 1.81-1.088 3.131 0 .701.155 1.371.474 2.002.307.631.77 1.133 1.369 1.501.598.368 1.287.549 2.045.549.708 0 1.369-.169 1.971-.502.615-.321 1.089-.823 1.431-1.465h.004zm-3.402.928a2.545 2.545 0 01-1.901-.8c-.498-.536-.755-1.273-.755-2.201 0-1.156.272-2.002.793-2.488a2.667 2.667 0 011.878-.737c.521 0 .98.13 1.396.38.4.25.72.62.933 1.085.214.467.32 1.023.32 1.654 0 .987-.25 1.763-.743 2.296-.498.537-1.147.811-1.913.811h-.008zm15.798-6.998h-1.147v8.037h1.147v-8.037zm-3.367 8.037l1.796-5.11V85.48l-1.901 5.466c-.156.439-.273.787-.354 1.058l-.319-.953-1.901-5.642h-.129v2.92l1.762 5.12h1.053l-.007-.003zm-3.239-8.037h-1.159v8.037h1.159v-8.037zm16.307 4.106c.447-.477.673-1.057.673-1.751 0-.404-.082-.776-.25-1.109-.178-.333-.388-.607-.672-.787a2.338 2.338 0 00-1.003-.38c-.284-.06-.696-.083-1.229-.083h-1.466v1.07h1.548c.474 0 .793.023.968.07.26.07.475.216.626.44.167.227.237.49.237.81 0 .428-.128.76-.4 1-.272.239-.743.356-1.408.356h-1.57v1.085h1.559c1.135 0 1.948-.25 2.387-.724v.004zm-4.371-4.106h-1.193v8.037h1.194v-8.037zm13.528 0h-1.229l-3.118 8.037h1.264l.353-.94h-.011l.898-2.442.19-.502.661-1.775h.012c.14-.391.26-.799.354-1.19.117.38.284.846.486 1.367l.805 2.096h-2.045l-.366.988h2.788l.933 2.394h1.357l-3.332-8.037v.004zm12.594 5.999v2.038h1.182v-8.037h-1.155v6.034l-.027-.035zm-4.134-5.999h-1.112v8.037h1.112v-8.037zm3.71 5.368l-3.286-4.847v2.05l3.286 4.858v-2.06zm11.932-5.368l-1.57 2.359c-.307.466-.58.905-.817 1.285v-.012l-.66 1.011v3.394h1.205V90.05l3.25-4.643h-1.407zm-3.13 2.414l-1.594-2.414h-1.465l2.885 4.26.672-1.047-.497-.8zM1.272 99.972v-2.519h.789v-.396H.039v.396h.793v2.52h.44zm3.985-2.915l-1.05 2.915h.463l.221-.65h1.097l.225.65h.463l-1.05-2.915h-.369zm-.237 1.87l.42-1.274h.007l.42 1.273H5.02zm4.813-1.239a.577.577 0 01.183-.149.612.612 0 01.264-.062c.14 0 .26.043.358.121.093.082.16.184.194.302h.463a1.106 1.106 0 00-.334-.615c-.175-.165-.405-.247-.68-.251a.965.965 0 00-.568.164.984.984 0 00-.339.36.8.8 0 00-.097.28c-.02.113-.03.34-.03.677s.01.556.03.674a.987.987 0 00.04.157.976.976 0 00.397.482c.15.105.34.16.566.168a1.021 1.021 0 001.03-1.034v-.596h-1.026v.42h.591v.152a.6.6 0 01-.17.443.56.56 0 01-.425.176.51.51 0 01-.264-.066.567.567 0 01-.183-.145.483.483 0 01-.113-.247 3.633 3.633 0 01-.03-.58c0-.286.011-.482.03-.584a.486.486 0 01.113-.243v-.004zm4.429-.631v2.915h1.847v-.415h-1.407v-2.5h-.44zm5.136 0h-.439v2.915h.44v-2.915zm3.484.847h.008l1.306 2.069h.416v-2.916h-.439v2.073h-.008l-1.31-2.073h-.412v2.915h.44v-2.068zm6.626-.427v-.42h-1.847v2.915h1.847v-.415h-1.407V98.7h1.201v-.392h-1.201v-.83h1.407zm6.229 1.869a.977.977 0 00.397.482c.151.105.342.16.567.168a1.021 1.021 0 001.03-1.034v-.596h-1.026v.42h.591v.152a.6.6 0 01-.17.443.561.561 0 01-.425.176.51.51 0 01-.264-.067.568.568 0 01-.183-.144.484.484 0 01-.113-.247 3.623 3.623 0 01-.03-.58c0-.286.01-.482.03-.584a.52.52 0 01.113-.243.578.578 0 01.183-.149.612.612 0 01.264-.063c.14 0 .26.043.358.122.093.082.16.184.194.302h.463a1.106 1.106 0 00-.334-.616c-.175-.164-.405-.246-.68-.25a.965.965 0 00-.568.164.985.985 0 00-.339.36.798.798 0 00-.097.279 4.78 4.78 0 00-.031.678c0 .337.012.556.031.674.012.062.023.113.039.156v-.004zm4.914 0a.977.977 0 00.397.482c.152.105.342.16.568.168.23-.004.42-.063.575-.168a.954.954 0 00.33-.357.668.668 0 00.102-.282 5.92 5.92 0 00.027-.674c0-.333-.008-.564-.027-.678a.67.67 0 00-.101-.278.99.99 0 00-.33-.36 1.02 1.02 0 00-.576-.165.974.974 0 00-.568.164.985.985 0 00-.338.36.802.802 0 00-.097.28c-.02.113-.032.34-.032.677s.012.556.032.674c.011.063.023.114.038.157zm.405-1.419a.484.484 0 01.113-.243.575.575 0 01.182-.149.612.612 0 01.537 0c.074.04.132.09.175.15a.49.49 0 01.117.242c.019.106.03.298.03.584s-.007.482-.03.58a.487.487 0 01-.117.247.46.46 0 01-.175.145.55.55 0 01-.272.066.51.51 0 01-.265-.066.567.567 0 01-.182-.145.483.483 0 01-.113-.247 3.636 3.636 0 01-.031-.58c0-.286.011-.482.03-.584zm6.388-.45v-.42h-1.847v2.915h1.847v-.415h-1.408V98.7h1.202v-.392h-1.202v-.83h1.408zm3.706 2.08c-.32 0-.591-.098-.82-.29l-.288.333c.307.267.676.4 1.104.4.66-.008.999-.29 1.015-.846a.852.852 0 00-.19-.545c-.13-.157-.331-.255-.604-.294a4.606 4.606 0 01-.326-.047c-.144-.027-.245-.074-.311-.145a.316.316 0 01-.097-.227c0-.141.05-.247.143-.317a.552.552 0 01.339-.102c.26.004.497.078.715.223l.245-.365a1.622 1.622 0 00-.937-.301c-.3 0-.529.082-.692.235a.804.804 0 00-.253.615c0 .212.066.392.202.54.129.146.32.236.568.279.14.02.268.04.381.055.253.043.381.176.377.392-.004.266-.194.4-.571.407zm9.343.415v-2.915h-.44v1.25h-1.142v-1.25h-.44v2.915h.44V98.7h1.143v1.273h.44zm4.895-2.495v-.42h-1.847v2.915h1.847v-.415h-1.407V98.7h1.201v-.392h-1.201v-.83h1.407zm4.857.395c-.008-.27-.105-.478-.288-.623-.152-.13-.35-.192-.591-.192h-1.128v2.915h.44v-1.245h.56l.598 1.245h.521l-.668-1.293c.369-.14.556-.411.56-.807h-.004zm-.537.322c-.082.094-.206.14-.37.145h-.66v-.882h.688c.14 0 .249.031.323.09.093.067.144.176.144.33a.452.452 0 01-.121.32l-.004-.003zM75 97.477v-.42h-1.847v2.915H75v-.415h-1.407V98.7h1.201v-.392h-1.201v-.83H75z"/></svg>9.8276C9.86433 99.9334 10.0548 99.9882 10.2804 99.9961C10.5759 99.9922 10.8208 99.8903 11.0152 99.6944C11.2097 99.4984 11.3069 99.2516 11.3107 98.9616V98.366H10.2843V98.7853H10.8753V98.9381C10.8753 99.1223 10.8169 99.2673 10.7042 99.3809C10.5914 99.4985 10.4514 99.5572 10.2804 99.5572C10.1754 99.5572 10.0898 99.5337 10.016 99.4906C9.94209 99.4514 9.87988 99.4044 9.83322 99.3456C9.7749 99.2829 9.7399 99.2007 9.72046 99.0988C9.70102 98.9969 9.68936 98.8049 9.68936 98.5189C9.68936 98.2328 9.70102 98.0369 9.72046 97.935C9.7399 97.8371 9.7749 97.7548 9.83322 97.6921V97.6882Z" />
<path id="Vector_29" d="M14.2622 97.0573V99.9725H16.1091V99.5572H14.7016V97.0573H14.2622Z" />
<path id="Vector_30" d="M19.3984 97.0573H18.959V99.9725H19.3984V97.0573Z" />
<path id="Vector_31" d="M22.8822 97.9036H22.89L24.1965 99.9725H24.6125V97.0573H24.1731V99.1301H24.1654L22.855 97.0573H22.4429V99.9725H22.8822V97.9036Z" />
<path id="Vector_32" d="M29.508 97.4765V97.0573H27.6611V99.9725H29.508V99.5572H28.1005V98.699H29.302V98.3072H28.1005V97.4765H29.508Z" />
<path id="Vector_33" d="M35.737 99.3455C35.7525 99.3847 35.772 99.4278 35.7953 99.4709C35.8653 99.6041 35.9781 99.7256 36.1336 99.8275C36.2852 99.9333 36.4757 99.9881 36.7013 99.9959C36.9968 99.992 37.2417 99.8901 37.4361 99.6942C37.6305 99.4983 37.7278 99.2515 37.7316 98.9615V98.3659H36.7052V98.7852H37.2962V98.938C37.2962 99.1222 37.2378 99.2671 37.1251 99.3808C37.0123 99.4983 36.8723 99.5571 36.7013 99.5571C36.5963 99.5571 36.5107 99.5336 36.4369 99.4905C36.363 99.4513 36.3008 99.4043 36.2541 99.3455C36.1958 99.2828 36.1608 99.2005 36.1414 99.0986C36.1219 98.9968 36.1103 98.8048 36.1103 98.5187C36.1103 98.2327 36.1219 98.0368 36.1414 97.9349C36.1608 97.8369 36.1997 97.7547 36.2541 97.692C36.3008 97.6332 36.363 97.5823 36.4369 97.5431C36.5107 97.5039 36.6002 97.4843 36.7013 97.4804C36.8412 97.4804 36.9618 97.5235 37.059 97.6018C37.1523 97.6841 37.2184 97.786 37.2534 97.9036H37.7161C37.6694 97.6606 37.5606 97.4569 37.3817 97.2884C37.2067 97.1238 36.9773 97.0415 36.7013 97.0376C36.4719 97.0376 36.2852 97.0964 36.1336 97.2022C35.9781 97.308 35.8653 97.4255 35.7953 97.5627C35.7525 97.6332 35.7175 97.7272 35.6981 97.8409C35.6787 97.9545 35.667 98.1818 35.667 98.5187C35.667 98.8557 35.6787 99.0751 35.6981 99.1927C35.7098 99.2554 35.7214 99.3063 35.737 99.3494V99.3455Z" />
<path id="Vector_34" d="M40.6515 99.3456C40.6671 99.3848 40.6865 99.4279 40.7098 99.471C40.7798 99.6042 40.8926 99.7257 41.0481 99.8276C41.1998 99.9334 41.3903 99.9882 41.6158 99.9961C41.8452 99.9922 42.0357 99.9334 42.1913 99.8276C42.3429 99.7257 42.4518 99.6082 42.5218 99.471C42.5723 99.4005 42.6034 99.3065 42.6229 99.1889C42.6384 99.0714 42.6501 98.848 42.6501 98.5149C42.6501 98.1819 42.6423 97.9507 42.6229 97.8371C42.6034 97.7234 42.5723 97.6294 42.5218 97.5589C42.4557 97.4256 42.3429 97.3042 42.1913 97.1984C42.0396 97.0926 41.8452 97.0377 41.6158 97.0338C41.3903 97.0338 41.1998 97.0926 41.0481 97.1984C40.8926 97.3042 40.7798 97.4217 40.7098 97.5589C40.6671 97.6294 40.6321 97.7234 40.6126 97.8371C40.5932 97.9507 40.5815 98.178 40.5815 98.5149C40.5815 98.8519 40.5932 99.0714 40.6126 99.1889C40.6243 99.2516 40.636 99.3025 40.6515 99.3456ZM41.0559 97.9272C41.0753 97.8292 41.1103 97.747 41.1687 97.6843C41.2153 97.6255 41.2775 97.5745 41.3514 97.5354C41.4253 97.4962 41.5147 97.4766 41.6158 97.4727C41.7208 97.4727 41.8102 97.4962 41.888 97.5354C41.9619 97.5745 42.0202 97.6255 42.063 97.6843C42.1213 97.747 42.1602 97.8292 42.1796 97.9272C42.199 98.033 42.2107 98.225 42.2107 98.511C42.2107 98.7971 42.2029 98.993 42.1796 99.0909C42.1602 99.1928 42.1213 99.2751 42.063 99.3378C42.0202 99.3966 41.9619 99.4475 41.888 99.4828C41.8102 99.5259 41.7208 99.5494 41.6158 99.5494C41.5108 99.5494 41.4253 99.5259 41.3514 99.4828C41.2775 99.4436 41.2153 99.3966 41.1687 99.3378C41.1103 99.2751 41.0753 99.1928 41.0559 99.0909C41.0365 98.9891 41.0248 98.7971 41.0248 98.511C41.0248 98.225 41.0365 98.0291 41.0559 97.9272Z" />
<path id="Vector_35" d="M47.4441 97.4765V97.0573H45.5972V99.9725H47.4441V99.5572H46.0365V98.699H47.238V98.3072H46.0365V97.4765H47.4441Z" />
<path id="Vector_36" d="M51.1497 99.5572C50.8308 99.5572 50.5586 99.4593 50.3292 99.2673L50.0415 99.6003C50.3487 99.8668 50.7181 100 51.1458 100C51.8068 99.9922 52.145 99.71 52.1606 99.1536C52.1606 98.946 52.0945 98.7657 51.9701 98.609C51.8417 98.4523 51.6396 98.3543 51.3674 98.3151C51.2313 98.2994 51.1224 98.2838 51.0408 98.2681C50.8969 98.2407 50.7958 98.1936 50.7297 98.1231C50.6636 98.0565 50.6325 97.9781 50.6325 97.8958C50.6325 97.7548 50.6831 97.649 50.7764 97.5785C50.8658 97.5119 50.9786 97.4766 51.1147 97.4766C51.3752 97.4805 51.6123 97.555 51.8301 97.6999L52.0751 97.3355C51.8107 97.1435 51.4957 97.0417 51.138 97.0338C50.8386 97.0338 50.6092 97.1161 50.4459 97.2689C50.2787 97.4257 50.1931 97.6294 50.1931 97.8841C50.1931 98.0957 50.2592 98.2759 50.3953 98.4248C50.5236 98.5698 50.7142 98.6599 50.963 98.703C51.103 98.7226 51.2313 98.7422 51.3441 98.7579C51.5968 98.801 51.7251 98.9342 51.7212 99.1497C51.7173 99.4162 51.5268 99.5494 51.1497 99.5572Z" />
<path id="Vector_37" d="M60.4931 99.9725V97.0573H60.0537V98.3072H58.9106V97.0573H58.4712V99.9725H58.9106V98.699H60.0537V99.9725H60.4931Z" />
<path id="Vector_38" d="M65.3884 97.4765V97.0573H63.5415V99.9725H65.3884V99.5572H63.9809V98.699H65.1823V98.3072H63.9809V97.4765H65.3884Z" />
<path id="Vector_39" d="M70.2446 97.8723C70.2368 97.6019 70.1396 97.3942 69.9569 97.2493C69.8052 97.1199 69.6069 97.0573 69.3659 97.0573H68.2383V99.9725H68.6777V98.7265H69.2376L69.8363 99.9725H70.3574L69.6886 98.6794C70.058 98.5384 70.2446 98.268 70.2485 97.8723H70.2446ZM69.708 98.1936C69.6264 98.2876 69.5019 98.3346 69.3386 98.3386H68.6777V97.4569H69.3659C69.5058 97.4569 69.6147 97.4883 69.6886 97.547C69.7819 97.6137 69.8325 97.7234 69.8325 97.8762C69.8325 98.0016 69.7936 98.1113 69.7119 98.1975L69.708 98.1936Z" />
<path id="Vector_40" d="M75.0002 97.4765V97.0573H73.1533V99.9725H75.0002V99.5572H73.5927V98.699H74.7942V98.3072H73.5927V97.4765H75.0002Z" />
</g>
</svg>
