<svg width="78" height="100" viewBox="0 0 78 100" fill="none" xmlns="http://www.w3.org/2000/svg">
<g id="_&#208;&#160;&#194;&#160;&#208;&#160;&#194;&#181;&#208;&#160;&#194;&#182;&#208;&#160;&#209;&#145;&#208;&#160;&#209;&#152;_&#208;&#160;&#209;&#145;&#208;&#160;&#194;&#183;&#208;&#160;&#209;&#149;&#208;&#160;&#194;&#187;&#208;&#161;&#208;&#143;&#208;&#161;&#226;&#128;&#160;&#208;&#160;&#209;&#145;&#208;&#160;&#209;&#145;" clip-path="url(#clip0_51_1389)">
<path id="Vector" d="M23.6789 24.5839L47.9729 0L38.3152 2.6741C28.2662 5.45726 19.7983 10.2763 13.1509 17.0019L5.66113 24.5839C8.14841 27.1005 11.4062 28.3568 14.668 28.3568C17.9299 28.3568 21.1877 27.0965 23.675 24.5839H23.6789ZM15.5743 19.4539C21.1517 13.8108 28.1225 9.59363 36.3269 6.89126L21.2555 22.136C19.4949 23.9174 17.1593 24.899 14.668 24.899C13.3705 24.899 12.1129 24.6324 10.9591 24.1234L15.5743 19.4539Z" fill="white"/>
<path id="Vector_2" d="M20.3735 61.9688L27.8632 69.5468C30.3505 67.0302 31.5922 63.734 31.5922 60.4338C31.5922 57.1336 30.3505 53.8374 27.8632 51.3209L3.56934 26.7369L6.21232 36.5083C8.9631 46.6755 13.7261 55.2432 20.3774 61.9688H20.3735ZM25.4438 53.7688C28.2226 56.5802 28.8773 60.7368 27.4041 64.1824L22.7929 59.5169C17.2154 53.8738 13.0474 46.821 10.3764 38.5199L25.4438 53.7647V53.7688Z" fill="white"/>
<path id="Vector_3" d="M63.3317 43.3754C60.0738 43.3754 56.812 44.6357 54.3248 47.1522L30.0269 71.7362L39.6845 69.0621C49.7335 66.2789 58.2014 61.4599 64.8488 54.7302L72.3386 47.1522C71.0969 45.896 69.6597 44.9507 68.1226 44.3206C66.5895 43.6904 64.9606 43.3754 63.3277 43.3754H63.3317ZM62.4294 52.2823C56.852 57.9254 49.8812 62.1466 41.6768 64.8449L56.7442 49.6001C58.5048 47.8187 60.8444 46.8372 63.3317 46.8372C64.6292 46.8372 65.8868 47.1038 67.0406 47.6127L62.4254 52.2823H62.4294Z" fill="white"/>
<path id="Vector_4" d="M50.1328 20.4152L74.4307 44.9992L71.7877 35.2278C69.0369 25.0606 64.2739 16.4929 57.6226 9.7673L50.1328 2.1853C45.1582 7.21843 45.1582 15.3781 50.1328 20.4112V20.4152ZM50.5919 7.54966L55.2032 12.2152C60.7806 17.8583 64.9487 24.9111 67.6196 33.2121L52.5522 17.9673C49.7735 15.1559 49.1187 10.9953 50.5919 7.54966Z" fill="white"/>
<path id="Vector_5" d="M0.838438 92.5392C1.07 92.7371 1.3335 92.8745 1.62495 92.9512C1.91639 93.028 2.20385 93.0684 2.48332 93.0684C2.81469 93.0684 3.12211 93.0037 3.40956 92.8704C3.69701 92.7371 3.94454 92.5594 4.16014 92.3332C4.37173 92.107 4.53942 91.8485 4.66318 91.5617C4.78295 91.2708 4.84683 90.9638 4.84683 90.6407V89.9944H3.36165V90.5114C3.36165 90.7174 3.3337 90.8911 3.27382 91.0285C3.21393 91.1658 3.14207 91.2749 3.05423 91.3516C2.95842 91.4284 2.85461 91.4849 2.74282 91.5213C2.63104 91.5576 2.52723 91.5738 2.43142 91.5738C2.09206 91.5738 1.85651 91.4688 1.72476 91.2627C1.59301 91.0567 1.52913 90.8023 1.52913 90.4953V85.1349C1.52913 84.7795 1.58901 84.4886 1.71278 84.2584C1.83255 84.0281 2.08008 83.911 2.44739 83.911C2.73085 83.911 2.95043 84.0201 3.11811 84.2341C3.2818 84.4482 3.36564 84.7068 3.36564 85.0016V85.5025H4.85082V84.9128C4.85082 84.5492 4.79094 84.214 4.66717 83.9029C4.5474 83.5919 4.37972 83.3253 4.16413 83.0991C3.72895 82.6386 3.15804 82.4083 2.45936 82.4083C2.10004 82.4083 1.77267 82.4689 1.47723 82.5941C1.18179 82.7153 0.926271 82.885 0.714673 83.1031C0.499082 83.3212 0.335392 83.5757 0.219612 83.8706C0.103832 84.1655 0.0439453 84.4846 0.0439453 84.8279V90.6003C0.0439453 91.081 0.119801 91.4768 0.267521 91.7879C0.419233 92.0989 0.61087 92.3494 0.84243 92.5473L0.838438 92.5392Z" fill="white"/>
<path id="Vector_6" d="M16.7642 84.9653C16.7642 84.5452 16.6923 84.1695 16.5446 83.8464C16.4009 83.5232 16.2093 83.2526 15.9777 83.0345C15.7342 82.8284 15.4667 82.6709 15.1712 82.5618C14.8758 82.4528 14.5763 82.4003 14.2769 82.4003C13.9775 82.4003 13.6781 82.4528 13.3826 82.5618C13.0872 82.6709 12.8237 82.8284 12.5881 83.0345C12.3446 83.2485 12.1529 83.5192 12.0052 83.8464C11.8615 84.1695 11.7856 84.5452 11.7856 84.9653V90.5034C11.7856 90.9437 11.8575 91.3234 12.0052 91.6384C12.149 91.9535 12.3446 92.212 12.5881 92.418C12.8197 92.6362 13.0872 92.7977 13.3826 92.9028C13.6781 93.0118 13.9775 93.0643 14.2769 93.0643C14.5763 93.0643 14.8758 93.0118 15.1712 92.9028C15.4667 92.7937 15.7381 92.6321 15.9777 92.418C16.2093 92.212 16.4009 91.9535 16.5446 91.6384C16.6883 91.3234 16.7642 90.9477 16.7642 90.5034V84.9653ZM15.279 90.5034C15.279 90.8669 15.1792 91.1335 14.9796 91.3072C14.78 91.4809 14.5444 91.5657 14.2729 91.5657C14.0014 91.5657 13.7659 91.4809 13.5663 91.3072C13.3666 91.1375 13.2668 90.8669 13.2668 90.5034V84.9653C13.2668 84.6018 13.3666 84.3352 13.5663 84.1615C13.7659 83.9918 14.0014 83.9029 14.2729 83.9029C14.5444 83.9029 14.78 83.9878 14.9796 84.1615C15.1792 84.3352 15.279 84.6018 15.279 84.9653V90.5034Z" fill="white"/>
<path id="Vector_7" d="M27.2601 88.0433H27.2282L25.3238 82.4932H23.8945V92.9795H25.3797V86.6013H25.4117L26.8649 91.1093H27.6075L29.0807 86.6013H29.1086V92.9795H30.5938V82.4932H29.1526L27.2601 88.0433Z" fill="white"/>
<path id="Vector_8" d="M41.9601 83.2283C41.7086 82.9537 41.4252 82.7638 41.1177 82.6547C40.8063 82.5457 40.447 82.4932 40.0398 82.4932H37.812V92.9795H39.2972V88.8835H40.0558C40.6107 88.8835 41.0539 88.7866 41.3972 88.5967C41.7366 88.4069 42.0081 88.1362 42.2117 87.7929C42.3873 87.5101 42.4991 87.2031 42.555 86.88C42.6069 86.5568 42.6349 86.1569 42.6349 85.6884C42.6349 85.0582 42.587 84.5613 42.4911 84.1938C42.3953 83.8262 42.2197 83.503 41.9681 83.2283H41.9601ZM41.2096 86.4235C41.1936 86.6376 41.1497 86.8194 41.0698 86.9688C40.994 87.1264 40.8702 87.2476 40.7065 87.3364C40.5428 87.4253 40.3073 87.4697 40.0078 87.4697H39.2932V83.907H40.0637C40.3552 83.907 40.5788 83.9514 40.7345 84.0403C40.8902 84.1291 41.006 84.2544 41.0858 84.424C41.1617 84.5896 41.2056 84.7835 41.2175 85.0057C41.2255 85.2279 41.2335 85.4581 41.2335 85.7045C41.2335 85.9711 41.2255 86.2094 41.2136 86.4276L41.2096 86.4235Z" fill="white"/>
<path id="Vector_9" d="M50.6677 82.4932L48.3521 92.9795H49.8372L50.2724 90.7255H52.2966L52.7317 92.9795H54.2169L51.9013 82.4932H50.6637H50.6677ZM50.5359 89.3117L51.2625 85.5106H51.2905L52.0171 89.3117H50.5319H50.5359Z" fill="white"/>
<path id="Vector_10" d="M65.8951 92.9795V82.4932H64.4099V88.8108H64.3819L62.1382 82.4932H60.7129V92.9795H62.1981V86.674H62.226L64.4977 92.9795H65.8951Z" fill="white"/>
<path id="Vector_11" d="M72.4028 82.4932L74.443 88.5442V92.9795H75.9241V88.5442L77.9643 82.4932H76.3913L75.1975 86.6618H75.1696L73.9758 82.4932H72.4028Z" fill="white"/>
<path id="Vector_12" d="M0.82244 99.9717H1.28157V97.338H2.10401V96.9301H0V97.338H0.82244V99.9717Z" fill="white"/>
<path id="Vector_13" d="M6.19201 99.2931L6.42357 99.9758H6.90266L5.80874 96.9301H5.42547L4.33154 99.9758H4.81463L5.04619 99.2931H6.18802H6.19201ZM5.6171 97.5521H5.62509L6.06026 98.8811H5.18193L5.6171 97.5521Z" fill="white"/>
<path id="Vector_14" d="M10.1928 97.5844C10.2407 97.5198 10.3046 97.4713 10.3844 97.4269C10.4603 97.3865 10.5521 97.3663 10.6599 97.3622C10.8076 97.3622 10.9314 97.4067 11.0312 97.4915C11.127 97.5763 11.1949 97.6813 11.2348 97.8066H11.7179C11.67 97.5521 11.5542 97.338 11.3706 97.1643C11.1869 96.9946 10.9513 96.9058 10.6599 96.9017C10.4243 96.9017 10.2247 96.9623 10.069 97.0714C9.90932 97.1805 9.78955 97.3057 9.71769 97.4471C9.67377 97.5198 9.63784 97.6167 9.61788 97.7379C9.59791 97.8591 9.58594 98.0934 9.58594 98.4488C9.58594 98.8043 9.59791 99.0305 9.61788 99.1557C9.62985 99.2204 9.64183 99.2769 9.6578 99.3173C9.67377 99.3577 9.69373 99.4021 9.71769 99.4506C9.78955 99.592 9.90932 99.7132 10.069 99.8222C10.2287 99.9353 10.4243 99.9919 10.6599 99.9959C10.9673 99.9919 11.2228 99.8869 11.4225 99.6809C11.6221 99.4748 11.7259 99.2204 11.7339 98.9134V98.2913H10.6639V98.7276H11.2787V98.8851C11.2787 99.0749 11.2148 99.2284 11.1031 99.3456C10.9873 99.4668 10.8396 99.5314 10.6639 99.5314C10.5561 99.5314 10.4643 99.5072 10.3884 99.4627C10.3086 99.4223 10.2447 99.3739 10.1968 99.3092C10.1369 99.2446 10.097 99.1598 10.081 99.0507C10.057 98.9457 10.0491 98.7437 10.0491 98.4448C10.0491 98.1459 10.061 97.9399 10.081 97.8348C10.101 97.7298 10.1409 97.649 10.1968 97.5804L10.1928 97.5844Z" fill="white"/>
<path id="Vector_15" d="M14.7998 96.9301V99.9717H16.7202V99.5355H15.2549V96.9301H14.7998Z" fill="white"/>
<path id="Vector_16" d="M20.1417 96.9301H19.6865V99.9758H20.1417V96.9301Z" fill="white"/>
<path id="Vector_17" d="M23.3115 96.9301V99.9717H23.7707V97.8106H23.7786L25.1361 99.9717H25.5672V96.9301H25.1121V99.0911H25.1041L23.7427 96.9301H23.3115Z" fill="white"/>
<path id="Vector_18" d="M30.6621 97.3663V96.9301H28.7417V99.9717H30.6621V99.5355H29.1968V98.6428H30.4465V98.2348H29.1968V97.3663H30.6621Z" fill="white"/>
<path id="Vector_19" d="M37.2055 97.4511C37.1616 97.5238 37.1256 97.6208 37.1057 97.7419C37.0857 97.8631 37.0737 98.0974 37.0737 98.4529C37.0737 98.8083 37.0857 99.0345 37.1057 99.1598C37.1176 99.2244 37.1296 99.281 37.1456 99.3214C37.1616 99.3617 37.1815 99.4062 37.2055 99.4547C37.2773 99.596 37.3971 99.7172 37.5568 99.8263C37.7165 99.9394 37.9121 99.9959 38.1477 100C38.4551 99.9959 38.7106 99.8909 38.9102 99.6849C39.1099 99.4789 39.2137 99.2244 39.2217 98.9174V98.2953H38.1517V98.7316H38.7665V98.8891C38.7665 99.079 38.7066 99.2325 38.5909 99.3496C38.4751 99.4708 38.3274 99.5354 38.1517 99.5354C38.0439 99.5354 37.9521 99.5112 37.8762 99.4668C37.7964 99.4264 37.7365 99.3779 37.6846 99.3133C37.6247 99.2486 37.5848 99.1638 37.5688 99.0547C37.5488 98.9497 37.5369 98.7478 37.5369 98.4488C37.5369 98.1499 37.5488 97.9439 37.5688 97.8389C37.5888 97.7339 37.6287 97.6531 37.6846 97.5844C37.7325 97.5198 37.7964 97.4713 37.8762 97.4269C37.9521 97.3865 38.0439 97.3663 38.1517 97.3622C38.2994 97.3622 38.4232 97.4067 38.523 97.4915C38.6188 97.5763 38.6867 97.6813 38.7266 97.8066H39.2097C39.1618 97.5521 39.046 97.338 38.8623 97.1643C38.6787 96.9946 38.4431 96.9058 38.1517 96.9017C37.9161 96.9017 37.7165 96.9623 37.5608 97.0714C37.4011 97.1805 37.2813 97.3057 37.2095 97.4471L37.2055 97.4511Z" fill="white"/>
<path id="Vector_20" d="M42.3197 97.4511C42.2758 97.5238 42.2399 97.6207 42.2199 97.7419C42.2 97.8631 42.188 98.0974 42.188 98.4529C42.188 98.8083 42.2 99.0345 42.2199 99.1598C42.2319 99.2244 42.2439 99.2809 42.2599 99.3213C42.2758 99.3617 42.2958 99.4062 42.3197 99.4546C42.3916 99.596 42.5114 99.7172 42.6711 99.8263C42.8308 99.9394 43.0264 99.9959 43.262 100C43.5015 99.9959 43.7011 99.9353 43.8608 99.8263C44.0205 99.7172 44.1323 99.596 44.2042 99.4546C44.2561 99.3819 44.292 99.2809 44.308 99.1598C44.3239 99.0386 44.3359 98.8003 44.3359 98.4529C44.3359 98.1055 44.3279 97.8631 44.308 97.7419C44.288 97.6207 44.2521 97.5238 44.2042 97.4511C44.1323 97.3097 44.0205 97.1845 43.8608 97.0754C43.7011 96.9623 43.5015 96.9058 43.262 96.9058C43.0264 96.9058 42.8268 96.9664 42.6711 97.0754C42.5114 97.1845 42.3916 97.3097 42.3197 97.4511ZM42.6791 97.8389C42.699 97.7338 42.7389 97.6531 42.7948 97.5844C42.8427 97.5198 42.9066 97.4713 42.9865 97.4269C43.0623 97.3865 43.1542 97.3663 43.262 97.3622C43.3697 97.3622 43.4656 97.3865 43.5454 97.4269C43.6213 97.4672 43.6812 97.5198 43.7291 97.5844C43.789 97.649 43.8289 97.7338 43.8488 97.8389C43.8688 97.9479 43.8808 98.1499 43.8808 98.4488C43.8808 98.7477 43.8688 98.9497 43.8488 99.0547C43.8249 99.1598 43.785 99.2446 43.7291 99.3133C43.6851 99.3739 43.6213 99.4264 43.5454 99.4668C43.4656 99.5112 43.3697 99.5354 43.262 99.5354C43.1542 99.5354 43.0623 99.5112 42.9865 99.4668C42.9066 99.4264 42.8467 99.3779 42.7948 99.3133C42.735 99.2486 42.695 99.1638 42.6791 99.0547C42.6551 98.9497 42.6471 98.7477 42.6471 98.4488C42.6471 98.1499 42.6591 97.9439 42.6791 97.8389Z" fill="white"/>
<path id="Vector_21" d="M47.4062 99.9717H49.3266V99.5355H47.8614V98.6428H49.111V98.2348H47.8614V97.3663H49.3266V96.9301H47.4062V99.9717Z" fill="white"/>
<path id="Vector_22" d="M53.1831 99.5354C52.8517 99.5354 52.5683 99.4304 52.3287 99.2325L52.0293 99.5799C52.3487 99.8586 52.732 99.9959 53.1791 99.9959C53.8698 99.9879 54.2211 99.693 54.2371 99.1113C54.2371 98.8972 54.1692 98.7074 54.0375 98.5417C53.9017 98.3761 53.6941 98.2751 53.4107 98.2347C53.2669 98.2186 53.1552 98.2024 53.0713 98.1863C52.9236 98.158 52.8158 98.1095 52.7479 98.0368C52.6801 97.9641 52.6481 97.8874 52.6481 97.7985C52.6481 97.6531 52.7 97.544 52.7998 97.4673C52.8917 97.3945 53.0114 97.3622 53.1512 97.3622C53.4227 97.3663 53.6702 97.4471 53.8977 97.5965L54.1533 97.2168C53.8778 97.0148 53.5504 96.9098 53.1751 96.9017C52.8637 96.9017 52.6242 96.9866 52.4565 97.1481C52.2808 97.3097 52.193 97.5238 52.193 97.7904C52.193 98.0126 52.2609 98.1984 52.4006 98.3559C52.5363 98.5054 52.732 98.6023 52.9915 98.6468C53.1352 98.667 53.2669 98.6872 53.3907 98.7033C53.6542 98.7478 53.786 98.8851 53.782 99.1113C53.778 99.39 53.5784 99.5314 53.1871 99.5354H53.1831Z" fill="white"/>
<path id="Vector_23" d="M62.9047 99.9717V96.9301H62.4496V98.2348H61.2598V96.9301H60.8047V99.9717H61.2598V98.6428H62.4496V99.9717H62.9047Z" fill="white"/>
<path id="Vector_24" d="M67.999 97.3663V96.9301H66.0786V99.9717H67.999V99.5355H66.5337V98.6428H67.7834V98.2348H66.5337V97.3663H67.999Z" fill="white"/>
<path id="Vector_25" d="M73.0495 97.7783C73.0415 97.4956 72.9417 97.2815 72.75 97.128C72.5903 96.9947 72.3867 96.926 72.1352 96.926H70.9614V99.9718H71.4166V98.6711H71.9995L72.6223 99.9718H73.1652L72.4666 98.6226C72.8498 98.4731 73.0415 98.1944 73.0495 97.7783ZM72.4905 98.1136C72.4067 98.2106 72.2789 98.2631 72.1072 98.2631H71.4166V97.338H72.1312C72.2749 97.338 72.3867 97.3704 72.4666 97.431C72.5624 97.5037 72.6143 97.6168 72.6183 97.7743C72.6183 97.9076 72.5784 98.0167 72.4945 98.1096L72.4905 98.1136Z" fill="white"/>
<path id="Vector_26" d="M77.9999 97.3663V96.9301H76.0796V99.9717H77.9999V99.5355H76.5347V98.6428H77.7844V98.2348H76.5347V97.3663H77.9999Z" fill="white"/>
</g>
<defs>
<clipPath id="clip0_51_1389">
<rect width="78" height="100" fill="white"/>
</clipPath>
</defs>
</svg>
