<svg width="89" height="100" viewBox="0 0 89 100"  xmlns="http://www.w3.org/2000/svg">
<g id="_&#208;&#160;&#194;&#160;&#208;&#160;&#194;&#181;&#208;&#160;&#194;&#182;&#208;&#160;&#209;&#145;&#208;&#160;&#209;&#152;_&#208;&#160;&#209;&#145;&#208;&#160;&#194;&#183;&#208;&#160;&#209;&#149;&#208;&#160;&#194;&#187;&#208;&#161;&#208;&#143;&#208;&#161;&#226;&#128;&#160;&#208;&#160;&#209;&#145;&#208;&#160;&#209;&#145;" clip-path="url(#clip0_51_1356)">
<path id="Vector" d="M39.9513 16.4242L47.8129 30.1514C48.7007 30.1346 49.5926 30.1263 50.4887 30.1263C52.7912 30.1263 55.0605 30.1765 57.2966 30.281L39.9513 0L20.8926 33.2706C24.2032 32.5096 27.7129 31.8741 31.3844 31.3765L39.9513 16.42V16.4242ZM25.8377 29.6914L39.9513 5.05101L52.8783 27.6175C52.0818 27.605 51.2853 27.6008 50.4929 27.6008C50.0822 27.6008 49.6714 27.6008 49.2524 27.6049L42.1251 15.1572L39.9554 11.369L37.7815 15.1572L29.8287 29.0433C28.4845 29.2398 27.1528 29.4531 25.8419 29.6872L25.8377 29.6914Z" />
<path id="Vector_2" d="M28.2603 75.5603C18.4281 71.2075 12.4209 65.3788 12.4209 58.9772C12.4209 56.8447 13.0847 54.7792 14.3376 52.8098H70.2027L60.0261 35.0434C63.8968 34.7173 67.9085 34.55 72.0156 34.55C77.5457 34.55 82.9015 34.8595 87.9836 35.4365C87.689 35.3403 87.3903 35.2483 87.0916 35.1563C87.3903 35.2483 87.6932 35.3403 87.9836 35.4365C88.3238 35.4741 88.664 35.5159 89.0041 35.5577C88.108 35.3278 87.1954 35.1103 86.2702 34.9013C77.973 33.0364 68.4229 31.9702 58.263 31.9576C58.2049 31.9576 58.1427 31.9576 58.0805 31.9576C55.7655 31.9576 53.4879 32.012 51.2436 32.1207C50.4968 32.1542 49.7542 32.196 49.0158 32.2462C41.9341 32.6936 35.2797 33.6594 29.2933 35.0434C28.7747 35.1647 28.2644 35.286 27.7583 35.4114C24.2071 36.2895 20.909 37.3223 17.9178 38.4805C6.87424 42.7454 0 48.7581 0 55.4231C0 63.978 11.3298 71.4626 28.2603 75.5644V75.5603ZM51.2104 36.0804L56.0891 44.5977H23.8379C30.6665 40.7593 40.1668 37.7655 51.2104 36.0804Z" />
<path id="Vector_3" d="M5.38906 92.3733C5.69606 92.2312 5.96572 92.0388 6.19389 91.7963C6.42207 91.5538 6.6046 91.2778 6.73321 90.9684C6.86182 90.659 6.9282 90.3287 6.9282 89.9816V89.2875H5.33513V89.8395C5.33513 90.0611 5.30194 90.245 5.23971 90.3914C5.17748 90.5377 5.09866 90.6548 5.00324 90.7384C4.89953 90.8221 4.78752 90.8848 4.66721 90.9182C4.5469 90.9559 4.43488 90.9726 4.33117 90.9726C3.96609 90.9726 3.71303 90.8639 3.57197 90.6423C3.43092 90.4207 3.3604 90.1489 3.3604 89.8227V84.086C3.3604 83.7097 3.42677 83.3961 3.55538 83.1494C3.68399 82.9027 3.9495 82.7772 4.34362 82.7772C4.64646 82.7772 4.88708 82.8943 5.06132 83.1243C5.23971 83.3543 5.32683 83.6302 5.32683 83.9438V84.479H6.9199V83.8477C6.9199 83.4588 6.85352 83.0992 6.72491 82.7689C6.59631 82.4386 6.41377 82.1501 6.1856 81.9117C5.7168 81.4183 5.10696 81.1716 4.35606 81.1716C3.97024 81.1716 3.61761 81.2385 3.30232 81.3682C2.98287 81.4978 2.70907 81.6817 2.48089 81.9117C2.25272 82.1417 2.07433 82.4177 1.94987 82.7313C1.82541 83.0449 1.76318 83.3877 1.76318 83.7557V89.9356C1.76318 90.4499 1.84201 90.8722 2.0038 91.2026C2.1656 91.5329 2.37303 91.8047 2.62194 92.0137C2.87086 92.2228 3.15297 92.3692 3.46826 92.457C3.78355 92.5448 4.0864 92.5824 4.38925 92.5824C4.74188 92.5824 5.07377 92.5113 5.38077 92.3692L5.38906 92.3733Z" />
<path id="Vector_4" d="M19.735 83.9187C19.735 83.4671 19.6562 83.0657 19.4985 82.7228C19.3409 82.3758 19.1376 82.0873 18.8887 81.8573C18.6273 81.6357 18.3369 81.4684 18.0216 81.3514C17.7022 81.2343 17.3827 81.1799 17.0592 81.1799C16.7356 81.1799 16.4161 81.2385 16.0967 81.3514C15.7772 81.4684 15.4951 81.6357 15.2462 81.8573C14.9848 82.0873 14.7774 82.3758 14.6198 82.7228C14.4621 83.0699 14.3833 83.4671 14.3833 83.9187V89.8436C14.3833 90.3161 14.4621 90.7217 14.6198 91.0562C14.7774 91.3907 14.9848 91.6708 15.2462 91.8924C15.4951 92.1224 15.7814 92.298 16.0967 92.4109C16.4161 92.528 16.7356 92.5823 17.0592 92.5823C17.3827 92.5823 17.7022 92.5238 18.0216 92.4109C18.3411 92.2938 18.6273 92.1224 18.8887 91.8924C19.1376 91.6708 19.3409 91.3949 19.4985 91.0562C19.6562 90.7217 19.735 90.3161 19.735 89.8436V83.9187ZM18.1419 89.8436C18.1419 90.2324 18.0341 90.5168 17.8225 90.7008C17.6068 90.8847 17.3579 90.9767 17.0633 90.9767C16.7687 90.9767 16.5198 90.8847 16.3041 90.7008C16.0884 90.5168 15.9847 90.2324 15.9847 89.8436V83.9187C15.9847 83.5298 16.0925 83.2455 16.3041 83.0615C16.5157 82.8775 16.7687 82.7856 17.0633 82.7856C17.3579 82.7856 17.6068 82.8775 17.8225 83.0615C18.0341 83.2455 18.1419 83.5298 18.1419 83.9187V89.8436Z" />
<path id="Vector_5" d="M31.0109 87.2136H30.9777L28.9283 81.272H27.3975V92.4904H28.9905V85.6665H29.0237L30.5877 90.4917H31.3843L32.9649 85.6665H32.9939V92.4904H34.5911V81.272H33.0437L31.0109 87.2136Z" />
<path id="Vector_6" d="M46.8045 82.0581C46.5348 81.7654 46.232 81.5605 45.8959 81.4434C45.564 81.3263 45.1782 81.272 44.7385 81.272H42.3447V92.4946H43.9378V88.1126H44.7509C45.3442 88.1126 45.8254 88.0081 46.1905 87.8032C46.5556 87.5983 46.846 87.314 47.0658 86.946C47.2525 86.6408 47.377 86.3146 47.4351 85.9676C47.4931 85.6205 47.5222 85.194 47.5222 84.6923C47.5222 84.0191 47.4683 83.4881 47.3645 83.0908C47.2608 82.6978 47.0741 82.3508 46.8003 82.0581H46.8045ZM45.9996 85.4784C45.9831 85.7083 45.9333 85.9049 45.8503 86.0637C45.7673 86.231 45.6346 86.3648 45.4603 86.4568C45.2819 86.553 45.033 86.599 44.7094 86.599H43.9419V82.7856H44.7717C45.0828 82.7856 45.3234 82.8316 45.4894 82.9278C45.6553 83.0239 45.7798 83.1577 45.8627 83.3375C45.9457 83.5173 45.9913 83.7222 46.0038 83.9606C46.0121 84.1989 46.0204 84.4456 46.0204 84.709C46.0204 84.9933 46.0121 85.2484 45.9955 85.4825L45.9996 85.4784Z" />
<path id="Vector_7" d="M56.1554 81.272L53.6704 92.4946H55.2635L55.7323 90.082H57.9061L58.3749 92.4946H59.968L57.483 81.272H56.1554ZM56.0144 88.5683L56.7943 84.5041H56.8275L57.6074 88.5683H56.0144Z" />
<path id="Vector_8" d="M72.5093 92.4904V81.272H70.9163V88.0331H70.8831L68.4769 81.272H66.9419V92.4904H68.5391V85.746H68.5681L71.0075 92.4904H72.5093Z" />
<path id="Vector_9" d="M83.283 92.4904V87.7488L85.4735 81.272H83.785L82.5031 85.7292H82.4699L81.188 81.272H79.4995L81.69 87.7488V92.4904H83.283Z" />
<path id="Vector_10" d="M3.10732 99.9749V97.1567H3.99097V96.7177H1.72998V97.1567H2.61363V99.9749H3.10732Z" />
<path id="Vector_11" d="M7.56273 96.7177L6.38867 99.9749H6.90725L7.15616 99.2473H8.38415L8.63307 99.9749H9.15164L7.97759 96.7177H7.56688H7.56273ZM7.29722 98.8083L7.76601 97.3867H7.77431L8.2431 98.8083H7.29722Z" />
<path id="Vector_12" d="M12.6779 97.4201C12.7277 97.3532 12.7982 97.2988 12.8812 97.2528C12.9642 97.211 13.0638 97.1859 13.1799 97.1817C13.3376 97.1817 13.4703 97.2319 13.5782 97.3197C13.6819 97.4117 13.7566 97.5246 13.7939 97.6542H14.3125C14.2627 97.3824 14.1382 97.1525 13.9391 96.9685C13.7441 96.7845 13.4869 96.6925 13.1758 96.6884C12.9227 96.6884 12.7111 96.7511 12.541 96.8723C12.3668 96.9894 12.2423 97.1232 12.1635 97.2737C12.1137 97.3532 12.0805 97.4577 12.0556 97.5832C12.0349 97.7128 12.0225 97.9636 12.0225 98.3441C12.0225 98.7246 12.0349 98.9672 12.0556 99.101C12.0681 99.172 12.0805 99.2306 12.1013 99.2766C12.122 99.3226 12.1428 99.3686 12.1635 99.4187C12.2423 99.5693 12.3668 99.7031 12.541 99.816C12.7111 99.9372 12.9227 99.9958 13.1758 100.004C13.5035 99.9999 13.7773 99.887 13.9972 99.6654C14.2129 99.4438 14.3249 99.172 14.3291 98.8459V98.1811H13.1799V98.6494H13.8395V98.8208C13.8395 99.0257 13.7732 99.1888 13.6487 99.3142C13.5243 99.4438 13.3666 99.5107 13.1758 99.5107C13.0596 99.5107 12.96 99.4856 12.8771 99.4355C12.7941 99.3937 12.7236 99.3393 12.6738 99.2724C12.6116 99.2013 12.5701 99.1093 12.5493 98.9964C12.5244 98.8835 12.512 98.6661 12.512 98.3441C12.512 98.0222 12.5244 97.8048 12.5493 97.6877C12.5701 97.579 12.6116 97.487 12.6738 97.4159L12.6779 97.4201Z" />
<path id="Vector_13" d="M17.6274 96.7177V99.9749H19.6893V99.5066H18.117V96.7177H17.6274Z" />
<path id="Vector_14" d="M23.365 96.7177H22.8755V99.9749H23.365V96.7177Z" />
<path id="Vector_15" d="M26.771 96.7177V99.9749H27.2605V97.6584H27.2688L28.7291 99.9749H29.1938V96.7177H28.7042V99.0341H28.6959L27.2315 96.7177H26.771Z" />
<path id="Vector_16" d="M34.6656 97.186V96.7177H32.5996V99.9749H34.6656V99.5066H33.0891V98.5532H34.4333V98.1142H33.0891V97.186H34.6656Z" />
<path id="Vector_17" d="M41.6933 97.2779C41.6435 97.3574 41.6062 97.4619 41.5854 97.5873C41.5647 97.717 41.5522 97.9678 41.5522 98.3483C41.5522 98.7288 41.5647 98.9713 41.5854 99.1051C41.5979 99.1762 41.6103 99.2348 41.6311 99.2808C41.6518 99.3268 41.6726 99.3727 41.6933 99.4229C41.7721 99.5734 41.8966 99.7072 42.0708 99.8201C42.2409 99.9414 42.4525 99.9999 42.7056 100.008C43.0333 100.004 43.3071 99.8912 43.527 99.6696C43.7427 99.448 43.8547 99.1762 43.8589 98.8501V98.1853H42.7097V98.6536H43.3693V98.825C43.3693 99.0299 43.303 99.193 43.1785 99.3184C43.054 99.448 42.8964 99.5149 42.7056 99.5149C42.5894 99.5149 42.4898 99.4898 42.4069 99.4397C42.3239 99.3978 42.2534 99.3435 42.2036 99.2766C42.1413 99.2055 42.0999 99.1135 42.0791 99.0006C42.0542 98.8877 42.0418 98.6703 42.0418 98.3483C42.0418 98.0264 42.0542 97.8089 42.0791 97.6919C42.0999 97.5832 42.1413 97.4912 42.2036 97.4201C42.2534 97.3532 42.3239 97.2988 42.4069 97.2528C42.4898 97.211 42.5894 97.1859 42.7056 97.1817C42.8632 97.1817 42.996 97.2319 43.1038 97.3197C43.2075 97.4117 43.2822 97.5246 43.3195 97.6542H43.8381C43.7883 97.3824 43.6639 97.1525 43.4647 96.9685C43.2698 96.7845 43.0126 96.6925 42.7014 96.6884C42.4483 96.6884 42.2368 96.7511 42.0667 96.8723C41.8924 96.9894 41.768 97.1232 41.6891 97.2737L41.6933 97.2779Z" />
<path id="Vector_18" d="M47.186 97.278C47.1362 97.3574 47.0989 97.462 47.0781 97.5874C47.0574 97.717 47.0449 97.9679 47.0449 98.3484C47.0449 98.7289 47.0574 98.9714 47.0781 99.1052C47.0906 99.1763 47.103 99.2348 47.1237 99.2808C47.1445 99.3268 47.1652 99.3728 47.186 99.423C47.2648 99.5735 47.3893 99.7073 47.5635 99.8202C47.7336 99.9415 47.9452 100 48.1982 100.008C48.4554 100.004 48.6712 99.9415 48.8413 99.8202C49.0114 99.7073 49.1358 99.5735 49.2105 99.423C49.2644 99.3435 49.3018 99.239 49.3225 99.1094C49.3432 98.9798 49.3515 98.7247 49.3515 98.3526C49.3515 97.9804 49.3432 97.7212 49.3225 97.5916C49.3018 97.462 49.2644 97.3616 49.2105 97.2822C49.1358 97.1316 49.0114 96.9978 48.8413 96.8808C48.6712 96.7595 48.4554 96.701 48.1982 96.6968C47.9452 96.6968 47.7336 96.7595 47.5635 96.8808C47.3893 96.9978 47.2648 97.1316 47.186 97.2822V97.278ZM47.5718 97.6919C47.5925 97.5832 47.634 97.4912 47.6963 97.4201C47.746 97.3532 47.8166 97.2989 47.8995 97.2529C47.9825 97.2111 48.0821 97.186 48.1982 97.1818C48.3144 97.1818 48.4181 97.2069 48.5011 97.2529C48.5841 97.2989 48.6463 97.3532 48.6961 97.4201C48.7583 97.4912 48.8039 97.579 48.8288 97.6919C48.8496 97.809 48.862 98.0264 48.862 98.3484C48.862 98.6704 48.8496 98.8836 48.8288 99.0007C48.8039 99.1136 48.7624 99.2056 48.6961 99.2766C48.6463 99.3435 48.5841 99.3979 48.5011 99.4397C48.414 99.4899 48.3144 99.515 48.1982 99.515C48.0821 99.515 47.9825 99.4899 47.8995 99.4397C47.8166 99.3979 47.746 99.3435 47.6963 99.2766C47.634 99.2056 47.5925 99.1136 47.5718 99.0007C47.5469 98.8878 47.5345 98.6704 47.5345 98.3484C47.5345 98.0264 47.5469 97.809 47.5718 97.6919Z" />
<path id="Vector_19" d="M52.6499 99.9749H54.7118V99.5066H53.1394V98.5532H54.4836V98.1142H53.1394V97.186H54.7118V96.7177H52.6499V99.9749Z" />
<path id="Vector_20" d="M58.8564 99.5066C58.5038 99.5066 58.1968 99.3937 57.9396 99.1847L57.6201 99.5568C57.9645 99.8537 58.3752 100.004 58.8564 100.004C59.599 99.9958 59.9765 99.678 59.9931 99.055C59.9931 98.8251 59.9226 98.6202 59.7774 98.4487C59.6322 98.2731 59.4082 98.1602 59.1053 98.1184C58.9518 98.0975 58.8315 98.0808 58.7402 98.0682C58.5826 98.039 58.4664 97.9846 58.3918 97.9094C58.3212 97.8341 58.2839 97.7505 58.2839 97.6543C58.2839 97.4996 58.342 97.3783 58.4457 97.3031C58.5453 97.2278 58.6739 97.1902 58.8232 97.1902C59.1136 97.1944 59.3791 97.278 59.6239 97.441L59.8977 97.0355C59.599 96.818 59.2505 96.7051 58.8481 96.6968C58.5162 96.6968 58.2549 96.7888 58.0765 96.9602C57.8898 97.1358 57.7944 97.3658 57.7944 97.6501C57.7944 97.8884 57.869 98.0892 58.0184 98.2522C58.1636 98.4111 58.3752 98.5156 58.6531 98.5616C58.8066 98.5825 58.9518 98.6035 59.0804 98.6202C59.3625 98.6704 59.5036 98.8167 59.5036 99.0592C59.4994 99.3561 59.2837 99.5066 58.8647 99.515L58.8564 99.5066Z" />
<path id="Vector_21" d="M69.2983 99.9749V96.7177H68.8088V98.1142H67.531V96.7177H67.0415V99.9749H67.531V98.5532H68.8088V99.9749H69.2983Z" />
<path id="Vector_22" d="M74.7701 97.186V96.7177H72.7041V99.9749H74.7701V99.5066H73.1936V98.5532H74.5378V98.1142H73.1936V97.186H74.7701Z" />
<path id="Vector_23" d="M79.5703 98.5282C79.9811 98.3693 80.1885 98.0682 80.1968 97.625C80.1885 97.3239 80.0806 97.094 79.8773 96.9309C79.7072 96.7887 79.4874 96.7177 79.2177 96.7177H77.9565V99.9749H78.4461V98.5825H79.0725L79.7404 99.9749H80.3254L79.5745 98.5282H79.5703ZM78.4461 98.1435V97.1567H79.2136C79.3712 97.1567 79.4915 97.1901 79.5745 97.257C79.6782 97.3323 79.7321 97.4577 79.7363 97.625C79.7363 97.7672 79.6907 97.8842 79.5994 97.9804C79.5081 98.0849 79.3712 98.1393 79.1887 98.1393H78.4461V98.1435Z" />
<path id="Vector_24" d="M85.5111 97.186V96.7177H83.4492V99.9749H85.5111V99.5066H83.9388V98.5532H85.2829V98.1142H83.9388V97.186H85.5111Z" />
</g>
<defs>
<clipPath id="clip0_51_1356">
<rect width="89" height="100" />
</clipPath>
</defs>
</svg>
