<svg width="70" height="100" xmlns="http://www.w3.org/2000/svg"><g clip-path="url(#clip0_51_1302)"><path d="M64.117 57.648a30.841 30.841 0 01-3.66 5.163l.037.038-1.296 1.309c-5.771 5.841-13.454 9.06-21.634 9.06-8.181 0-15.81-3.194-21.572-8.993-5.763-5.8-8.937-13.51-8.937-21.71 0-.606.017-1.22.054-1.83a2.5 2.5 0 01.017-.256v-.025l.012-.167v-.03c.012-.125.02-.255.033-.38.009-.105.017-.213.03-.326l.05-.494c.012-.096.02-.204.037-.31.016-.133.033-.288.054-.438a1454.875 1454.875 0 00.103-.694c.013-.08.03-.172.042-.26.012-.075.025-.15.042-.225.016-.096.037-.21.058-.318.016-.096.037-.2.058-.305.025-.121.046-.239.075-.364.174-.836.39-1.677.635-2.496l.009-.021c.029-.109.062-.218.1-.322l.087-.28c.174-.535.365-1.079.569-1.602.029-.07.058-.15.087-.226.033-.079.062-.163.1-.25l.133-.326c.033-.084.075-.18.116-.272l.017-.042c.058-.125.112-.255.17-.38.042-.097.083-.189.129-.28a30.308 30.308 0 012.771-4.8l.175-.24c.12-.166.24-.334.365-.493.058-.075.12-.159.183-.238.133-.176.27-.347.403-.514.079-.096.158-.2.241-.297.075-.092.158-.192.241-.289.079-.096.166-.196.25-.292.095-.109.19-.222.286-.33l-3.581-3.61c-5.942 6.578-9.207 15.079-9.207 24.018 0 9.563 3.697 18.548 10.416 25.31 6.718 6.76 15.647 10.482 25.149 10.482s18.484-3.746 25.207-10.545c1.92-1.94 3.61-4.09 5.035-6.402l-3.693-3.717.004.009z"/><path d="M18.597 61.603C23.662 66.7 30.4 69.51 37.564 69.51c.224 0 .448 0 .673-.008.112 0 .22-.005.332-.009h.017l.494-.025.395-.025a5.66 5.66 0 00.178-.013l.092-.008c.12-.008.24-.02.366-.033.108-.009.207-.017.311-.03.075-.008.141-.016.204-.02l.137-.017c.087-.013.174-.021.266-.034a20.811 20.811 0 001.242-.188h.03c.07-.016.14-.03.207-.042l.033-.008a6.21 6.21 0 00.274-.054c.241-.046.478-.096.71-.15.159-.034.317-.076.474-.114h.021a.647.647 0 01.12-.033c.117-.03.22-.059.329-.084.091-.025.178-.046.262-.07.074-.022.14-.039.203-.06.063-.016.112-.029.158-.046l.038-.012c.066-.017.132-.038.199-.059.112-.033.208-.062.303-.096.08-.025.146-.046.22-.067.225-.075.45-.15.67-.23.062-.02.12-.041.178-.062l.046-.017c.079-.03.15-.054.216-.08.112-.041.207-.079.307-.117.083-.033.158-.058.229-.087.137-.055.262-.105.386-.16l.374-.158c.116-.05.233-.1.34-.15.067-.03.121-.055.18-.08l.053-.025c.092-.042.183-.088.275-.13.565-.272 1.121-.56 1.657-.87.059-.033.113-.066.17-.096.125-.07.25-.146.37-.217l.615-.38c.27-.176.553-.36.856-.57l.25-.175.033-.025c.062-.046.124-.088.187-.134l.016-.012.138-.1.016-.013a4.41 4.41 0 00.229-.172c.087-.062.17-.13.249-.192.058-.046.104-.084.154-.121l.058-.046c.083-.067.17-.134.253-.205.087-.071.17-.142.258-.21l.02-.016c.163-.134.32-.272.483-.41a3.95 3.95 0 00.145-.13l-3.586-3.612a21.601 21.601 0 01-14.1 5.214c-12 0-21.764-9.826-21.764-21.901 0-5.888 2.29-11.411 6.44-15.555a21.944 21.944 0 016.806-4.604l-3.806-3.83a26.942 26.942 0 00-6.59 4.842c-5.106 5.106-7.915 11.904-7.915 19.147 0 7.242 2.793 13.99 7.857 19.087h-.008z"/><path d="M68.001 35.792c0-9.563-3.697-18.548-10.416-25.31C50.867 3.723 41.935 0 32.432 0 22.93 0 13.947 3.742 7.225 10.545a35.714 35.714 0 00-5.036 6.402l3.694 3.717a30.84 30.84 0 013.66-5.164l-.037-.037 1.296-1.31c5.767-5.84 13.454-9.06 21.634-9.06 8.181 0 15.81 3.194 21.572 8.994 5.763 5.8 8.937 13.505 8.937 21.71 0 .605-.017 1.224-.054 1.83 0 .08-.008.168-.017.256 0 .062-.008.125-.012.188v.029c-.013.125-.02.255-.033.38-.009.105-.017.218-.03.33l-.05.494c-.012.096-.02.2-.037.31-.016.133-.033.284-.054.439l-.037.246c-.017.142-.042.293-.067.448-.012.08-.029.171-.041.259-.012.075-.025.15-.042.226a18.495 18.495 0 01-.12.623c-.02.117-.046.238-.075.364-.174.836-.39 1.68-.636 2.496-.033.113-.066.23-.108.347l-.087.28a29.176 29.176 0 01-.656 1.823l-.1.251c-.042.1-.087.213-.133.326a6.73 6.73 0 01-.116.272l-.017.042c-.058.125-.112.255-.17.38a30.31 30.31 0 01-2.9 5.08l-.17.239A30.3 30.3 0 0156.23 55c-.08.096-.158.2-.241.297-.07.087-.146.18-.224.271l-.017.017c-.083.096-.166.197-.254.293-.095.109-.19.221-.286.33l3.581 3.609c5.942-6.586 9.207-15.09 9.207-24.034l.004.008z"/><path d="M40.95 55.954l3.806 3.83a26.94 26.94 0 006.59-4.842c5.106-5.105 7.914-11.904 7.914-19.146 0-7.242-2.792-13.99-7.857-19.087C46.34 11.61 39.6 8.802 32.437 8.802c-.225 0-.449 0-.673.008-.113 0-.22 0-.333.008h-.016l-.495.025-.395.026c-.066 0-.124.008-.178.012l-.091.008c-.117.009-.241.021-.362.034-.108.012-.208.02-.312.033-.074.009-.14.017-.203.021l-.104.013s-.025 0-.033.004a32.253 32.253 0 00-1.238.176c-.092.016-.18.029-.266.046h-.03c-.07.016-.136.029-.203.041l-.046.009-.266.05c-.249.046-.486.096-.718.15-.158.034-.316.076-.474.113h-.02c-.042.013-.08.025-.121.034-.117.03-.22.058-.328.083-.092.026-.175.046-.262.072-.075.02-.142.037-.208.058-.062.017-.112.034-.158.046l-.037.013a3.573 3.573 0 00-.2.058 6.74 6.74 0 00-.303.096 6.375 6.375 0 01-.22.067c-.225.075-.449.15-.67.23-.061.021-.116.042-.174.063l-.05.017c-.074.029-.14.05-.207.08a6.4 6.4 0 00-.316.12 12.24 12.24 0 01-.229.092c-.137.055-.261.105-.386.16l-.374.158a27.911 27.911 0 00-.52.23l-.053.025c-.092.042-.183.088-.274.13-.565.272-1.122.56-1.658.87-.063.033-.112.062-.17.096a26.3 26.3 0 00-.35.204l-.386.239c-.079.05-.162.104-.245.155-.274.171-.553.36-.852.568l-.228.16-.05.033-.196.142-.024.017c-.042.033-.084.062-.13.096l-.016.012c-.079.054-.153.113-.228.172-.088.062-.166.13-.25.192-.058.046-.108.084-.153.121l-.059.046c-.083.067-.17.134-.253.205-.096.075-.187.155-.278.23-.162.134-.32.272-.482.41a4.12 4.12 0 00-.146.13l3.59 3.612a21.606 21.606 0 0114.101-5.218c12 0 21.763 9.826 21.763 21.901 0 5.888-2.289 11.411-6.44 15.555a21.942 21.942 0 01-6.805 4.603l.004-.008zM5.605 91.102c-.133.598-.387 1.054-.752 1.367-.374.302-.827.456-1.367.456-.44 0-.848-.113-1.234-.334-.374-.222-.652-.565-.827-1.02-.187-.456-.274-1-.274-1.61 0-.477.079-.945.233-1.388.153-.444.42-.8.785-1.067.374-.255.847-.389 1.4-.389.486 0 .88.113 1.2.356.32.234.562.61.728 1.133l.02.054 1.106-.255-.021-.067c-.208-.69-.573-1.233-1.093-1.622-.52-.376-1.159-.564-1.92-.564-.66 0-1.279.146-1.844.443a3.19 3.19 0 00-1.292 1.334C.153 88.505 0 89.195 0 89.96c0 .71.133 1.388.399 1.998.266.623.66 1.112 1.18 1.434.507.335 1.18.502 1.998.502.819 0 1.459-.221 2.007-.644.553-.422.927-1.053 1.138-1.865l.021-.066-1.113-.276-.021.067-.004-.009zm10.109-4.462a3.664 3.664 0 00-1.9-.501c-1.071 0-1.952.356-2.625 1.054-.673.698-1.014 1.689-1.014 2.918 0 .657.146 1.276.44 1.865.287.59.72 1.054 1.28 1.4.561.344 1.205.511 1.907.511.661 0 1.28-.155 1.845-.468.574-.301 1.014-.766 1.334-1.368.307-.59.465-1.275.465-2.032 0-.757-.154-1.409-.44-1.998a3.324 3.324 0 00-1.292-1.389v.009zm-.12 5.533c-.466.497-1.073.757-1.787.757-.715 0-1.3-.256-1.779-.745-.465-.502-.706-1.187-.706-2.053 0-1.079.254-1.865.74-2.32a2.495 2.495 0 011.753-.69c.486 0 .914.12 1.3.355.374.234.673.577.873 1.012.2.435.299.953.299 1.543 0 .92-.233 1.643-.694 2.145v-.004zM27.09 86.46l-1.779 5.098c-.145.41-.253.732-.332.987l-.3-.887-1.778-5.264h-.12v2.722l1.645 4.775h.98l1.68-4.762v-2.664l.003-.004zm-4.704-.066h-1.08v7.497h1.08v-7.497zm6.17 0h-1.072v7.497h1.072v-7.497zm4.977 0H32.42v7.497h1.113v-7.497zm4.479 1.166c-.166-.309-.365-.564-.627-.731a2.165 2.165 0 00-.94-.355c-.265-.055-.651-.08-1.146-.08h-1.367v1h1.446c.44 0 .74.02.906.066.24.067.44.201.586.41.153.21.22.456.22.757 0 .401-.12.71-.374.932-.254.222-.694.335-1.313.335h-1.467v1.012h1.459c1.06 0 1.82-.235 2.227-.678.42-.443.627-.986.627-1.63 0-.377-.079-.724-.233-1.033l-.004-.004zm7.005-1.166l-2.913 7.497h1.18l.333-.878h-.013l.84-2.275.178-.468.62-1.656h.012c.133-.368.24-.744.332-1.112.112.356.266.79.453 1.275l.752 1.953h-1.907l-.34.92h2.604l.873 2.233h1.267l-3.112-7.497H45.03l-.012.008zm9.053 0h-1.038v7.497h1.038v-7.497zm3.881 5.632l-.02-.033v1.898h1.1v-7.497h-1.08v5.632zm-3.486-3.232l3.067 4.529v-1.92l-3.067-4.52v1.911zm14.21-2.4l-1.467 2.2c-.287.434-.54.844-.76 1.2v-.013l-.62.945v3.165h1.127v-3.165l3.033-4.332h-1.313zm-2.46 2.998l-.461-.744-1.492-2.254h-1.367l2.693 3.977.627-.979zM0 97.63h.74v2.35h.41v-2.35h.74v-.369H0v.368zm4.874-.369l-.98 2.718h.431l.208-.606h1.026l.208.606h.432l-.98-2.718h-.346zm-.225 1.744l.39-1.188h.01l.39 1.188h-.79zm4.919-.134h.549v.142a.56.56 0 01-.158.414.525.525 0 01-.395.163.48.48 0 01-.249-.063.431.431 0 01-.17-.138.436.436 0 01-.104-.23 3.128 3.128 0 01-.03-.543c0-.268.009-.448.03-.548a.473.473 0 01.104-.226.47.47 0 01.17-.138.578.578 0 01.25-.058c.128 0 .24.042.332.113a.6.6 0 01.182.28h.433a1.015 1.015 0 00-.312-.573c-.166-.155-.378-.23-.636-.234a.9.9 0 00-.532.155.922.922 0 00-.315.334.752.752 0 00-.092.26c-.016.108-.029.317-.029.635s.008.523.03.631c.008.059.02.109.037.147a.913.913 0 00.37.447c.14.1.32.15.531.155a.964.964 0 00.686-.28.966.966 0 00.278-.686v-.552h-.96v.393zm4.122-1.61h-.407v2.718h1.724v-.389H13.69v-2.329zm4.388 0h-.408v2.718h.408v-2.718zm4.457 1.932h-.004l-1.225-1.932h-.383v2.718h.408v-1.932h.008l1.221 1.932h.387v-2.718h-.412v1.932zm3.258.787h1.724v-.39h-1.313v-.798h1.122v-.364h-1.122v-.778h1.313v-.389h-1.724v2.718zm8.447-1.109h.548v.142a.56.56 0 01-.158.414.525.525 0 01-.394.163.48.48 0 01-.25-.063.431.431 0 01-.17-.138.437.437 0 01-.104-.23 3.138 3.138 0 01-.029-.543c0-.268.008-.448.03-.548a.474.474 0 01.103-.226.47.47 0 01.17-.138.577.577 0 01.25-.058c.133 0 .24.042.332.113.087.075.15.171.183.28h.432a1.014 1.014 0 00-.312-.573c-.166-.155-.378-.23-.635-.234a.9.9 0 00-.532.155.921.921 0 00-.316.334.75.75 0 00-.091.26c-.017.108-.03.317-.03.635s.009.523.03.631a.57.57 0 00.037.147c.017.037.033.075.054.117.067.125.17.234.316.33.141.1.32.15.532.155a.964.964 0 00.685-.28.967.967 0 00.279-.686v-.552h-.96v.393zm5.43-1.141a.894.894 0 00-.308-.335.953.953 0 00-.535-.155.9.9 0 00-.532.155.92.92 0 00-.316.335.752.752 0 00-.091.259c-.017.108-.03.318-.03.635 0 .318.009.523.03.632.008.058.02.109.037.146.017.038.033.075.054.117.066.126.17.234.316.33.14.1.32.151.532.155a.966.966 0 00.535-.154.886.886 0 00.308-.33.633.633 0 00.095-.264c.017-.109.025-.318.025-.632 0-.313-.008-.526-.025-.635a.613.613 0 00-.095-.26zm-.32 1.434a.514.514 0 01-.108.23.526.526 0 01-.665.138.43.43 0 01-.17-.138.436.436 0 01-.104-.23 3.125 3.125 0 01-.03-.544c0-.267.01-.447.03-.548a.474.474 0 01.104-.225.47.47 0 01.17-.138.576.576 0 01.503 0c.066.037.12.083.162.138a.442.442 0 01.108.225c.017.097.03.28.03.548s-.01.448-.03.544zm3.191.816h1.724v-.39h-1.313v-.798h1.122v-.364h-1.122v-.778h1.313v-.389h-1.724v2.718zm5.393-1.548c-.129-.017-.229-.03-.303-.042a.542.542 0 01-.291-.134.293.293 0 01-.092-.213c0-.13.046-.23.138-.293a.516.516 0 01.315-.096c.245.005.466.076.67.21l.228-.34c-.25-.18-.54-.275-.877-.28-.278 0-.494.076-.648.222a.747.747 0 00-.237.573.72.72 0 00.187.502c.12.133.3.221.532.259.129.017.25.033.357.05.237.042.353.163.353.364-.004.247-.182.372-.532.376-.294 0-.552-.092-.768-.272l-.27.31c.287.246.631.372 1.03.372.62-.008.935-.272.947-.79a.768.768 0 00-.178-.506c-.12-.147-.308-.239-.561-.276v.004zm8.11-.004h-1.068V97.26h-.411v2.718h.411v-1.187h1.068v1.187h.411V97.26h-.411v1.167zm3.257 1.552h1.724v-.39h-1.317v-.798h1.122v-.364h-1.122v-.778h1.318v-.389H59.3v2.718zm6.257-1.958c-.008-.25-.095-.443-.27-.581-.14-.121-.324-.18-.548-.18h-1.055v2.718h.41v-1.162h.524l.557 1.162h.486l-.627-1.204c.345-.134.52-.385.523-.753zm-1.462.43v-.823h.64c.133 0 .232.03.299.084.087.063.133.167.137.31a.419.419 0 01-.112.296c-.075.088-.191.13-.345.134h-.62zm4.18 1.528H70v-.39h-1.317v-.798h1.122v-.364h-1.122v-.778H70v-.389h-1.724v2.718z"/></g><defs><clipPath id="clip0_51_1302"><path fill="#fff" d="M0 0h70v100H0z"/></clipPath></defs></svg>43 86.9041 0.752018 87.3515 0.452873 87.9285C0.153727 88.5056 0 89.1955 0 89.9607C0 90.6715 0.132953 91.3488 0.39886 91.9593C0.664767 92.5823 1.05947 93.0715 1.57882 93.3935C2.08571 93.728 2.75878 93.8953 3.57728 93.8953C4.39577 93.8953 5.03561 93.6737 5.58405 93.2513C6.13663 92.829 6.51057 92.1977 6.72246 91.3865L6.74323 91.3196L5.62975 91.0436L5.60897 91.1105L5.60482 91.1022Z"/>
<path id="Vector_6" d="M15.7136 86.6408C15.1527 86.3063 14.5087 86.139 13.8149 86.139C12.743 86.139 11.8621 86.4945 11.1891 87.1927C10.516 87.891 10.1753 88.882 10.1753 90.1113C10.1753 90.7677 10.3207 91.3866 10.6157 91.9761C10.9024 92.5657 11.3345 93.0298 11.8954 93.3769C12.4563 93.7197 13.1003 93.887 13.8024 93.887C14.463 93.887 15.0821 93.7323 15.6472 93.4187C16.2205 93.1176 16.6609 92.6535 16.9808 92.0514C17.2883 91.4618 17.4462 90.7761 17.4462 90.0193C17.4462 89.2625 17.2925 88.6102 17.0058 88.0206C16.7066 87.4311 16.2787 86.9669 15.7136 86.6324V86.6408ZM15.5931 92.1727C15.1278 92.6702 14.5212 92.9295 13.8066 92.9295C13.092 92.9295 12.5061 92.6744 12.0283 92.1852C11.563 91.6834 11.322 90.9977 11.322 90.1322C11.322 89.0534 11.5755 88.2673 12.0616 87.8116C12.5477 87.3558 13.1418 87.1216 13.8149 87.1216C14.301 87.1216 14.7289 87.2429 15.1153 87.4771C15.4893 87.7112 15.7884 88.0541 15.9879 88.4889C16.1873 88.9238 16.287 89.4423 16.287 90.0318C16.287 90.9517 16.0543 91.6751 15.5931 92.1768V92.1727Z"/>
<path id="Vector_7" d="M27.0893 86.4609L25.311 91.558C25.1656 91.9677 25.0576 92.2897 24.9786 92.5447L24.6795 91.6583L22.9012 86.394H22.7808V89.1161L24.4261 93.8911H25.4066L27.0851 89.1286V86.4651L27.0893 86.4609Z"/>
<path id="Vector_8" d="M22.3859 86.394H21.3057V93.8911H22.3859V86.394Z"/>
<path id="Vector_9" d="M28.5558 86.394H27.4839V93.8911H28.5558V86.394Z"/>
<path id="Vector_10" d="M33.5334 86.394H32.4199V93.8911H33.5334V86.394Z"/>
<path id="Vector_11" d="M38.0121 87.5606C37.8459 87.2512 37.6465 86.9962 37.3848 86.8289C37.1313 86.6491 36.8114 86.5278 36.4458 86.4735C36.1799 86.4191 35.7935 86.394 35.2991 86.394H33.9321V87.3934H35.378C35.8184 87.3934 36.1176 87.4143 36.2837 87.4603C36.5247 87.5272 36.7242 87.661 36.8696 87.87C37.0233 88.0791 37.0898 88.3258 37.0898 88.6269C37.0898 89.0283 36.9693 89.3377 36.7158 89.5593C36.4624 89.7809 36.022 89.8938 35.4029 89.8938H33.9363V90.9057H35.3946C36.4541 90.9057 37.2144 90.6715 37.6216 90.2283C38.0412 89.7851 38.249 89.2415 38.249 88.5976C38.249 88.2213 38.17 87.8742 38.0163 87.5648L38.0121 87.5606Z"/>
<path id="Vector_12" d="M45.017 86.3941L42.1045 93.8912H43.2845L43.6168 93.0131H43.6044L44.4436 90.7385L44.6223 90.2702L45.2414 88.6144H45.2538C45.3868 88.2464 45.4948 87.8701 45.5862 87.5021C45.6984 87.8576 45.8521 88.2924 46.0391 88.7774L46.7911 90.7301H44.8841L44.5434 91.65H47.1484L48.0209 93.8828H49.2881L46.1762 86.3857H45.0295L45.017 86.3941Z"/>
<path id="Vector_13" d="M54.0704 86.394H53.0317V93.8911H54.0704V86.394Z"/>
<path id="Vector_14" d="M57.951 92.0263L57.9302 91.9928V93.8911H59.0312V86.394H57.951V92.0263Z"/>
<path id="Vector_15" d="M54.4653 88.7942L57.5316 93.3225V91.4033L54.4653 86.8833V88.7942Z"/>
<path id="Vector_16" d="M68.6746 86.394L67.208 88.5934C66.9213 89.0283 66.6679 89.438 66.4477 89.7934V89.7809L65.8286 90.7259V93.8911H66.9546V90.7259L69.9876 86.394H68.6746Z"/>
<path id="Vector_17" d="M66.2152 89.392L65.754 88.6478L64.2624 86.394H62.8955L65.5878 90.3705L66.2152 89.392Z"/>
<path id="Vector_18" d="M0 97.6292H0.739554V99.9791H1.15088V97.6292H1.89043V97.2612H0V97.6292Z"/>
<path id="Vector_19" d="M4.8736 97.2612L3.89307 99.9791H4.32517L4.53291 99.3728H5.55914L5.76688 99.9791H6.19898L5.21845 97.2612H4.87775H4.8736ZM4.64924 99.0048L5.03979 97.8173H5.0481L5.43865 99.0048H4.64924Z"/>
<path id="Vector_20" d="M9.56841 98.871H10.1168V99.0132C10.1168 99.1846 10.0628 99.3226 9.95896 99.4271C9.85509 99.5358 9.72214 99.5902 9.56426 99.5902C9.4687 99.5902 9.3856 99.5693 9.31497 99.5275C9.24434 99.494 9.18617 99.448 9.14462 99.3895C9.09061 99.3309 9.05737 99.2557 9.04075 99.1595C9.01998 99.0633 9.01167 98.8836 9.01167 98.6159C9.01167 98.3483 9.01998 98.1685 9.04075 98.0682C9.05737 97.9762 9.09477 97.9009 9.14462 97.8424C9.18617 97.788 9.24434 97.7379 9.31497 97.7044C9.3856 97.6668 9.4687 97.6501 9.56426 97.6459C9.69306 97.6459 9.80524 97.6877 9.89664 97.7588C9.98389 97.834 10.0462 97.9302 10.0795 98.0389H10.5116C10.47 97.8131 10.3661 97.6208 10.1999 97.4661C10.0338 97.3114 9.82186 97.2361 9.56426 97.2319C9.35236 97.2319 9.17371 97.2863 9.03244 97.3866C8.88703 97.4828 8.78316 97.5957 8.71668 97.7212C8.67513 97.7881 8.64605 97.8717 8.62527 97.9804C8.60866 98.0891 8.59619 98.2982 8.59619 98.6159C8.59619 98.9337 8.6045 99.1386 8.62527 99.2473C8.63358 99.3059 8.64605 99.356 8.66267 99.3937C8.67929 99.4313 8.69591 99.4689 8.71668 99.5107C8.78316 99.6362 8.88703 99.7449 9.03244 99.8411C9.17371 99.9414 9.35236 99.9916 9.56426 99.9958C9.83848 99.9916 10.067 99.8954 10.2498 99.7156C10.4285 99.5317 10.524 99.3059 10.5282 99.0299V98.478H9.56841V98.8668V98.871Z"/>
<path id="Vector_21" d="M13.6899 97.2612H13.2827V99.9791H15.007V99.5902H13.6899V97.2612Z"/>
<path id="Vector_22" d="M18.0776 97.2612H17.6704V99.9791H18.0776V97.2612Z"/>
<path id="Vector_23" d="M22.5354 99.193H22.5312L21.3056 97.2612H20.9233V99.9791H21.3305V98.0473H21.3388L22.5603 99.9791H22.9467V97.2612H22.5354V99.193Z"/>
<path id="Vector_24" d="M25.793 99.9791H27.5172V99.5902H26.2043V98.7916H27.3261V98.4278H26.2043V97.6501H27.5172V97.2612H25.793V99.9791Z"/>
<path id="Vector_25" d="M34.2398 98.871H34.7882V99.0132C34.7882 99.1846 34.7342 99.3226 34.6304 99.4271C34.5265 99.5358 34.3935 99.5902 34.2356 99.5902C34.1401 99.5902 34.057 99.5693 33.9864 99.5275C33.9157 99.494 33.8576 99.448 33.816 99.3895C33.762 99.3309 33.7288 99.2557 33.7121 99.1595C33.6914 99.0633 33.6831 98.8836 33.6831 98.6159C33.6831 98.3483 33.6914 98.1685 33.7121 98.0682C33.7288 97.9762 33.7662 97.9009 33.816 97.8424C33.8576 97.788 33.9157 97.7379 33.9864 97.7044C34.057 97.6668 34.1401 97.6501 34.2356 97.6459C34.3686 97.6459 34.4766 97.6877 34.568 97.7588C34.6553 97.834 34.7176 97.9302 34.7508 98.0389H35.1829C35.1414 97.8131 35.0375 97.6208 34.8713 97.4661C34.7051 97.3114 34.4932 97.2361 34.2356 97.2319C34.0238 97.2319 33.8451 97.2863 33.7038 97.3866C33.5584 97.4828 33.4545 97.5957 33.3881 97.7212C33.3465 97.7881 33.3174 97.8717 33.2967 97.9804C33.28 98.0891 33.2676 98.2982 33.2676 98.6159C33.2676 98.9337 33.2759 99.1386 33.2967 99.2473C33.305 99.3059 33.3174 99.356 33.3341 99.3937C33.3507 99.4313 33.3673 99.4689 33.3881 99.5107C33.4545 99.6362 33.5584 99.7449 33.7038 99.8411C33.8451 99.9414 34.0238 99.9916 34.2356 99.9958C34.5099 99.9916 34.7384 99.8954 34.9212 99.7156C35.0998 99.5317 35.1954 99.3059 35.1996 99.0299V98.478H34.2398V98.8668V98.871Z"/>
<path id="Vector_26" d="M39.6699 97.7296C39.6076 97.6041 39.5037 97.4912 39.3624 97.3951C39.217 97.2947 39.0384 97.2445 38.8265 97.2404C38.6146 97.2404 38.4359 97.2947 38.2947 97.3951C38.1492 97.4912 38.0454 97.6041 37.9789 97.7296C37.9373 97.7965 37.9083 97.8801 37.8875 97.9888C37.8709 98.0975 37.8584 98.3066 37.8584 98.6244C37.8584 98.9421 37.8667 99.147 37.8875 99.2557C37.8958 99.3143 37.9083 99.3645 37.9249 99.4021C37.9415 99.4397 37.9581 99.4774 37.9789 99.5192C38.0454 99.6446 38.1492 99.7533 38.2947 99.8495C38.4359 99.9498 38.6146 100 38.8265 100.004C39.0425 100 39.2212 99.9457 39.3624 99.8495C39.5037 99.7533 39.6076 99.6446 39.6699 99.5192C39.7156 99.4523 39.7488 99.3645 39.7654 99.2557C39.7821 99.147 39.7904 98.938 39.7904 98.6244C39.7904 98.3108 39.7821 98.0975 39.7654 97.9888C39.7488 97.8801 39.7156 97.7965 39.6699 97.7296ZM39.35 99.1638C39.3292 99.2599 39.2918 99.3352 39.2419 99.3937C39.2004 99.4481 39.1464 99.4941 39.0799 99.5317C39.0093 99.5735 38.922 99.5944 38.8265 99.5944C38.7309 99.5944 38.6478 99.5735 38.5772 99.5317C38.5065 99.4983 38.4484 99.4523 38.4068 99.3937C38.3528 99.3352 38.3196 99.2599 38.303 99.1638C38.2822 99.0676 38.2739 98.8878 38.2739 98.6202C38.2739 98.3526 38.2822 98.1728 38.303 98.0724C38.3196 97.9804 38.357 97.9052 38.4068 97.8466C38.4484 97.7923 38.5065 97.7421 38.5772 97.7087C38.6478 97.671 38.7309 97.6543 38.8265 97.6501C38.922 97.6501 39.0093 97.671 39.0799 97.7087C39.1464 97.7463 39.2004 97.7923 39.2419 97.8466C39.296 97.9052 39.3333 97.9804 39.35 98.0724C39.3666 98.1686 39.3791 98.3526 39.3791 98.6202C39.3791 98.8878 39.3707 99.0676 39.35 99.1638Z"/>
<path id="Vector_27" d="M42.541 99.9791H44.2653V99.5902H42.9523V98.7916H44.0741V98.4278H42.9523V97.6501H44.2653V97.2612H42.541V99.9791Z"/>
<path id="Vector_28" d="M47.9339 98.432C47.8051 98.4153 47.7054 98.4027 47.6306 98.3902C47.4977 98.3651 47.4021 98.3191 47.3398 98.2564C47.2775 98.1937 47.2484 98.1226 47.2484 98.0431C47.2484 97.9135 47.2941 97.8132 47.3855 97.7504C47.4686 97.6877 47.5766 97.6543 47.7013 97.6543C47.9464 97.6585 48.1666 97.7295 48.3702 97.8633L48.5987 97.5247C48.3494 97.3449 48.0586 97.2487 47.722 97.2445C47.4437 97.2445 47.2276 97.3198 47.0739 97.4661C46.916 97.6125 46.8371 97.8048 46.8371 98.039C46.8371 98.2355 46.8994 98.4027 47.024 98.5407C47.1445 98.6745 47.3232 98.7623 47.5558 98.7999C47.6846 98.8167 47.8051 98.8334 47.9132 98.8501C48.15 98.8919 48.2663 99.0132 48.2663 99.2139C48.2622 99.4606 48.0835 99.586 47.7345 99.5902C47.4395 99.5902 47.1819 99.4982 46.9659 99.3184L46.6958 99.6278C46.9825 99.8745 47.3273 100 47.7262 100C48.3453 99.9916 48.661 99.7282 48.6735 99.2097C48.6735 99.0174 48.6153 98.8501 48.4948 98.7038C48.3743 98.5574 48.1874 98.4654 47.9339 98.4278V98.432Z"/>
<path id="Vector_29" d="M56.044 98.4278H54.9763V97.2612H54.5649V99.9791H54.9763V98.7916H56.044V99.9791H56.4554V97.2612H56.044V98.4278Z"/>
<path id="Vector_30" d="M59.3013 99.9791H61.0255V99.5902H59.7084V98.7916H60.8302V98.4278H59.7084V97.6501H61.0255V97.2612H59.3013V99.9791Z"/>
<path id="Vector_31" d="M65.5584 98.0222C65.5501 97.7713 65.4628 97.579 65.2883 97.441C65.1471 97.3198 64.9643 97.2612 64.7399 97.2612H63.6846V99.9791H64.0959V98.8167H64.6194L65.1761 99.9791H65.6623L65.0349 98.7749C65.3797 98.6411 65.5542 98.3902 65.5584 98.0222ZM64.0959 98.4529V97.6292H64.7357C64.8687 97.6292 64.9684 97.6585 65.0349 97.7128C65.1221 97.7755 65.1678 97.8801 65.172 98.0222C65.172 98.1393 65.1346 98.2397 65.0598 98.3191C64.985 98.4069 64.8687 98.4487 64.715 98.4529H64.0959Z"/>
<path id="Vector_32" d="M68.2759 99.9791H70.0001V99.5902H68.683V98.7916H69.8048V98.4278H68.683V97.6501H70.0001V97.2612H68.2759V99.9791Z"/>
</g>
<defs>
<clipPath id="clip0_51_1302">
<rect width="70" height="100" fill="white"/>
</clipPath>
</defs>
</svg>
